<svg xmlns="http://www.w3.org/2000/svg" xmlns:xlink="http://www.w3.org/1999/xlink" viewBox="0 -14 353 385"><g transform="translate(-64.7 -57.7)"><ellipse cx="240.7" cy="362.4" fill="url(#a)" rx="175.2" ry="67.9"/><path fill="url(#b)" d="M111.5 109.6c-.4-.6-.4 1.5-.8.8-2.7-4.8-5-13-5.2-19 0 0-4.3 2.7-7.2 11.7-.5 1.7-1 2.6-1.2 3.5l.2-2.7c-.6 1.2-2 3-2.6 5-.4 1.5-1 2.5-1.3 4.5 0 .6 0-2.4-.2-2-3.6 10-6.6 23.7-5 42.3 17-15 40.5-26.2 40.5-26.2-2.5-1.7-11-8.3-17-17.8z"/><path fill="url(#c)" d="M67.8 261c.2-3 7-59.4 33.2-78.6 22.6-16.5 5-10.5-3.7-9.8-9.2.7-14 6.3-12.3 4.2-.3-.5-21.5 17.4-17.3 84z"/><path fill="url(#d)" d="M64.8 216.8s15.4-49 46.5-48.6c20.7.3 4.3-17.4-2-20-6.5-3-8-2.8-9.5-1.5-2.3 2-22.8 1.3-35 70z"/><path fill="url(#e)" d="M350.4 93.3s14.7 7.2 24.3 22.3c7.8 12.4 4 29-3 26.2-7-3-21.3-48.5-21.3-48.5z"/><path fill="url(#f)" d="M375.8 143.5c4-31.6-25.4-50.2-25.4-50.2s2 10.8 4.3 34.8c2.6 27.5 19.2 30.2 21 15.5z"/><path fill="url(#g)" d="M277 386.5c53.2 11.3 93.5-33.7 64.8-44.5-26-9.7-90 39.2-65 44.5z"/><path fill="url(#h)" d="M346.5 343.4c53.2-11.6 71.4-69.2 40.8-67.2-27.8 2-66 72.8-40.8 67.2z"/><path fill="url(#i)" d="M393.7 253.8c35-25.2 18.3-70 18.3-70s-7.7 23-14.7 50.4c-7 27-24.5 34.8-3.6 19.7z"/><path fill="url(#j)" d="M404 175.5c-3.7-43.2-30.5-65.5-30.5-65.5l6.3 34.8c4.8 27.4 26.4 56.5 24.2 30.7z"/><path fill="url(#k)" d="M240.3 395.8c93.2 0 168.7-75.6 168.7-168.8 0-93.3-75.5-169-168.7-169C147 58 71.6 133.8 71.6 227c0 93.2 75.6 168.7 168.7 168.7z"/><path fill="url(#l)" d="M214.4 362.3c.6.3 1 .3 1.7 0 .3-.3.4-.6.3-1l-.4-.7c-.6-.4-1.4.5-1.7.8-.2.3-.4.5-.7.3.2.2.3.5.6.6zm-4 .5c-.3-.2-.7 0-1 0-.3 0-.7-.3-1 0 0 0-.2 0 0 .2.3.2.7.2 1 .2.2 0 .4 0 .6.2h.2l.3-.2c.2-.2.2-.3 0-.4zm-63.3-9.6l-.8-.7-1.6-1.2c-.4-.2-.7-.6-1-1-.3 0-.6-.2-1-.5l-.7-.5c-.3-.2-.4-.7-.8-.4 0 .3.8 1 1 1 .7.5 1.2.5 1.7 1 .3.5.7.7 1 1l1.3 1.3c0 .3.6.3 1 .4.2 0 .6.4.8.3 0-.2-.3-.4-.6-.5zm66.7 8.5h-.2.2zm-113.2-157c.3 0 .2 0 .2-.3v-.4l.4-.3c.2 0 .2-.2.3-.3v-.8a1 1 0 0 0 0-.5h-.2c0-.3-.2-.2-.3 0h-.3c-.2.3-.2.5-.2.8v.8c-.2 0 0 .6.2.6zm88.8 80.5v.4-.4zm-77.8-81c0-.2-.4 0-.6 0H110.3v.4s-.2 0-.3.2c0 0 0 .3-.3.4 0 .2-.3.4-.4.6 0 .2-.3.3-.2.6l.7 1c.2.2.5.6.3 1h.6l.2-.7c0-.3 0-.4.3-.6h.3v-.3c.2 0 .3-.3.4-.4l.2-.2.2-.3v-.2V205c0-.2-.2-.3-.3-.5zm-3.3 99.5c0-.3 0-.7-.6-.7l.3 1v.7c.4.5.7 1.2 1.2 1.6.3.2.5.8 1 .7-.3-.6-1-1.2-1.2-1.8l-.6-1.2zm-3.2-111l-.3-.2-.2-.3-.4-.2h-1.5l-.3.2h-.2v.3h-.4c-.2.2 0 .4-.2.5V194l.4.3c0 .2.2.3.3.3h.4s.3 0 .4-.3c0-.2.3-.3.5-.4l.7-.4.5-.3c.2 0 .3-.2.4-.4 0-.4 0-.4-.2-.7v-.2zm32.7 149c-.2-.8-.6-1.5-1-2.3l-.2-1-.2-.3c-.2 0 0-.5-.3-.8l-.4-.2s-.2 0-.3-.2v-.4l-.4-.5c-.3-.3-.8-1-1-.8 0-.2-.3-.3-.5-.5l-.6-.6c-.5-.3-.5-.8-.8-1.2l-1-1c0-.5-.4-1-.8-1 0 .3.3.8.4 1v.6l.4.4v.5l.6.5c0 .2 0 .5.3.8.2 0 .3.3.4.4v.5c.2.6.6 1.2 1 1.7l.7.8c.3.3.6.4.6.8.5 0 .6.5 1 1l.7 1c.2.5.3 1.3.6 1.5l1 1h.2c0-.2-.3-1-.5-1.2l-.5-1zm-23.2-24l-1-2c0-.3-.2-.5-.3-.8 0-.3 0-.8-.4-1-.4-.3 0 .5 0 .7 0 .3 0 .5.3.8l.5.7v.4c0 .3.5.6.7 1 .3.4.6 1 .7 1.5 0 .8.5 1.4 1 2l.2-.2c.3 0 .4.4.7.5 0-.6-.6-1.3-1-1.8s-1-1-1.2-1.7zm18.8 15.6l.8 1 .2-.2a.7.7 0 0 0 .2.4c.4-.2-.5-1.5-.6-1.7-.3-.4-1.4-1.6-2-1.4 0 .5.5.8.8 1v.2c.3.3.5.3.8.7zm3.4 9.7l-.2-.4v-.2h-.4v-.4h-.2v-.3a.5.5 0 0 0-.2-.2v-.2h-.2a.3.3 0 0 1 0-.3l-.2-.3v-.2h-.2v-.2l-.2-.3s0-.2-.2-.3v.5l.2.2.2.3v.3l.3.2.2.4.2.3.4.5.2.2v.2h.3v.2l.2.3.2.2v.2l.3.2.2.2.2.2v-.3zm67.7 22.8v-.2c-.7-.3-1 1-.2 1 .3.2.5.2.6 0v-1.1h-.2zm2.7-2.7l.2.2c0-.3.2-.5 0-.8s-.3-.3-.5-.5c-.3-.2-.4-.5-.7-.6-.2 0-.8-.2-1 0-.2.3.5 1 .8 1.2 0 0 1.3 1.2 1.3.5zm-.6 2.4c.4.2.8.2 1-.2.3-.4.3-.7 0-1-.3-.3-1-.2-1.3 0-.4.5 0 1 .4 1.2zM102 203.4v.4h.5l.3-.5c0-.2.3-.3.4-.4l.2-.5.2-.2.3-.4c0-.3.3-.5.4-.8v-.2l.2-.2.2-.4.7-1 .8-1c.4-.3.6-.7.7-1 0-.3 0-.5.3-.7l.2-.4c0-.3-.3-.6-.4-.8v-.4c-.2 0-.3 0-.3-.2s0-.5-.3-.6c-.3 0-.3.2-.5.4h-.2l-.5.4-.2.4v.4l-.5.6c0 .2-.2.4-.4.6l-.2.4v.4l-.3.3c0 .3 0 .5-.2.6l-.2.2v.7c-.2 0-.2.2-.2.4 0 0 0 .4-.2.7l-.2 1v.7zm1 59.3c.5 0 .4-.5.5-.8 0-.5 0-.7-.4-1-.4-.4-.6.4-.6.7 0 .4.4.8.5 1zM226.6 327c-.7-.2-1.3-.4-2-.4-.8 0-1.5-.5-2.3-.7-.3-.2-.7-.2-1-.5-.2-.3-.2-.5-.6-.6-.8-.5-.4-1.4-1-2a18.3 18.3 0 0 1-.5-.6c-.3-.3-.7-.4-1-.5a2 2 0 0 0-.6-.3c-.4 0-.4 0-.6-.2v-.8c-.2-.6-.4-.6-.8-1-.4-.3-.3-.8-1-.8H214c-.5-.2-1-.7-1.4-1-.6-.5-1-1.3-1.7-2l-1-.8s0-.3-.2-.4v-.3s-.3 0-.4-.2a3.3 3.3 0 0 1-.5-1.2s0-.3-.2-.4l-.6-.3c-.4-.3-.6-.8-1-1.2l-1.2-.5-1-.4h-.8c-.2 0-.2-.3-.6-.2v-.2c-.4 0-.4-1.2-.6-1.6-.4-.4-1-.6-1.4-.6h-1.7c-.7-.3-.6-.7-1-1.2-.5-.5-1-.7-1.6-1-.5-.2-1-.5-1.5-1L194 303c-.4-.5-1-.5-1-1-.2 0-1-.2-1-.4-.5-.3-.4-.4-1-.6-.5-.2-.6-.3-1-.7l-.5-1c-.2 0-.3 0-.5-.2h-.5c-.4-.2-.4-.5-.5-1l-.2-.4-.2-.5c-.2 0-.4-.6-.7-.7.4 0 .5-.7.5-1 0-.3 0-.6.2-1l.2-.4c0-.5 0-2.4.7-2.5.2-.3-.2-.4-.2-.6l.3-1c0-.4 0-1 .2-1.6 0-.5 0-.7-.3-1.2-.3-.3-.8-.7-.4-1a2.5 2.5 0 0 0 0-.7c.2-.3.2-1 .5-1.4.3-.2.4 0 .6-.5v-1c.2-.2.4-.3.5-.6v-1l.4-2c.2-1.2.6-2.6-.7-3.3l-1.6-.6-.8-.4c-.2 0-.6.3-.5-.3-.2 0-.4 0-.7-.2h.6c0-.8.7-.4 1-.8.3-.4.2-1 .5-1.5.7-.8 1.5-1.4 2.3-2 1-.6 1.6-1.4 1-2.5-.4-.5-1-1-1-1.5 0-.6.2-1.2 0-1.7-.8-.2-.8-1.3-1-2l-1-1c0-.2 0-.6.2-1-.2 0-.3 0-.5.2-.5.3-.6 0-.7-.4 0-.5 0-.8-.2-1.3 0-.7-1-1.6-1.7-1.8l-1.4-.2-1.3-.2-1 .2h-1.2c-.7.2-1.2 1-2 .7-.4 0-.5-.8-.8-1-.4-.3-.8-.5-1-1-1-1.2-1.5-2.5-2.8-3.3l-2-1.3-2.2-1.4c-.8-.4-1.6-.6-2.3-1.2-.7-.6-1.4-1.4-2-2.2-.5-.6-.8-1.3-1-2-.4-.5-.8-1-1-1.6l-.3-.3v-.4c-.2-.6-.7-1-1-1.6-.3-.6-.3-1 0-1.6.4-.5.8-1 1-1.7.4-.7-.2-1.4-.2-2 0-.8-.6-1.4-.2-2 .3-.6 1-1 1-1.7v-.5l-.2-.3c0-.2 0-.2.2-.3 0-.3 0-.5.2-.6.4-.5 1-1 1.7-1.2.7-.2 1.3-.5 1.8-1l.6-.7v-1c0-.7 0-1.6.6-2l.6-.3h.5l.2-.3c0-.2.2 0 .4 0l.4-.2c.3 0 .6-.3 1 0 .3 0 0 .4.6.2.2 0 .5-.3.5-.6s-.5-.5-.3-.8l.3-.2c.2 0 .2-.2.3-.4l.7-1 .4-.8.3-.7a.8.8 0 0 0 0-.3c-.2-.2 0-.3 0-.5l-.3-1c0-.5.5-.8.5-1.3v-.5-.5c0-.2 0-.4-.2-.7v-1c-.2 0-.6-.5-.7-.7-.3-.2-.5-.6-.8-1l-1-1c-.8.2 0 1 0 1.4 0 .2-.3.5-.4.6l-.4.2a.3.3 0 0 1-.2.2.3.3 0 0 1-.2-.2c-.6 0-1.4 0-1.7.7 0 .2 0 .7-.4 1-.4.2-.8 0-1 .5-.6.4-.7 1-1.2 1.4l-1 .3h-.4l-.6.2-1 .2c-.5 0-.8 0-1 .2h-1l-1.2.3c-.6 0-1 .6-1.4 1-.5.3-1.3.8-2 .8h-1c-.3 0-.6.3-1 .5l-1 .2H153c-.6.2-1 0-1.4 0-.7 0-1 0-1.7-.5-.3 0-1-.5-1-.5-.3 0-.7.5-1 .6l-1 .5v-.3l-.4.6v.7l-.3 1c-.4 0-.5.4-.8.6l-.7.3h-1c-.2.2-.2.4-.6.5-.2.2-.4 0-.6.2-.6.4 0 1-.6 1.4-.5.3-1 0-1.4 0 0 .3 0 .6-.2.8 0 0 0-.3-.2-.4h-.5c-.3-.3 0-.3 0-.5v-.5l-.5-1s-.2-.5-.5-.7c-.2 0-.3 0-.4-.3l-.3-.4c-.3-.3-.8 0-1.2-.2h-2.4c-1-.2-1.7-.4-2.6-.3-.4.2-1 .4-1.3.3-.5 0-.4-.2 0-.4.5-.3 1.7-1 1-1.6-.4-.4-.6 0-.6-.7v-1l-.5-.6c-.2 0-.2-.3-.4-.5-.2-.3-.5-.6-1-.7l-1-.2-.6-.2c-.4 0-.6 0-1 .4-.4.6-.7 1.7-1.5 2l-1 .2-.6.3-1 .4c-.5.2-.7.4-.8.8 0 .3-.2.8-.4 1-.3.5-.8.5-1.2.7-.4 0-.8.2-1.2.4-.4 0-.8.2-1.2.4-.3.3-.3.6-.5 1-.2.3-.7.4-1 .7-.3.4-.2.8-.3 1.2 0 .6-1 2-.4 2.6 0 .2.3.2.4.4l.3.6 1 1.3c0 .3.3.7.6 1 .3.5.4 1 .7 1.3.2.4.5.6 1 1l.7 1c.3.2.5.2.8.2.3 0 .5.2.8.4l1.2.5 2.3 1.7c.8.6 1.2 1.4 1.8 2l.6.3-.3.5-.3.8c0 .5 0 .4.2.6 0 .6.2.6-.4 1.2l-.7.7-1.4 1.7c-.5.6-1 1-1 1.8-.3.6-.4 1-1 1.5-.7-.6-1.5-2-1.7-2.8-.2-.5 0-1.3-.3-2 0-.3-.5-.7-.7-1l-1-1.7c0-.5-.5-1-.6-1.4-.2-.7.3-1-.4-1.4l-.5.3c-.4 0-.6-.2-.7-.5-.5-.3-.7 0-1.2 0l-1.5-.6c-1 0-1 .5-1.4 1.2-.4.6-.6 1.4-.8 2-.2.7 0 1.7-.7 2 0-.3.3-1-.3-1 0 .4 0 1.5-.6.8-.2-.4 0-1.6.3-2 .5-1.3 1-2 0-3.5l-.4-.7c-.3 0-.7-.2-1-.4-.3-.4-.3-1.3-1-1.6-.6-.4-.8.4-1.3-.2-.4-.5 0-1-1-1.3 0 .2-.4.7-.4 1 0 .5.5.6.6 1 0 1-.5.7-.8 1l-.7.8c-1.4 1.5-4 0-5.5 1.2v.4c-1 0-1 2-1 2.8l-.5 1.8-.7 1.4c-.2 0-.4 0-.5-.2-1.5.8 0 4 .3 5 .2 1 .4 2 .7 2.7.2.7.8 1.7.7 2.4.7 1.8 1.2 4 2 5.8.3.7.5.8 1.2 1 .8.2.7.2 1 .8.3.4.8.7.7 1.2l-.7 1.2.7.8.5.4c.6.3 1.3.5 2 1 .6.3.8.6 1.2 1l1.5 1.2c.5.5.6 1 .7 1.7v1l.7 1c.3.6 0 1.4 0 2 0 .7.5 1 .8 1.5v.3c-1.6-1-1.8.4-2.7 1l-1.2 1c-.2 0-.7.8-1 .8-1 1.7-2.8-2.2-3.6-2.3 0-.5-.5-1-1-1.3-1 0-1.3 0-1 1.3 0 .5 0 .8.3 1.3v.5c0 .6 0 .8.3 1.2v1c.2.8.3 1.6.6 2.2.3.7.8 1.3 1.2 2 .5.6 1.3 1 1.2 2-.3 0-.4-.4-.5-.6-.3 0 0 .5 0 .7.2.4 0 .6 0 1 0 .3.3.6.3 1v2.1c.3.2.2.6 0 1 0 .6-.3 1.2-.5 1.8-.2.3 0 .5 0 1s.2.7.5 1c.3 0 .6.3.8.6l.4.7v1c-.2.4-.2.8-.2 1.3v.6l.2.5v1.4l.6 1c0 .4.4.7.6 1 0 .3 0 1 .5.8 0 .5.4.4.6.6.2.2.2.6.3.8 0 .5.4 1 .7 1.5l1.8 3.5 1 1.8c.2.6.4 1.2.8 1.7l1.2 1.4.4.8c.2.4.5.2.8 0v-.6c1 0 2.2-.2 2.4.8.5 0 .7-.2 1.2 0 0 .5 0 .7.3 1 .2.5.3 1 .6 1.2.2.4.6.2 1 0 .2-.2.2-.6.3-1 .6 0 0-.8 0-1-.2 0 0-.3 0-.5s-.4-.2-.3-.4c.2 0 .3.4.4.7 0 .3.3.5.5.8.2.8.6 1 1.2 1.6.4.3.7 1 1.2 1.2.3.2.7.2 1 .5 0 0 0 .2.2.3l.4.3.2.4s.2 0 .3.2c.3.2.3.5.7.4.4 0 .4-.3.7 0 .4.2.6.6.8.8.2.3.2.6.3 1 0 .4-.3.7-.3 1 0 .2.4.5.5.7l.5 1c0 .4.3.7.5 1 .2.5.5.6.7 1l.2 1c.3.4 1 .6.8 1-.8.2-1.3-.6-2-.8 0 .2 0 .3.2.5 0 .2 0 .5.2.6-.2.2 0 .4.2.6l1 1 1 1c0 .2.2.3.5.6.3.2.5.3.6.6 0 .3 0 .4.2.6 0 0 .2 0 .3.2l.3.5c0 .3.4.4.6.7l.2.7c.2.3.3.3.3.6v.5c0 .2.3.3.4.4 0 .3.3.8.5 1.2.2.3.4 1 .7 1 .2-.8-.7-1.5-1-2.3.3 0 .4.2.6.3 0-.4 0-.5-.2-.8 0-.3-.2-.8-.4-1h.5l.2-1c.4-.2.8.4 1.2.4.2-.6-.6-1.2-.7-1.6 0-.6 0-1.3.7-1.3.6.2.8.8 1.2 1 .5.4 1 .2 1.7.3.7 0 1.2.3 1.6.7l.7.4c.3.2.3.4.4.7.2.5.5 1 1 1.3l.4.5c.4.4-.2.3 0 .7.6.2.8.8 1 1.3l.8.7c.3.2.3.4.4.7l.4.6.3.8c.2.4.6.8 1 1.2 0 .2.3.4.3.7 0 .2 0 .6-.2.8 0 .2-.4.4-.6.4-.2 0-.3 0-.6-.3-.4-.3-1-.4-1.3-.8-.2-.2-.2-.5-.5-.7-.2-.2-.7-.3-1-.3.2.4.7.8 1 1 0 .5.2 1 .5 1.2-.5 0-1-.7-1.5-1 0 .3.5.6.7.8l.8 1c.3.4 1 .8 1 1.4 0 .4-.2.5 0 .8.2.3.6.4.8.6l.5.6.8.4 3 2.2c.5.3 1 1 1.6.5.2 0 .4-.4.8-.4s.6.2.8.6l.5 1c.2 0 .5.4.6.7v.4s-.2.4 0 .5v.3l.3.2v.4c0 .4.4.6.5.8 0 .3.3.6.6 1 0 0 .2 0 .3.3v.6c.2.4.7.5 1 1 .2.5.5 1 1 1.6l.7.5.8.8 2 2 1 .8c.2 0 .2.3.2.5.3 0 .4.5.7.6.2 0 .4 0 .5.3v.5c.2.3.8.4 1 .3.5-.2.5-.5 1-.4.4 0 .4.3.6.6.4.4.4.6.3 1 0 .5-.2.7 0 1v1c.2.4.4.5.8.6h.6c.2.2.2.6.5.7.4 0 .8 0 1.2.4l1 1c.2 0 .2.2.4.3l.7.3 1.6.7 1.3.5c.5.2 1 .6 1.5 1 .4.2.8.5 1.2 1 .3.2.5.6.8 1 .3 0 .7.2 1 .5l1 .7c.2.2.4.2.7.3l1.5.6c.8 0 1.6.5 2.3.8.2.2.4 0 .6.2l.3.2h.4l.6.3h.5l.4.3 1.2.6c.6.3 1 .8 1.5 1.3.2.4.2.4.8.5.6 0 .4.7.8 1h.4l.6.4 1 .3h1l1 .5.2.3c.3.3.6.2 1 .2.2 0 .5 0 .8.2.7.2 1.3.7 2 .8h1l.8.4c.5.2 1 0 1.3.2l1 .4h1c.3.2.6.2 1 .2l1 .2h1c0-.4-.4-.6-.6-.6l-1-.2h-.5l-.5-.2c-.3 0-.7 0-1-.2-.4 0-.7 0-1-.2-.2 0-.5-.4-.6-.5l-.8-.5-.8-.7c-.2-.3-.5-.5-.8-.6l-1-.4c-.5-.2-1-.5-1.5-1l-1-.8c-.4-.2-1 0-1-.5-.4-.4-.3-.4-.8-.6l-1-.4-.8-.6-1-.6h-1l-1-.4c-.7-.2-1.3-.6-2-1-.5-.2-1.2-.5-1.7-1l-.7-.7c-.2-.2-.2 0-.4-.3 0 0 0-.3-.2-.4 0-.3-.2-.5.2-.7l.8-.3c.2 0 .8.3.6-.2l-.8-.5-.7-.4c-.3 0-.3-.3-.5-.7l-.7-1.7c-.2-.3-.4-.4-.5-.8v-1.2c0-.4-.2-.6 0-1l.3-1c0-.2.2-1 .5-1h1.3c.3 0 .7.3 1 .4l.3.3c.2.2 0 .4.2.6.4.6 1.2 1 1.8 1.5l1.6 1.6c.2.5.5.8.8 1 .3.5.3.7.4 1.2v.5s-.2.4 0 .5c0 .3 0 .5.3.8.5.5 1.2.8 2 .5l.7-.4h.5c0-.2.3-.3.4-.3l1 .2c.3 0 .7 0 1-.2.8 0 1-1 .7-1.5v-1l-.6-1v-.3l-.2-.5c0-.4.4-.4.5-.8 0-.7-.4-1.2-.8-1.8v-.3c.3-.5.5-.7 1-.8a7.4 7.4 0 0 1 1.7-.3c.5 0 1 0 1.5-.2s.6-.8.5-1.3c0-.7-.7-1-1.2-1.3 0-.3-.2-.5-.4-.7 0-.3-.3-.4-.5-.7l-.6-1.2c.3 0 .6 0 1-.2h1c.3 0 .6-.2 1 0l.8.3c.3.2.7.3 1 .3l1-.2 1-.3 1 .2c0 .4 0 .7.3.8.3.2.8.2 1 .4.2.3-.3.5-.2 1 .2.3.7.3 1 .2l1-.7c.3-.3.3-.4.8-.2l.7.3c-.2-.2-.2-.4-.2-.6 0-.4.2-.7.5-1 .3-.3.7-.2 1-.4 0-.2 0-.3.3-.4.2-.2.4 0 .5-.2.4-.3.2-.8.6-1 0-.2.3 0 .5-.2s0-.4.4-.4c.3 0 .4.4 1 .4l.5-.4h.6c.6 0 .7-.4.6-1-.6 0-.6-1.2-.7-1.6l-.3-1 .2-1V356.2v-1.2c.2-.3.5-.6.5-1v-1l.5-.6v-.6l.3-1 .3-1c0-.3 0-.7.2-1.2.3-1.6.7-3.2.7-4.8 0-.6-.3-1.2-.4-1.7v-.8l-.3-.7c0-.2-.3-.3-.4-.4l-.5-.7c-.2-.3-1-1-1.2-.7 0 .3-.4.4-.6.6-.3.3-.2.6-.2 1h-.2v.4c-.2 0-.5 0-.8-.2l-.6.2c-.2 0-.4 0-.6.2-.2 0-.3.2-.5.3-.3.2-1.2.3-1.4 0 0-.3 0-.6-.3-.8 0-.2-.3-.3-.5-.5-.8-.6-1.4-1.3-1.5-2.2v-1.7c0-.2 0-.5.2-.7 0-.3.3-.3.3-.7l.8-.4h1c.6 0 1 .5 1.6.6.7.2 1.3.3 2 .7.2 0 .4.4.7.6.4.2.6 0 1-.2h1l1-.2c.6 0 1 0 1.3-.3l.4-1c.2-.6.6-1.2 1.2-1.3l1-.4c.2 0 .6 0 1-.2l1-.3c.5 0 1-.4 1.4-.6-.2-.4-1.3-.4-1.8-.6zM176 221c0-.3.5-2-.4-1.6-.6.2-.4 1.2 0 1.6h.2zm27.8 148.7c.2.2.4.2.7.3 0 0 .3.4.5.4.7-.2-.2-1-.3-1-.3-.4-.4-.7-1-.6h.4c-.6-.2-.4.6 0 1zm-30.2-146.4c.3 0 .8-.5.8-1 0-.3-.5-.6-1-.4-.5 0-.2.7 0 1h-.3s.2.3.5.3zM202.3 371v.2l.3-.3c.2-.3.3-.3.3-.6a1 1 0 0 0-.5-1h-.5v.5c0 .2-.2 1 .4 1zm-.8 1.7c0-.3 0-.8-.3-1-.5 0-.2 1-.3 1.4 0 .6.3.6.7.5l-.3-.8zm3.3 2c.3.2.6.4 1 .4l-.3-.7c0-.3-.3-.5-.5-.7-.3-.2-.5-.4-.6-.7-.2-.4-.4-1-1-1v.7a.4.4 0 0 0-.3 0c0 .2.4.4.6.7v1c-.4 0-1.8-.2-1.6.4l1.8.4-.2.3 1-.2zm-4.7-.3c-.6.3.5 1 .8.6l.3.2c.2 0 .5-.2.5-.4-.3 0-1-.4-1.3-.3zm2.8-.6c.5-.2 0-1.6-.6-1.6-.7 0 .5 1.3.6 1.5zm0-5.6c.2-.3 0-1.4-.4-1.3l-.2-.2c.2-.3-.6-.2-.7 0-.2.2.2.5.2.7l-.2.7v.8c.4 0 1 0 1.3-.7zm-6-96.2zm-2.6 15.2l-.4.6v.2c.2-.7.8-.6 1.2-1 .2 0 .4-.7.5-1 .2-.5.7-2.4-.6-1.8-.3 0-.5.5-.7.6 0 0-.4 0-.6.2-.4.2-1 .4-1.2 1-.3.5 1 2 1.5 1.5zm-5-189.4v-.3c0-.2 0-.5-.2-.7l-.2-.3v-.3h-.8s0 .2-.2.2l-.3.3-.5.4-.6.6-.2.3-.2.3s-.2 0-.3.2l-.2.4v1.7l-.2.4v.9l-.2.5c0 .2.2.4.3.5v.6h.2s-.2.3 0 .3c0 0 .3 0 .4-.2l.2-.2.4-.3 1-.6.3-.6v-1.3s0-.3.2-.4c.2-.2.4-.2.4-.4v-1.4zm2.8 190l-1.4 1v.4c0 .3.2.3.3.5 0 .4 0 .7.2 1 .2 0 .3 0 .5.2 1.2.3 1.2-1 1-1.7 0-.6-.3-1-.7-1.3zm.4-192.8v.2H193.4l.3-.3.2-.2.4-.3c.2 0 .4-.3.6-.4h.2v-.4c.3-.2.3-.3.2-.6v-.3-.2l-.6-.3h-.3c0 .2 0 .2-.3.2l-.6.3h-.4l-.2.2h-.4l-.3.2-.2.2-.3.2-.3.5c0 .3-.2.7 0 1l.6.4zm4.4 177zm-24.2-49.4l.4.5s0-.3-.4-.4zm13-119.6zm15.6-14.2l.6-.6V88c0-.2-.2-.2-.3-.2-.2 0-.3 0-.4-.2-.2-.2-.6.2-1 .3l-.4.3-.5.2h-.2v.3c0 .2-.2.3-.3.5l-.2.6.2.4v.2c0 .2.2 0 .4 0h.4l.2-.3.3-.2.3-.2c0-.2.2-.4.4-.6zm-4 2.4V91l.2-.4c0-.2 0-.5-.3-.6l-.3.4c0 .2 0 .4-.3.6-.2.2-.3.2-.3.5 0 0 .2.3.4.3 0 .4.3 0 .4 0v-.3zm-112 90.5c0 .2 0 .2 0 0zM97 194.4v.2s.2.2.2 0v-.2-.5-.5c0-.3 0-.6.2-1a2.7 2.7 0 0 0 0-.8v-.5l.2-.4v-.7l.4-.6.3-.7v-1-.3c.2 0 .2-.2.2-.3l.2-.3v-.4c.2 0 .3 0 .4-.2h.3c0-.2.2-.2.2-.3l.3-.3v-.4-.5l.4-.4s.3-.2.3-.4l.2-.2h.5l.3-.4.2-.4.3-.2.2-.2h.6l.2-.2h1.3l.5.2h.5c0 .3.4.4.6.3l1.2-.3h1s.2 0 .3.2l.5.2c.3 0 .5.3.7.4l.6.5v.3l.3.2.4.8c0 .2.3.4.6.5h.3l.4-.2.5-.3v-.2h.2c0-.2 0 0 .2 0l.3-.2h.4c.5-.2.2-.6.2-1v-.7s0-.2.2-.3l.3-.4c.2-.3 0-.5 0-.7l-.3-.5-.3-.4V179.3c0-.2.2-.2.3-.3.2 0 .2-.2.3-.4v-.3l.3-.2v-.9c0-.2 0-.2-.2-.2-.3 0-.5 0-.6.4l-.2.2-.3.2-.4.4c-.2.3-.6.6-1 .7v-.3-.3l-.5-.4v-.7c0-.3.2-.4.2-.5v-.4l.5-.7.3-.2.2-.2.7-.6.2-.4v-.4l.6-.4.7-.4.3-.2.3-.2s0 .2.2.3v.2l.3.2c.2 0 0 .4-.2.6v.6l.5.5c.3 0 .6-.3.7-.5l.2-.2.3-.3.8-.7 1-.6c.2 0 .4 0 .6-.2l.6-.6h.2l.2-.2.3-.2.2-.2.3-.4.7-.4.3-.4s0-.3.2-.4h.3v-.3h.2v-.3s.4-.3.5-.2c.2 0 0 .3 0 .4.2 0 .2 0 .2.2 0 0-.2.2 0 .2h.6l.5-.3.4-.2.3-.3s0-.2.2-.2.4-.2.5-.5l.3-.6h.2l.2-.3c0-.2.2-.3.3-.4.2-.3 0-.8 0-1.2l.3-1v-.7l-.2-.5v-.6s0-.6 0-.8c-.2 0-.4 0-.5-.2h-1.3l-.3-.2h-2c-.5 0-1-.4-1.3-.4 0 0-.4 0-.6.2l-.6.2h-.7l-.2.2-.3.3c-.2 0-.3.2-.4.4v.3c0 .2-.2.2-.4.2s-.4-.2-.6-.4l-.2-.2-.4-.2-.3-.2h-.3l-.4-.2c-.2 0-.3 0-.4-.2l-.8-.2s-.2 0-.2.2v.5c-.3.3-.3.6-.3 1v.3c0 .2 0 .3-.2.5v.8l-.2.3s0 .2-.2.3h-.3c-.2 0-.3 0-.4-.2-.2 0 0-.4.2-.6l.3-.6v-.2c.2 0 .4-.4.4-.5v-.3s0-.3-.2-.4c0-.3-.2-.4-.4-.7l-.5-.7a.8.8 0 0 1 0-.5c0-.2 0-.3.2-.4.2 0 .3-.4.4-.7 0-.3.2-.5.4-.8l.3-.8c0-.3.2-.5.3-.8l.4-1 .3-.6v-.4c0-.2 0-.2-.2-.3v-.7c0-.5.2-1 .4-1.5v-.3l.2-.3.2-.5v-.4l.3-.6.4-1h.2v-.5c.2-.2 0-.3.2-.5l.2-.3.2-.7c0-.2 0-.5.3-.7l.2-.2s0-.2.2-.3l.2-.2.2-.3c0-.3.2-.3.5-.5l.2-.2v-.7s0-.2.2-.3c0-.2.3-.4.5-.6 0-.3.2-.5.4-.7l.3-.2c.2 0 .3 0 .5-.2l.2-.2h.2l.5-.6c.3-.2.6 0 .8-.3l.3-.3.5-.3.3-.2h.2l.6-.3.6-.5H127.5l.2-.2h.4c.2-.2.2-.5.2-.7v-.7l-.2-.2v-.2l.2-.2.2-.2v-.3l-.2-.3-.2-.3-.2-.2-.4-.2s0-.2-.3-.2l-.2.2c-.2-.3-.3 0-.4 0-.2-.2 0-.4 0-.4s.2 0 .3-.2v-.3.3c.3 0 .3-.2.4-.2l.5-.4v-.5h.3l.4-.7v-.2s.2 0 .3-.2c.2 0 .2-.4.4-.5l.2-.3.3-.2c0-.2.4-.3.6-.5l.3-.3v-.2l.4-.3.3-.2.5-.4c0-.3.2-.4.3-.5l.4-.3s0-.3.3-.4l1-.7c.4 0 1-.5 1.5-.6l.8-.2c.3 0 .5-.2.8-.3.2 0 0 .6 0 .8l-.6.7-.5.8v.5l-.5.4c-.3 0-.5.4-.7.6l-.2.3v.3l-.3.3-.2.4c0 .2-.2.3-.3.4v.4s.3-.2.5 0l-.2.3c0 .2-.2.5 0 .6h.2v1l-.2.5-.2.6v.4l-.2.3-.2.5-.2.5-.2.4s.3 0 .4-.2l.3-.2.2-.2H135.4l.2-.2h.3l.4-.3c.2-.2.4-.5.7-.3h.4l.3-.4.2-.2h.2c.3 0 .4.2.7 0h.7l.5.6h.3c0 .2.2.2.4.2l.7.2h.8l.6-.5h.7l.3-.7c.2-.2.3-.3.3-.6v-.4h1.5v-.2c.4 0 .7.2.8.5.4.6 0 1.3-.4 1.7 0 0 0 .2-.3.3l-.2.3v.4c0 .2.2.3.3.5v1.1l.2.4.4.8v.4l.3.4v.4l.3.4.3.7v.4l.2.3v.2l.2.2.2.2v.3h.3s.2 0 .3-.2c0 0 .2 0 .3-.2v-.2l.4-.3.5-.3c.2-.2.4 0 .7 0l.4-.2h.5c0 .2.2.3.3.3v.3c0 .4.6.5.8.6h.7c0-.2.3-.3.4-.5l.2-.2c0-.2.2-.2.4-.4l.3-.4.3-.2.7-.4.7-.4.5-.5v-.4l.4-.2c0-.2.4-.3.5-.6 0-.2.2-.5.5-.6.2 0 .4-.2.5-.3.2-.2.3-.3.6-.3v.2c.2 0 .4-.4.5-.5l.4-.4c.3-.2.6-.4.7-.8l.6-.5.3-.3.5-.3 1-.8.2-.3.2-.2-.6.2.3-.4.6-.7c.2 0 .5-.2.6-.5 0-.2.2-.4.4-.6l.4-.5.4-.6.2-.4s.2-.3 0-.4v-.3-.6c.2-.2.4-.5.4-.8V128v-.2-.4a.7.7 0 0 0 .3-.3c.2 0 .2-.2.3-.3l.2-.2v-.4l.2-.2v-.3l.3-.2v-.2l.4-.2s.2 0 .2-.3a.6.6 0 0 0-.3-.4h-.5l-.2.2h-.4c0-.2-.5 0-.8 0h-.4c-.2-.2.2-.4.2-.5 0-.2-.2-.2-.3-.2-.2 0-.3 0-.4.2l-.4.2h-.5c-.2 0-.3 0-.5.2l-.3.2-.4.2h-.4l-.3.3h-.4c0 .2-.2.2-.3.3l-.2.3h-.2l-.2.2h-1.6l-.3.2h-.3-3.2c-.2 0-.6 0-.7-.2v-.5h.2v-.3l.3-.2.3-.2 1-.5.7-.4.4-.4.6-.4.3-.2s0-.2.3-.2h1c0-.2 0-.3.3-.3h.5l.5-.3h.5c0-.2.2-.3.4-.3 0 0 .2 0 .3-.2.6 0 1.3 0 1.7-.6l.2-.7.2-.4s-.2 0-.3-.2c-.2 0-.5 0-.7-.2H162l-.5.2-.4-.2h-.6c-.2-.2 0-.3-.2-.4h-.2s-.2 0-.3-.2h-.6s-1 .7-1 .2c0-.3.3-.5.6-.6.2 0 .4-.2.6-.4l.3-.3.2-.2v-.2h.3c0-.2 0-.4.2-.5l.3-.4 1-1.2v-.6h.2l.4-.3c.3-.2.4-.3.7-.3h1.9l.3-.2v-.2-.2h-.2l-.5-.2-.2-.2c0-.2-.3 0-.6 0l-.3-.3v-.2c-.3 0-.8.5-.7 0l.2-.2.2-.2.3-.2h.5l.3-.2s0-.2.3-.2c.4 0 .6 0 .8-.2.2 0 .3-.2.5-.3l.4-.4h.7l.4-.2h.4l.8-.5 1.3-.8c.3 0 .6-.3 1-.3h.2l.7-.4.7-.3s.3 0 .4-.2c.3 0 .6-.2.8-.3h.4l.4-.3h.3s0-.2.2-.2v.9l-.3.3-.3.4c0 .2-.6.4-.5.6 0 .3.6 0 .7-.2l.4-.4.3-.3.2-.2c0-.2.4-.2.6-.3l1-.7h.4l.8-.3.8-.2h.8l.8-.5.4-.2h1l.4-.2c.4 0 .5 0 .7-.4.3-.3.5-.7 1-1 0 0 .3-.3.3-.5V102.5c.2-.3.2-.7.2-1V99h-.6-.4a.4.4 0 0 1-.3-.3c0-.3 0-.3.2-.4.2 0 .3-.2.5-.4 0-.2.2-.4.3-.5.2-.3 0-.4-.3-.3h-.4a.6.6 0 0 1-.3 0s-.3-.2-.3-.4l.2-.2v-.2-.5-.3h-.5l-.7-.4h-.8V95h-.3l-.3-.2h-.3s-.2 0-.2.2c-.2.2-.3.5-.6.6-.2 0-.3.3-.5.5l-.2.4-.2.3h-.3l-.5.2H176.6v-.2h-.5-.7l-.3-.2-.3-.2a2.5 2.5 0 0 0-.7 0h-.8c-.3-.3-.2-.4 0-.6 0 0 .2 0 .3-.2l.2-.3V95l-.2-.2h-.7-.8l-.2.2h-.4l-.3.2h-.3l-.5.2h-1.6l-.4.2h-1.3c-.2 0-.3 0-.4-.2s0-.2 0-.4l.2-.3v-.3c.2-.3 0-.6.3-.8.2-.2.5-.2.8-.2h.3l.2-.4h.3l.4-.3h.2c.2-.2.3 0 .4-.2.2 0 .6-.3.4-.5h-.3l-.4-.2h-.3-.2l-.2-.4s-.3 0-.2-.2l.2-.2.7-.6.2-.2h.2l.4-.3c.4-.3.8-.3 1.2-.5h.7v-.2h.3c.3 0 .5-.2.8-.4l.8-.5c.3 0 .6-.4 1-.5h1.6l.2-.2v-.3c.2 0 .2-.2.2-.4v-.2l.5-.5.4-.3.5-.4h.4l.2-.2c.3-.2.3-.5.4-.8h.3l.3-.3.6-.6.2-.3.2-.4c0-.2 0-.4-.2-.6 0-.2 0-.3-.2-.4l-1-.5s-.2 0-.3-.2c-.2 0-.5-.3-.4 0-.2 0-.4 0-.3-.2 0 0 .2 0 .3-.2l.2-.3v-.2l.2-.2.2-.4c0-.4.3-.6.6-1l1-1 1.3-.5 1.8-.6 1-.2h.3l.3-.2v.3l.2.2v.5h.2c.2 0 .4 0 .5-.2l1.2-.3h.4l.4-.2h1c.2 0 .3-.2.4 0l.4.2H191.3l.2.2h1.7c.2 0 .4-.4.6-.6.2-.2.2 0 .4 0l.5-.3.6-.4.8-.2h.3l.8-.4.6-.4.5-.3h-.3-.2l-.3.4h-.7l-.2.3-.3.2h-.5l-.5.3-.3.2h-1.1c0-.3.2-.4.3-.5 0 0 0-.2.3-.3l.5-.2c.3 0 .5-.3.7-.5.2-.3.5-.4 1-.5.2-.2.5-.4 1-.5l.3-.2c.2 0 .3-.2.5-.4l.8-.4.6-.2c.2 0 .4 0 .6-.2l.5-.2h.2V71h.4l.4-.2h.4l.4-.3h.3c0-.2 0-.2.2-.3.4 0 .8-.4 1.2-.4h.7l.8-.3c.2 0 .4 0 .6-.2l.5-.3 1-.3.8-.4c.2 0 .5 0 .8-.3 0 0 .3 0 .4-.2h.2l.7-.3s.3 0 .4-.3c0 0 0-.2.2-.3h1l.2-.2c.3-.3 1-.5 1.3-.6.4 0 .8-.2 1-.4l.5-.2h.3l.2-.2c.2 0 .3 0 .5-.2h.5l-.2-.3.3-.2c.3 0 .6 0 1-.2h.4c.2-.2.4-.2.6-.2l.5.2h.3l.2-.2.5-.2.6-.2h.6s.5-.3.3-.4h-2.6-.7-.9c-.2 0-.4 0-.6.2h-.3l-.4.2h-.3-.2c0 .2-.2.4-.4.5-.2 0-.4 0-.7.2H213l-.7.3-.4.2h-.4l-.3.2h-.5l-.3.2h-.9l-.5.2-.8.2h-.5l-.2.2a.7.7 0 0 0-.3 0s0 .2 0 .2h.5l.2.2v.3h-.2l-.5.3h-.6l-.8.2-.8.2c-.3 0 0-.3 0-.4.2 0 .4-.2.3-.3 0-.2 0 0-.2 0h-.2l-.2.4-.5.2c-.3 0-.6.2-.8.4-.2 0-.3.2-.5.3h-.4c-.2 0-.4-.2-.3-.4v-.3h.2v-.2h.4v-.2l.6-.2h.5l.8-.4V66h-.2l-.3.2h-.6l-.2.2a2.2 2.2 0 0 0-.5.2h-.3l-.3.2h-.3c0 .2 0 .2-.2.2l.2-.2.4-.2.3-.3h.2V66h.2l.3-.2.3-.2h-1.2l-.3.2h-.2l-1 .2h-.4c-.2 0-.4 0-.6.2l-1 .3s-.4 0-.6.2h-.6c-.2 0-.3.2-.5.3-.2 0-.3 0-.5.2H195.6l-.6.2h-.8c-.3 0-.7.4-1 .4H192l-.3.2h-1l-.4.4s-.4.2-.5 0h-.2c-.3 0-.5.2-.8.3h-.6l-.2.2h-.3c0 .2-.2.2-.3.2h-.3c0 .2-.3.3-.4.4l-.4.2h-.6l-.4.3-.3.2h-.2l-.6.2a.6.6 0 0 0-.3.3h-.4l-.8.5-2 .5-1.5.4-1.4.6h-.5l-.2.2h-.3l-.2.3-.2.2h-1l-.6.4h-.9v.2h-.5l-1.5.6h-.3l-.4.2h-.4l-.4.3-.8.3c-.3.2-.6.3-1 .3s-.7.5-1.2.8l-1.3.6-.6.2h-.3s-.2 0-.3.2l-.4.2-.7.5-.7.4-.8.4-.7.4-.4.2-.4.2c-.4.2-.8.5-1.2 1-.3 0-.6.3-.8.6l-1.3 1-.8.3h-.4c0 .2-.2.2-.2.3h.7l.4-.2.4-.2c.2 0 .4 0 .6-.2l.8-.4h.3c0-.2.3-.2.4-.3l.3-.3c.2 0 .3-.3.5-.4l.4-.2h.3l-.5.4-.6.3-.4.4a.7.7 0 0 1-.3.2H159c-.2.2-.3.3-.5.3l-.3.2h-.2v.2c-.5.4-1 .5-1.5.8l-1 .6-.7.4-.3.2-.4.2-.6.4-.4.3-.2.2-.4.3-.7.5h-.3l-.2.2h-.4l-.5.5h-.4l-.5.3h-.3l-.5.3c-.3 0-.6.3-.8.5l-.7.3s-.3 0-.2.2h.3c.2 0 .3 0 .3-.2l.3-.2c0-.2.3-.2.5-.3l.8-.2h.4l.5-.3c.2 0 .4-.2.5-.3l.6-.3c.2-.2.4-.4.6-.4h.2l-.2.2-.4.3-.4.2-.6.4-.5.3h-.3c0 .2-.2.2-.3.3l-.3.3v.2l-.6.5-.3.3v.4l-.7.5c-.2 0-.4.2-.6.4 0 0-.3 0-.5.2l-.5.3h-.2l-.2.3-.4.4-.3.3-.3.3s0 .2-.3.2l.3-.2.3-.4-.6.3-.5.6-.6.5H142.3v.2h-.5l-.3.3h-.3a1.5 1.5 0 0 0-.4 0l-.5.2h-.4-.2l-.3.3.2-.2.3-.3.4-.3.5-.4.4-.4.2-.2.3-.2c0-.2.3-.3.4-.5l.5-.4c0-.2.3-.5.2-.6h-.2l-.4.4c-.2.2-.5.2-.7.3l-.5.4-.3.3-.3.3-.5.3-.6.6-.5.3-.4.3-.2.3-.6.5-1 1-.4.3-.5.5-1 .7-.4.3-.6.5-.8.6-.6.4-.8.5-.5.3-.5.3-.4.2-.7.5c0 .2-.4.4-.6.7 0 0 0 .2-.3.3l-.3.3c-.2 0 .4-.6.4-.6l.6-.4.6-.5s0-.2.2-.2l.3-.4v-.3l-.4.2c-.3 0-.5.4-.7.7l-.3.3-.3.3-.7.8-.4.4h-.3v.2h-.3l-.2.2-.6.4-1.2 1-.5.3-.7.5-.5.3-.4.3-.6.5-.7.8-.2.3-.4.5-1.2 1.3-.7.5-.6.5c-.8.6-1.4 1.3-2 2h-.2l-.3.4-.6.8-1 1-.3 1.4-.3.2-.4.4-.3.3-.3.2s-.3 0-.4.2l-.3.3-.3.3a1 1 0 0 0-.4.3l-.2.2-.5.6-1 1-.6.8-.6.7c-.2.2-.3.6-.6.8l-.8 1-1 1.3-.7 1c-.4.4-.7 1-1 1.2-.4.4-.7 1-1 1.5l-1 1.3-.5.7c0 .2-.2.3-.4.4-.2.7-.6 1.2-1 1.8 0 .4-.3.7-.5 1l-.5.8-.5 1-.4.7-.4 1-.4.7-.4.7-.4 1c-.2 0-.4.4-.5.6l-.6 1-.7 1.2-.5 1-.4.8-.3.6-.7 1.4c0 .5-.3 1-.6 1.5v.2l-.3.4-.4.7-.3.8-.3.8c-.3.3-.3.6-.5 1l-.3.6c0 .2 0 .4-.2.5-.2.2-.3.6-.4 1l-.2.4-.2.5-.4.8-.3.7-.2.4-1 2c0 .4-.4 1-.6 1.4l-.7 1-1 1.7-.2 1-.2.2-.4.8c0 .3-.3.5-.3.8 0 .2-.2.3-.3.5l-.2.4v.6l-.2.5s0 .5-.3.7v.4l-.2.3-.3.7v.9c0 .2 0 .4-.2.6v1.8c.2 0 .3-.3.3-.4 0-.3 0-.6.2-.8v-.8l.2-.4c0-.2 0-.3.2-.5l.4-.7s0-.2.2-.3v-.4c.2-.2.2-.5.4-1l.4-1 .3-.8v-.4-.4l.2-.3s0-.3.3-.5c0 0 .4-.4.6-.2l.2.4v.4c0 .7 0 1.3.2 1.8 0 .3.3.6.2 1v.3l-.2.5v.5l-.2.4v.8h-1v.8c0 .3-.2.5-.3.8l-.2.6v.4s0 .3-.2.4v.4l-.2.2v.3l-.3.5v.4s0 .3-.2.5v2.7c-.2.2-.2.3 0 .4v2.6c.2.2.4 0 .5 0l.2-.2.3-.2s0-.3.2-.4l.3-.2.4-.5.2-.3v-.2c.3-.2.6-.4.6-.7v-.4h.3c0-.3 0-.6.2-.8l.3-.2s.2 0 .2.3v1.5s-.2.2 0 .4v.2c0 .3-.2.6 0 1v.2l.3.5.2.8V183.7l-.2.2.2.5.2.4v.5c0 .2-.2.3 0 .5v.3c0 .3 0 .5-.2.8v.4a.7.7 0 0 1-.4.2c-.2 0-.5.2-.6.4l-.3.3c-.2.2 0 .3 0 .5s0 .6-.2.8v.2s0 .3-.3.4l-.3.3-.3.2-.3.3v.3l-.3.4v.2c-.2 0-.3 0-.3-.2 0 0 .3-.3.2-.4l-.4.4-.4.3a.3.3 0 0 1-.2.2c-.3 0-.6 0-.7.3v.3l-.4.3v.9c0 .2 0 .4-.2.6v.7l-.2.4v.3l.2-.2.3-.4.5-.2.4-.3v-.5l.3-.5c0-.2.3-.4.5-.4s.2 0 .3.3c0 0 .2 0 0 .2v.2h.3l.3-.3h.7c.3-.2.5-.2.6-.5v-.2l.6-1c0-.2.2-.5.4-.6l.3-.2c.2 0 .2-.2.3-.3.2-.2.8-.3.8-.5.2 0 .3-.4.3-.5 0-.2.4-.4.5-.6l.3-.4s.3-.3.2-.4h.5c.2 0 0-.4 0-.6l.4-.5.2-.3-.2.3v1c-.2.2 0 .2 0 .3v.7c0 .3-.2.2-.4.3-.2.2-.2.4 0 .6v1.2l.2.3v.4l.3.3v.3c.2 0 .2.2.2.4v.3c0 .2.3.2.4 0l.2-.3s.2 0 .2-.2v-.3c0-.4 0-.6.2-1l.3-.5v-.3l.3-.2s.3-.4 0-.5l.4-.3c.2-.2 0-.2.2-.3 0-.3.3-.3.3-.5v-.4l.3-.5a1 1 0 0 1 .2-.4l.6-.3v.7h-.2v1.8l-.2.4V191.8h.4v.7s.2 0 .2.3l.2.4V193.7zM209.7 64v-.2h.7c.2-.2.4-.2.6-.2h.2l.5-.3h.5c.2-.2.4-.3.7-.3H214v-.2h.5l.6-.2H215.7l.4-.3h.2l.2-.2h1.2l.6-.3h.6c.3 0 .7 0 1-.2 1 0 1.8-.3 2.7-.3H225.2l.3-.2h1.7c.2 0 .4 0 .6-.2h1c.2.2.5 0 .7 0h1.2-.6l-.7-.2h-4.2l-1.3.2-.7.2H222c-.4 0-1 0-1.5.2h-.8l-1 .2h-2l-.4.2h-.5l-.6.3-.5.2h-.2l-.2.2-1.2.6-1 .3h-.5c-.2 0-.3.2-.5.3l-.4.2h-.2l-.3.2.3.4zM203 83.8h.4l.4-.2h.7c0-.2.2-.2.3-.3 0-.2.2-.5 0-.7l-.2-.3H203.6c0 .2-.3.2-.3.3l-.2.4s-.4.4 0 .5l-.3.3h.3zm-11.5 214.4c0 .6 1.4-.3 1.6-.6.6-.4.5-1.4.5-2 0-.6-.2-.7-.5-1l-.5-1c-.4-.3-1.3-.4-1.7 0 0 0-.3 0-.3-.2 0 .3-.2.5-.3.7v1c-.3.2-.5 0-.5.4 0 .3.2.4.3.5 0 0 .2 0 .3.3v.4l.3.4c.2.4.6.8.4 1v.4zm4 2.4h.3c.3 0 .4-.2.5-.3 0-.2.2-.3.5-.4l1.2-.7c.4-.2.4-.6.6-1l1-1c0-.4.4-.7.8-1l.4-.8v-.5c-.2-.4 0-.7 0-1 0-.4-.4-.7-.3-1 .2-.7 0-1.4 0-2 0-.3 0-.5-.3-.8-.2-.2-.5-.4-.5-.6v-.8l-.3-1c-.2-.5 0-1-.5-1.6-.3-.3-.7-1.2-1.5-1-.4 0-.7.3-1 .5l-.4.8-1 1.3a.8.8 0 0 0-.3.6c0 .3-.3.2-.6.5-.2 0-.2.4-.4.6l-.4.8v.7l-.2.7c0 .5.2 1 .6 1.6l.5.5 1 .4c.5.2.4.5.4.8v.4l.4.2-.3.7v.4c0 .2-.3.2-.4.3-.3.3-.3.8-.6 1.2l-.3.6c0 .2-.6.8-.3 1 .2 0 1 0 1.3.2zM191 95c-.2 0-.5 0-.8.2v.4s0 .2.2.3v.3h.2c0 .2.2.3.3.3h.2c.3.2.7 0 1 0l.2-.6-.3-.3h-.2s-.2 0-.2-.2l-.3-.2-.7-.6zm-14.5 114.4c.3 0 .4-.3.6-.6.2-.3.2-.5.2-1 0-.3.3-.3 0-.8 0-.2-.4-.6-.7-.5-.3 0-.3.6-.4.8 0 .3-.3.5-.3 1v.2c0 .2.2.7.5.6l-.3-.3c0 .2.2.4.3.4zm-53.7 5v-.2h-.3-.3l-.3.2c-.3 0-.5 0-.7.2l-.5.3c-.2 0-.4 0-.5.3v.7h-.3v.3c-.2.2-.4.6-.3 1l.2-.2c0 .2.2 0 .3 0h.3l.5-.2.5-.2.3-.2v-.2h.2l.3-.6.5-.5v-.5l.2-.4zm-2-19v.5c-.3 0-.4.3-.5.5 0 .3 0 .6-.2.8v.3c.2 0 .3 0 .3.3v.2s0 .2.2.3h.2c0 .2 0 .3.2.4l.2.6s.2.2.3 0l.2-.4v-.3l.2-.3v-1-.8l-.3-.5-.2-.3v-.4l-.2-.3v-.2l-.4-.8s0-.2-.2-.3h-.3c-.2 0 0 .2 0 .3 0 0 0 .3-.2.4h-.2zm26.6-11.2h-.3l-.7.6-.6.4s0 .2-.2.2h-.3c-.3 0-.5.2-.6.5l-.3.3s-.2 0-.2.2v.6c0 .2 0 .3.2.4 0 0 0 .2.2.2h.3l.5-.5h.5l.6-.4.4-.3.2-.2v-.5c0-.3.3-1 0-1zm-33.6 32.3v-.4l.3-.3.4-.3.5-.5v-.3l.2-.2c0-.2.2-.3.4-.4.2 0 .4-.2.5-.4l.5-.3.2-.4.5-.5.6-.5.7-.7.8-.7c.2-.3 0-.4-.2-.6 0-.2.2-.3 0-.4h-1.6l-.3.3h-.6c-.3.3-.8.3-1 .5-.3 0-.6.3-.8.5H113.4l-.6-.6c-.2-.3-.2-.6 0-1v-.4l.2-.6v-.3l-.2-.5-.2.3s-.2.2-.3 0l-.2.5v.4c-.4 0 0 .6 0 .7a.4.4 0 0 1 0 .4h-.3v.2c-.3.3-1 1-1.3.4 0-.3-.2-.6 0-1v-.7h-.4v-.2H108v-1.1l-.2-.2v-.2l-.3-.2v-.4c0-.2.2 0 .3 0l.2-.2h.2c.2 0 .3-.2.3-.3v-.5s0-.3.2-.4v-.2l.4-.5.4-.7.2-.5s.3-.2.3-.4 0-.4-.2-.3c0 0 0 .2-.2.3-.2.3-.3.5-.6.6h-.4c0 .2-.2.4-.3.5-.2.3-.5.5-1 .7l-.3.3h-.4l-.2.2H105.7c-.3.3-.5.4-1 .5l-.7.4c-.3 0-.3.5-.5.7l-.7.7c-.2 0-.4.7 0 .5.3-.3.6-.5 1-.6.2-.2.4 0 .3.4v.4l-.2.4-.2.3h-.2v.2l-.2.4c-.2 0 0 0-.2.2v.5l-.2.2-.2.3c0 .2-.2.3-.4.5-.2 0-.3.3-.4.5v1c0 .2 0 0 .2 0 .2-.2.4-.2.6 0h.4c0 .2.2.2.3.2.2 0 0 .4 0 .7v1.4l-.6.7v.2h-.2c0 .3 0 .4-.2.5l-.2.6c0 .3-.2.6-.3.8v.8l.2.2v.2h.5c.2 0 .2 0 .3-.2h1.1v-.2h.3c.2 0 .5 0 .7-.2.3 0 .5-.3.8-.4.3 0 .6 0 .8-.3.5-.2 1-.5 1.6-.6h1c0-.2.2-.2.4-.3l.3-.2h1.1c.4-.2.6-.4 1-.3l.6.2h1s.2-.2.2 0 0 0-.2 0l.2.3.2.3v.4c.2 0 .3.2.3.4V218.4l.2.3.4.4s-.2 0-.2-.2v-.4c.2-.2.3-.5.3-.7v-.4l.2-.3v-.3-.3-1l.3-.2zm-13.6-22.2s.2 0 .3-.2c.2-.3.2-.5.2-.7v-.6-.4-.4l.5-.7v-.9l.7-1.4c0-.2.3-.3.4-.7v-.6l-.4-.4-.5-.4c-.2-.2-.5-.2-.7-.2h-.8l-.5.3H99l-.2.2v1l-.3.2s0 .3-.2.4c0 .2-.3.5-.3.8v.4l-.2.4s0 .3.2.4l.4.2c.2 0 .3.3.4.5l.2.2V192.3l.2.6v.4s.2 0 .2.2zm20.7 20h-.2zm23.3-27zm24.6-62.7l-.2-.2zm-67.2 75.6v-.8l.8-1.2c0-.2.2-.3.3-.5v-.7l.2-.6v-.3-.5c-.2-.4-.8-.3-1 0 0 .2 0 .5-.2.6 0 .2-.3.3-.3.4 0 .2 0 .3-.3.4h-.5l-.2.3v.3c0 .2-.2.2-.3.3-.2.2-.2.3-.2.5v1.6c-.2.2-.2.4-.2.5 0 .3.2.4.3.5v.2h.3s.3 0 .4-.2v-.5l.2-.3zm73.7 8l.2.2-.2-.3zm2-95.7l.4-.4v-.3l-.2-.4v-.2H177l-.5.2h-.4c0-.2-.3-.2-.4-.3l-.3-.2h-.2l-.5.5c-.3.2-.4.5-.6.8 0 .2-.2.3-.3.3h-.3l-.6.6a.7.7 0 0 0 0 .3l-.3.5-.3.4-.4.5-.2.3-.3.2h-.2s0 .4-.2.5v.5l-.4.4-.7.5-.3.4-.3.3-.4.2h-.4l-.3.6-.2.2-.3.8v.5c.2.3 0 .4 0 .7-.3.2 0 .2 0 .5v.7c0 .3-.3.8 0 1h.4c.4 0 .8-.2 1.2-.5l.5-.7 1-.7 1-.7.3-.4.8-.8c.3-.3.6-.5.8-1l.4-.8.3-.6v-.3l.3-.3.2-.3.2-.3v-.5c-.2-.4 0-.8.2-1 .2-.4.5-.7.5-1l-.2-.6v-.3c0-.2 0-.5.3-.7zm-36 82.4h.4v.4l.3.3.2.3.3.4h.2v.2h.3l.2-.3h.5c.2 0 .3-.2.5-.4 0-.3.2-.3.3-.4l.3-.4.5-.6c0-.2.3-.3.4-.5l.3-.8.3-.4.4-.6c.2-.3.5-.6.6-1l.3-.7v-.8h.2v-.2l.2-.3.2-.4c0-.2.2-.4 0-.6 0-.2-.3-.2-.4-.4-.2-.2 0-.5-.2-.7h-.2l-.2-.2-.5-.2-.3-.2h-.3l-.4.3-.3.2-.4.2-.3.2c-.2 0-.5 0-.7.3l-.4.2-.5.2c-.2 0-.4.3-.6.5-.3 0-.4.2-.6.3l-.6.5-.2.2-.3.2-.3.2-.3.2-.5.2h-.3c-.3.3-.3.5-.3.7 0 .5.5 1 .5 1.5v.9l.2.4c0 .2 0 .4.2.4zm17-48l-.2-.3-.2-.4v-.7-.6s0-.2-.2-.3a.5.5 0 0 1 0-.3v-.4-.3c-.2-.4-.5-.6-.6-1 0-.2-.3-.5-.5-.7a.6.6 0 0 0-.4-.2h-.4l-.7.5h-.3l-.3.4-.2.5-.2.4v.3h.3l.2.2v.8l-.5.4h-1.6s-.6-.2-.6-.4l.3-.3v-.4c.2-.3 0-.4-.2-.6 0-.2-.4-.3-.6-.4h-.4l-.2-.2h-.6l-.3.2h-1.7c-.3 0-.4 0-.5.2v.3c-.3.2-.5 0-.7.2h-.7-.3s0 .3-.2.3l-.4.2h-.5l-.3.2-.3.2c-.4 0-.7.5-1 1l-.4.4c-.3.2-.4.4-.5.7l-.2.4v.3l-.4.5-.4.2v.3h-.2v.3l-.2.2-.3.3-.6.4-.6.5-.4.2-.2.2c-.2 0-.3 0-.4.2l-.2.3-.8 1v.3l.3.2s.3 0 .5.2h.5c.3 0 .5-.2.8-.3l1-.6.7-.3c.3 0 .7-.3 1-.4l.6-.2c.2 0 .3 0 .5-.2s.4-.3.7-.3c0 0 0 .2-.2.3v1.6c0 .2 0 .5.4.3 0 0 .2 0 .3-.2h2v-.2h.2l.4-.2h.4c.2 0 0 .3 0 .4l-.2.4v.3l.2.4.2.3v.3h.4l.5-.5c.2 0 .3-.3.5-.5 0 0 0-.3.2-.4l.2-.2v-.2l1-.4s.3-.4.6-.5h.4l.2-.2h.3l.4-.3h.7l.3-.3.3-.2.6-.4 1-.4v-.2h.3v-.2h.4v-.4l.3-.4.2-.3v-.2l.2-.3v-.2l.2-.3a.8.8 0 0 0 0-.3v-.4-.7h.2zm-25 28.6h.3c.4 0 .7-.6 1-1v-.5l.2-.7v-.6l-.4-.2-.5-.2-.2.2h-.5s0 .4-.2.5c0 0 0 .2-.3.3-.2 0-.2.4-.3.6 0 .3 0 .4.2.7l.4.2-.2-.2c0 .2.3.3.4.3zM123 199.8l.2.4s0 .3.2.4l.3.2h.3l.2.3.4.5c.3.3 1 .4 1.3.4h1.4l.4-.2h3.9c.2 0 .5 0 .7-.2l.7-.3h.6c.3 0 .6 0 1-.3l1.6-1H137.5l1.2-.3h.7l.2-.2h.2l.3-.2.6-.3s.2 0 .3-.2l-.2-.4-.2-.3s-.2 0-.2-.3v-.3l-.5-.5c-.2 0-.3-.2-.3-.3l-.2-.2c0-.2 0-.5-.2-.7l-.2-.5v-1.5V193c0-.3 0-.5.2-.7v-1.3l.2-.4v-2c0-.2 0-.4-.2-.5l-.3-.3h-.4l-.2-.3h-.4-.3c0-.2-.2-.5-.4-.4-.3.2-.2.5-.3.8 0 .2-.2.6-.4.7 0 0-.2.2-.3 0-.2 0-.2 0-.3-.2l-.4-.6v-.5-.3c.3 0 .4 0 .5-.3v-.4l.2-.3.2-.3.2-.3v-.5-.7c-.4-.2-.5.4-.7.3-.2 0 0-.2 0-.3v-.3c0-.2 0-.4-.2-.6v-.4l-.2-.3c0-.2-.2-.5-.5-.6 0 0-.3 0-.4-.4 0-.3 0-.5-.3-.7 0-.2-.2-.4 0-.7v-.3l-.3-.2c-.2 0-.5.4-.5.6 0 .2-.3.3-.4.5 0 .4 0 .6-.2 1v1l.2.3v.7l-.3 1-.2 1-.3 1v1.6l.2.3-.3.3c0 .3-.3.6-.4 1l-.3.6s-.2 0-.3.3l-.6.4c-.2 0-.5.2-.7 0-.2 0-.3-.3-.6-.3s-.2.3-.2.6l-.2.8c0 .4-.2.7 0 1V193.8l-.2.4c0 .3 0 .5-.2.7 0 .2-.3.4-.4.6 0 .3-.3.5-.5.7 0 0-.2 0-.3.2l-.2.2c-.2 0-.2.4-.4.5H125l-.4-.2H123c0 .2 0 0-.2 0H122.2l-.3.3-.2.3v1.4c0 .3-.2.6 0 .8V200.5c0 .2-.2.4 0 .6zm178.3 171l-.3.3-.4.2-.2.2h-.2l-.4.3s-.6.3-.4.5h-.2 1.5l.4-.2c.3 0 .5-.3.7-.5l.2-.3v-.4c0-.5-.5 0-.7 0zm61.3-49.7c-.2 0-.5.4-.6.5 0 0 0 .2-.2.3-.2 0-.3 0-.4.2 0 .2 0 .4-.3.5l-.2.3c-.2.2-.7.7-.6 1v.3h.5l.4-.3c.4-.2.7-.2 1-.5.2-.2 1.3-2 1-2zm-15.4 22c-.3-.2-1 .6-1 1h.3c.2.2.5 0 .7-.4l.2-.4-.2-.3zm15.7-18.5c-.2 0-.5.2-.5.4s.6.5.8.5h1l.3-.4c.3 0 .6 0 1-.2 0 0 0-.3.2-.4v-.2h-1.2c-.3.2-.5.4-1 .3h-.5zm5.2-.3l.2-.3.6-1c0-.2.4-.5.4-.8l-.6.5-.7.6-.2.4c0 .2-.2.3-.3.4 0 .2-.4.7-.2.8l.2.2c0-.3 0-.4.3-.5h.3zm-5 1.6v-.2s-.2 0 0 .2zm4.6-2.8c0-.2.2-.3.4-.5l.5-.4c.2 0 .4-.2.6-.5l.6-.6.5-.7.6-.8c.2-.2.3-.6 0-.5-.2 0-.4.4-.6.6l-.6.5-.4.4-.6.4c-.2 0-.3.3-.5.4l-.7.4c-.3.2-.8.6-.8 1 0 .2.4.3.6.3.4 0 .5-.4.7-.6zm-2.7 2.4l-.4.5h-.6l-.5.5c-.4.2-.8.5-1 .8l-.8.7v.4l.3-.2c.3-.4 1-.4 1.2-.6l.6-.4.5-.5 1-.8.5-1 .3-.6c0-.3-.4.5-.6.6zm-1.3 6.4l-.2.2-.4.2c-.2 0-.5.4-.7.7l-.4.7-.4.3c-.2.2-.3.7-.6.8 0-.2 0-.3.2-.4v-.5c-.3 0-.6.4-1 .6l-.4.5c0 .3-.3.4-.4.6 0 0 0 .3-.3.4l-.2.2v.3l-.2.2-.5.5-.4.4-.4.5c0 .3-.4.4-.5.7l-.3.4v.4s0 .2-.2.3c0 .3-.2.6-.4 1v.4l-.3.6.3-.2c.2 0 .3-.3.4-.4.4-.3.8-.6 1-1l.5-.5.2-.3v-.3c0-.5.6-.8 1-1 0-.2.2-.4.4-.5l.6-.6c0-.2.2-.2.3-.3v-.4c0-.3.2-.4.4-.6l.2-.4.2-.2.5-.4.6-.4c.2 0 .4-.3.6-.2l-.3.3-.2.2c-.2 0-.6.2-.6.4.2 0 .8-.4 1-.6.3-.2.3-.3.5-.6 0-.2.3-.4.4-.6.2-.3.4-.6.4-1l.2-.6.2-.6v-.3zm-8.3-56.8s.3-.2.2-.4l-.2.3zm-6.5 68.6c-.3 0-.6.3-.7.4 0 0 0 .2-.2.3v.3h.4c.2 0 .4-.3.6-.4l.3-.3c.2-.3 0-.6-.2-.6zm11.4-22l.5-.4.6-.6.4-1 .4-1s.3-.3.2-.4l-.5.3-.5.8-.3.3v.2c-.2 0-.2 0-.3.2l-.7 1s-.2 0-.2.3h.2c.2.3.3 0 .5 0zm4-1.4h1.4l.2.2h.6c0-.2.3-.2.4-.2h.4l.5-.2.6-.3.7-.4 1-.5c.4 0 .6-.2 1-.3.4-.2.7-.5 1-1l.2-.2.3-.4.4-.7c.2-.3.4-.5.5-1l.3-.8c0-.2.3-.3.4-.6 0-.4.3-.6.4-1l.4-.5.3-.7-.8.7-.4 1-.5.7-.6.7-.7.7-.8.6-.4.3H370l-.7-.2h-.4c-.4-.2-.8 0-1 .2-.3 0-.4 0-.5.2s-.4.2-.5.2h-.2-.3l-.3.3c0 .2-.3.3-.5.4-.2 0-.4 0-.5.3-.2 0-.5.5-.5.8v.5l.6.3zm-.8 2c0 .2.5.3.8.3h1c0 .4.6 0 .7-.2l1-.5s.2-.3 0-.5h-.3l-.7.3h-.6l-.6-.2c-.2 0-.8 0-1 .3zm6.7.2l-.3.2-.5.6s0 .3-.3.4l-.5.5c0 .2-1 1-.6 1v.3l1-.8c.4-.2.6-.5.8-.8 0-.2.3-.2.4-.4l.3-.6s.2-.5 0-.5zm-53-5.3l-.3.5c.2 0 .3-.2.3-.4zm9-231h-.4.3zm66.3 181v-1.6l-.2-.4-.4.3-.3.2h-.3c0 .3-.3.5-.5.6l-.7.8-.3.8v.6l-.8 1.5v.5l-.2.3.3.2c0 .6.5.6.8.6H391.4c.2 0 .2-.2.3-.4l.3-.4.2-1c0-.3.2-.7.4-1l.3-1.2v-.7zm7-63.8c0-.3-.4-.5-.5-.8 0-.3-.2-.6-.5-.7-.3 0-.6 0-.8.3l-.4.3-.3.3v.3l-.4.3-.2.3c0 .2-.2.3-.4.4l-.3.3-.3.3h-.5c-.5-.2-.2-.8-.4-1 0-.2 0-.3-.3-.4l.2-.6.3-.8c.2-.4.2-.7.2-1v-1.5l.2-.5v-1s0-.3.3-.3h.3l.3.2h.2l.3-.2c.3 0 .4-.5.4-.7v-1c0-.4 0-.6-.2-1 0 0 0-.2-.2-.3h-.3c-.2-.2-.2-.2-.4 0l-.4.4c-.2 0-.4.3-.5.5v.7c-.4 0 .2.5 0 .6 0 .2-.2 0-.3 0-.2 0-.3-.2-.5-.3-.4 0-.8-.4-1.2-.6-.2-.2-.3-.2-.6-.2-.2 0-.5-.2-.7 0-.2-.2-.2.3-.2.4v.8c0 .2-.4.4-.5.6 0 .2 0 .4-.2.6l-.4.6-.2.2h-.3c-.2 0-.3.2-.4.3-.4-.6-.8-1.2-1-1.8l-.7-1.7-.6-1c-.2-.4-.4-.8-.4-1.2v-.6l-.2-.8c0-.5.3-1 0-1.3l-.5-1a.5.5 0 0 1 0-.5c.2 0 .4 0 .6-.2v-.8l-.2-.2c0-.2 0-.4-.2-.7 0-.2 0-.3-.2-.5v-.7-.7c.5-1 1-1.7 1-2.5l.4-1.3v-.7l.2-.3v-.3c0-.2 0-.5.2-.7v-.6c0-.4-.2-.7-.3-1l-.7-1.6v-1.2c0-.5 0-1-.2-1.4 0-.3 0-.5-.3-.7l-.6-.7c0-.2-.5-.6-.8-.3s0 .8.2 1c0 .3.3.5.3.7l.2.5c0 .3 0 .7.3 1 .2 0 .3.2.3.4v.8s.2 1.3-.2 1.3l-.2-.4v-.6l-.3-.5c-.2-.2-.4-.4-.4-.6-.2-.5 0-1 0-1.4 0-.4-.4-.8-.7-1l-.7-.6c0-.2 0-.3-.2-.5s0-.4-.2-.5l-.5-.2c-.4 0-.7 0-1 .3l-.3.3h-.5c0-.4 0-.6-.2-.8-.2-.3-.4-.4-.6-.5l-.4-.4v-.4l-.5-.5-.6-.3c-.3 0-.4-.2-.6-.3l-.6-.2-.4-.4-.8-.7-.6-.7-1-1.3a5.3 5.3 0 0 0-.6-.3l-.2-.3v-.2s.3-.3.5-.3h.3s.2 0 .2.2h.3s.2 0 .3-.2h.4c0-.2.3-.2.3-.3v-.3l-.3-.5c0-.2-.3-.3-.4-.5v-.4-.8c.2-.2 0-.3 0-.4 0 0 0-.3.2-.4h.3v-.4l.2-.5v-.2s0-.2.2-.3c0 0 .2 0 .3-.2.2 0 .4 0 .5-.2h2.1l.2.2h.7l.2.2h.6l.4.2.4.2h.3v.2c.3 0 .5 0 .7.2.2 0 .6.2.5.5v.3l.2.4v.3c.2 0 .3 0 .5.2l.4.3.4.6.3.5c.2 0 .2.2.2.3V165.6s0 .3.2.5l.4.4c0-.3.3-.4.5-.2.2 0 .3.4.4.7l.4.4c.4.2.7 0 1 0 .2 0 .3.2.5 0H390.8l.3-.4h1.1c.3-.3.5-.3.8-.3H394l.2-.2c.2-.2.2-.5.2-.7v-.8c0-.3 0-.6-.3-.8v-.3l-.3-.5-.3-.7c-.2-.3-.5-.7-.4-1l.2.2.4.3v-.5l-.3-.5a8.7 8.7 0 0 1-.5-.8v-.4c-.2 0-.2-.2-.3-.4 0-.3-.3-.5-.4-.8v-.3-.3l-.3-.3-.2-.3v-.4l-.5-.7-.3-.4-.3-.4c0 .2 0 .5.2.7 0 .2.3.4.4.5 0 0 .4.6.2.6l-.3-.3-.2-.2v.7l.3.3c.2.2 0 .3 0 .5l.3.3v1.1c.2.2-.4 0-.2.2.2 0 .2.2.2.4V162c-.3 0-.5-.5-.6-.6h-.4-.8a4.2 4.2 0 0 1-.4-.2h-.4l-.3-.3-.3-.4c-.2-.2-.4-.3-.7-.3-.3 0-.5 0-.7-.3a2 2 0 0 1-.4-.7v-.3h-.2v-.3l-.3-.2h-.4l-.4-.8v-1.4-1.3c-.2-.5-.5-.8-.5-1.2v-1-.7l-.4-.6c0-.2 0-.3-.3-.5s-.3-.4-.4-.6l-.5-.6-.6-.6a5.4 5.4 0 0 1-.5-1c0-.2 0-.4-.3-.5h.3l.4.2c.2 0 .2 0 .2.2s0 .3.2.5h.3c0 .2.2.2.3.4 0 .3.2.5.4.7.3.2.2-.2 0-.3l-.2-.8v-.4l-.2-.3v-.4c.2 0 .3 0 .3-.3v-.7l-.2-.2c0-.3-.2-.5-.3-.8 0-.3 0-.7.2-.7h.3l.5-.2h.7l.4-.2.3-.2c.2 0 .3-.3.5 0 .2 0 .2.4.3.6l.4.5.2.5.2.3v.4l.3.4c.2.3.4.3.4 0v-.3l-.2-.4c.4.2.5.7.6 1 0 .4.3.7.5 1l.3.2v.4c.2 0 .2.4.2.6 0 .3.3.5.4.8l.7 1c0 .4.3 1 .6 1.3v-.3l-.2-.4c0-.3-.2-.6-.4-1l-.4-.5-.2-.4c-.2-.3-.4-.6-.4-1l-.2-1c0-.3 0-.6-.2-1 0-.2-.2-.4 0-.7l-.3-1s0-.3-.2-.5l-.2-1-.5-1.5-.6-1.5c-.2-.5-.5-1-1-1.5l-.5-.7c-.3-.4-.5-.8-.8-1-.5-.7-1-1.3-1.7-1.8l-.2-.5-1-2-2-4-3-4-1-1.4c-.3-.7-.8-1.3-1.3-2l-1.2-1.5-.7-1c-1-1-1.6-2-2.5-3l-1.8-2-1-1c-.6-.7-1.2-1.4-2-2l-.6-.7c-.2 0-.3-.2-.4-.3l-.4-.3c-.2 0-.3-.3-.4-.4l-.4-.4-.7-.6-1.2-1c-.2 0-.3-.3-.5-.5l-.3-.3-.7-.6-.3-.3c-.2 0-.3-.2-.5-.3l-.8-.7-.3-.4-1.6-1.4-1.4-1.2-.5-.3-.4-.3-.6-.5-1-1-.7-.3-.5-.5h-.3l-.3-.4-.4-.3L348 97c0-.2 0-.3-.3-.4l-1.2-1.5-2-1.7-2-1.5c-.5-.4-1-1-1.6-1.3l-3.2-2-1-.7-1.4-.8c-1.3-1-2.6-1.6-4-2.5a16 16 0 0 0-1.6-1c-.4 0-.7-.4-1-.6l-1.4-.7-.5-.2h-.5c0-.2-.3-.2-.4-.3h-.2l-.7-.5-.7-.5-.6-.3-1.3-.7-.7-.3-.3-.2-.3-.2-.5-.4-.5-.4-.8-.5c-.2 0-.3-.3-.6-.4l-.6-.3-.6-.4-1-.4-.6-.5-.4-.2-.3-.2h-.3l-.4-.3s-.3 0-.4-.2h-.2l-.5-.2-.2-.2s0-.2-.2-.2a3.6 3.6 0 0 0-.5-1c-.2-.5-.7-.8-1.2-1-.4-.5-1-.7-1.6-1-.3 0-.5 0-.7-.2-.4 0-.7-.3-1-.3a7 7 0 0 1-2-.6l-2.5-.6-2-.7c-.5-.2-1-.4-1.7-.5h-.6l-1-.4c-.2 0-.4 0-.4.2 0 .3.3.6.5.7l-.2-.3.5.4.3.2c.4.2.8.4 1.2.4h.5l.6.2s.2 0 .3.2l.5.3c.3.3.6.6 1 .7l1 .4c0 .2.2.2.3.2h.3l.2.2c.2 0 .3 0 .4.2 0 .2.3.2.5.3.2 0 .6.3.7.5 0 0 0 .3.3.4.2 0 .4-.2.5 0 .3 0 .4.5.5.7v.2c0-.2 0-.4-.2-.5h-.4l-.6-.2h-.5l-.4-.5c-.4-.4-1-.6-1.4-.8l-1-.5h-.4c-.3-.6-1-.8-1.4-1-.2 0-.4 0-.6-.2h-.5l-1-.5-1-.3h-.2l-.2-.2-.3-.2h-1-.5l-.3-.2h-1.1l-.2-.2H293c-.2-.2-.3-.3-.5-.3h-.2l-.2-.2s0 .4.2.4a.4.4 0 0 0-.2 0l.3.2.4.3.4.2.4.2.7.4c.3 0 .4.2.6.3l.4.2c.3 0 .4.2.6.4l.3.4.3.3.3.3H295.4l-.2-.2-.3-.3h-.3l-.2-.2h-.2l-.2-.3a1 1 0 0 0-.4 0h-.3c0-.2-.2-.2-.4-.2h-.2a.6.6 0 0 0-.2 0h-1-1.8c0 .2.4.2.6.3 0 0 .2 0 .3.2h2l.4.2h-.2-2.4s-.2.2 0 .3l.2.3h-.5c0 .3.6.3.5.7 0 .2-.7 0-1 0H288.8l-.3-.2-.2.2h-1.7V72h-.5v-.2h-.7l-.6.3c0 .2 0 .3-.2.4v.6l.3.4.3.4c.2 0 .3.3.4.5v.5c-.2.5-.2.7 0 1 .3.3 1 .5.5.8l-.8.3h-.5l-.6.2h-.4a.4.4 0 0 0-.2.5v.4c.2.3 0 .7 0 1v.5s-.2.3 0 .4c.2.3.3.3.5.2h.8l.2.2c.2 0 .3 0 .5.2s.5 0 .7 0l.5.2h.6c.2 0 .4 0 .7.2h.5l.2.2h1.8c.2 0 .4 0 .6.2.2 0 .5.3.5.4h-.3c-.2.2-.4 0-.5 0-.2 0-.3.2 0 .4h.4l.7.2h.6l.5.2.6.2h.6l.4.3c.3.2.7 0 1 .2.2 0 .4 0 .6.2h.7l1 .5c.3 0 .6 0 .8.2.3.2 0 .4-.3.6 0 0-.3 0-.4.2v1c.2 0 .2.3.2.4 0 0 .4 0 .5.3l.3.3c0 .2-.2.5-.4.6 0 0-.4 0-.4.3l.2.3c0 .3.3.5.6.7l.4.5v.3l.2.2s.2.2 0 .3h-.4l.3.7.3.4s.3 0 .4.2l.6.8.6.8 1.5 1.7c.3.2.6.6.8 1 0 .3.2.6.4 1v.8l-.2.8v1.2l.2.2.3.4v.6s0 .3.2.4c0 .3.6.6 1 .7l.6.5 1 .6.4.5-.5.7c-.2 0-.3.3-.4.4v.4l-.2.5v.7c0 .8 1 1 1.5 1.5l.7.7 1 .5c.3.2.3.6.3 1 0 .2 0 .4.3.4h1.3l.2.2c.4 0 .7.3 1 .5l.5.5.3.4.7.6s.2 0 .3.2v.3l.2.6.2.5v.4l.3.3.3.5v.5l-.6.8c0 .4.5.6.6 1 .2.3.3.7 0 1 0 .4-.4.6-.8.8h-.2a1.2 1.2 0 0 0-.5-.3h-.4l-.4-.3-.3-.2H312.3l-.6-.2h-2.1-.4c-.4 0-1-.2-1.2-.4l-.8-.7c-.2 0-.4 0-.6-.2-.3 0-.5.2-.7 0-.3 0-.4-.2-.5-.4l-.4-.3c-.2-.2-.3-.7-.6-1l-.6-.3-1-.5a5.8 5.8 0 0 1-.8-.7l-.5-.6-.3-.5-.5-.7-.2-.6-.2-.4c0-.2 0-.3-.2-.4a.7.7 0 0 0-.4-.2h-.6l-.5-.3h-1c-.4 0-.7-.3-1-.6-.2-.2-.3-.5-.7-.5-.2 0-.4 0-.6-.2h-2c-.2 0-.6.2-.6.5 0 .2 0 .4.2.5l.6.7 1 1c.2 0 .4.2.6.4.2 0 .3.3.4.5 0 .2 0 .3.2.4l.2.3.4.5c.3.3.4.5.4 1v.3c0 .2-.2.3-.3.4l-.2.4.3.4s.2 0 .3.2l.4.4c.2.2.8.8.7 1-.3.3-.8 0-1-.3l-.2-.3h-.2a2 2 0 0 0-.4-.3l-.7-.3c-.2 0-.5 0-.6-.3-.3-.3-.2-.6 0-1v-1c.2-.2.3-.5.2-.7 0-.2-.3-.2-.5-.3l-1.2-.4-.8-.2H290c-.5 0-.5.3-.5.6v.6c0 .3 0 .4-.2.4h-.3v.8l-.3.4v1.9c0 .4.2 1 .4 1.2l.5.5.5.3c.3.2.4.5.3 1-.5-.4-1-.5-1.6-.7h-.4l-.5-.2c-.3 0-.8-.3-.7.3.2 0 .3.4.5.6l.4.7v.3l.5.6v.4l.2.2v1.1c-.2 0-.3.2-.3.3l-.3.4c0 .3-.3.4-.7.4l-1 .3h-.5l-.4.2H284h-.5c0 .2 0 .7.3.7l-.2.2c-.2 0 .2.4.3.5l.4.4 1.3.7.3.3.2.2h.3l.3.2h1.2c.3 0 .6 0 1 .3h.7l.3.2h.4c.2 0 .4 0 .7.2h1.8l.4.2h.6l.4.2 1 .3.7.4c.2.2 0 .3.2.5s0 0 .3 0c0 .2.2.2.4.2h3.3l.7-.2h.5l1.5.3h2.7l1.3-.3h2.4l.6-.3.4-.3h.2c.3.3.7.5 1 .6.4 0 .7.4 1 .5.4.2.7.3 1 .6l.6.7.4.3.4.4 1 .7.2.4.4.3.6.7c.2.3.5.5.8.4.3 0 1-.2.7.3l-.5 1v.4l-.5.4c-.4.3-.3.6-.2 1l.4.5h.2v.4c0 .2.3.5.5.7.3.3.6.2 1 .2h1.3l.7-.2 1-.2 1.5-.3c.2 0 .4 0 .6-.2.4 0 .6 0 .8-.2h1.1c.4 0 .6-.3 1-.5l.8-.2h1.1l.2-.2H330.4l1-.3h1.8l.2-.2h.3c.4 0 .8-.2 1 .2l.7.8h.2l.3.3.3.3.4.3h.8l.2.2h.4c.4 0 .8-.3.8-.6v-.6l.2-.4c.8 0 .7-.6.5-1.2 0-.3-.3-.5-.2-.8 0-.2.2-.5.4-.6h.4a2.3 2.3 0 0 0 .6-.3l.5.2h.5c.2 0 .3.2.5.3l.7.6.4.2.6.3.4.2s.2 0 .3.2l.5.5.4.8.3.3c0 .2.3.3.4.3l.2.2v.2h.2l.8.6c.3 0 .4.3.5.6 0 .2.4.3.6.5l.5.5.8.3c.3.2.7 0 1 .3l.7.5.2.3v.3c.3.4.5 0 .7 0 0 0 0 .3.2.4 0 0 .2 0 .3.2.4 0 .7.4 1 .6l.4.4c.3.2.6.2.7.4l.3.6.6.6.5.6.3.3.2.3.3.2.4.3c0 .2.2.3.4.4l.3.2h-.5l.4.3v.2h.2l.6.6c.2 0 .4.2.5.4l.5.4.3.4.3.4c0 .2 0 .5.2.8l.2.7.4.8s.5.4.3.5h-.4c-.2 0-.2-.3-.4-.3 0 0-.2 0-.3.2l-.2.3h-.2a3.5 3.5 0 0 0-.3-.5s-.2 0-.3-.2c-.2 0-.2-.2-.3-.3l-.4-.3-.2-.4-.6-.3c-.2 0-.2.2-.2.3 0 .2 0 .4.2.6l.3.7.3.2.3.4.5 1c.2 0 .4.2.5.4l.8.6 1.4 1 .4.3h.2v.3l.3.2.2.4c0 .2.2.5.5.7.2.2.6 0 .8.3l.3.4s0 .3.3.4h.7c.3-.2.5 0 .6.2v2.1l.8 1.3 1 .8v.3c-.2 0-.3 0-.5.2h-2a3.2 3.2 0 0 1-.6-.2h-1.2l-.6-.2H359c-.2 0-.4 0-.7.2-.2 0-.3 0-.4.3 0 .5 0 1 .3 1.5l.6 1.2.4.8v.8l.2.4v.6c0 .4.3.8.5 1.3l.6 1v.7c0 .2.2.3.3.4l.3 1.2c0 .2.2.3.3.4l.4.5.6 1 .5 1.2c.2 0 .3.3.2.5v.2c-.3.3-.5 0-.6 0 0-.3-.3-.5-.4-.7v-.5l-.3-.4c-.2-.2-.2-.4-.2-.6l-.3-.4-.5-.4-.5-.2v.3l.2.4.3.5 1 1c.3.2.3.6.4 1l.2.4v1.2c0 .2 0 .2-.3.2-.2 0-.4 0-.6-.2l-.3-.3c-.7-.4-1.5-1-1.5-2 0-.4 0-.8-.2-1.3 0-.2-.2-.4-.4-.5l-.3-.3v-.3l-.4-.7c0-.3-.2-.4-.3-.6l-.3-.5-.2-.3v-.3a1.3 1.3 0 0 1-.2-.6v-.4c-.2 0-.2-.3-.4-.4h-.2l-.2-.3-.5-1.2v-.5l-.4-.3c-.4-.3-.5-.6-.6-1l-.6-.8c-.3-.7-.5-1.4-1.2-1.7l-.6-.3-.4-.2c-.4 0-1 .3-1 .6v.7l-.2.5c0 .2 0 .4-.2.6l-.3.3c-.4.3-.4.7-.8 1l-.3.4-.3.6c0 .4-.5.8-.8 1l-1 .8-.4.3c0 .2-.2.4-.4.5-.2 0-.4.2-.6.4l-.5.4c-.2.2-.7.3-.8.7v.6l-.2.4c-.3 0-.7.4-1 .6l-.5.8c0 .2 0 .3-.2.5l-.2.3v.7l.3.6.2.6v1.2c0 .2 0 .7-.4.7 0 .5-.6.8-1 1 0 .2-.3.3-.2.6 0 .2.2.3.3.4l1 .6.7.4c.2 0 .3.3.5.4.2 0 .5 0 .4.4h-.2v.4c-.2.4 0 .6.3 1 .2.2.3.6.4 1 .2.3 0 .7 0 1l.2.4v.3c0 .4.2.6.5.8 0 .2.3.3.5.4h.6c.2 0 .3 0 .5.3v.4c.3.6 1 .7 1 1.2l.4 1.4c0 .4 0 .8.3 1.2l.2.5c0 .2.2.3.3.5l.5 1.2v1.2c0 .4.3.7.6 1 .3.3.4.5.3 1l-.3.3h-.5v1c0 .5.2 1 0 1.4v.4l-.8.6c-.6.5-1 1.2-1.8 1.5-.6.3-2 .3-2.3-.3 0 .2-.6 0-1 0-.2 0-.5 0-.7.3l-.7.4h-1l-.7-.4h-.8-.4v.3c-.7.4-1 1-1.2 1.7l-1 1.8h-.2c-.4.3-.8.6-1.2.7h-1c-.3 0-.3 0-.5-.3l-.7-.6-.4-.6-.5-.8c-.2-.3-.4-.5-.5-1l-.3-.7-.3-.6c-.3-.6-.3-1-.5-1.8v-1l-.2-.2v-.7l.3-.6c.2-.2 0-.4.2-.6v-.3c0-.6 0-1-.5-1.4-.2 0-.3-.2-.3-.4v-.4l-.2-.4v-.8c0-.3 0-.5.2-.8l.5-1.5c0-.5 0-1 .4-1.6l.3-.8c0-.2.2-.5 0-.7 0-.2-.5-.2-.6-.2l-.5-.5c0-.3.3-.6 0-1l-.5-.3-1-1c-.3-.5-.7-.6-1-.8h-.8l-1-.2c-.5 0-1 0-1.7.2H324c-.6 0-1.2-.4-1.8-.7l-1.4-1-.7-1.4c0-.3-.2-.5-.4-.7l-.5-.4-1-.8-.6-.5c-.2-.2-.2-.5-.5-.7l-.7-.3-1.3-1c-.5-.2-.6-.7-1-1-1-.5-1.6-1.2-2.2-2-.3-.3-.6-.6-.7-1v-.7c-.2-.2 0-.5 0-.8v-1.2l-.5-.4-1-1.3c-.4-.2-.6-.3-.8-.6 0-.2-.3-.4-.4-.5-.5-.5-1-1-1.3-1.5-.4-.4-.5-1-.8-1.4l-1-.8c-.4-.3-.8.2-1 .5l-1.5 1c-.5 0-.8.6-1.2 1-.2.2-.2.3-.5.3l-.6-.3c-.4-.4-.4-1.3-.2-1.8l.2-.5v-.5l.4-.8.6-1.6v-.3l.2-.2.3-.6c0-.6 0-1-.6-1.2-.4-.3-.8-.3-1.4-.3l-.8-.2h-3.8c-.3-.2-.5-.3-.8-.3h-.7l-1.2.3c-.3.2-.7.7-1 .6v-.2h-1l-.3.3h-.4c-.2 0-.5.3-.7 0-.2-.2-.2-.5-.2-.7v-.9c0-.5.3-.8.3-1 0-.8-.3-1.4-.4-2h-.7l-.8.3-1.2.3-.7.4c-.2 0-.5 0-.7.2-.5 0-1 .3-1.3.3l-1.7-.2c-.3 0-.6 0-1 .3l-.7.7-1 .7c-.4.3-.5.8-.8 1.2l-.4.6v.8c0 .5 0 1 .2 1.4l.4 1.5v1s.3.5.2.7c-.2.6-1 .4-1.4 0-.3 0-.4-.4-.6-.6l-.3-.3-.2-.4c0-.3-.5-.8-.8-.8l-1 .3h-1c-.2 0-.4 0-.6.2-.4.2-.4.4-.6.6l-.4.5-.3.7c0 .3-.3.4-.5.7l-.3.6-.5 1v1.4c0 .3 0 .7-.2 1h-.2c0 .2 0 0-.2 0s-.4 0-.5.3v1.8c0 .4-.4 1-1 1-.3 0-.5 0-.7.3l-.3.6c0 .5.3 1 .6 1.5 0 .5.4 1 .3 1.6 0 .2-.3.4-.2.7.2.2.3 0 .4.3v.3l.7.7c.3.4.3.7.7 1l.7.3c.3 0 .6.3.8.5l.8.6h.7c.6 0 1 .5 1.6.5h2c.5 0 1-.2 1.5 0 .5 0 1 .4 1.5.6.3 0 .6.2 1 .4l.3.4c.4.3 1 .7 1.2 1l.5.5c.3.2.4.4.5.7.2.5.7.7 1 1l1.6 1.2c.6.2 1 .7 1.4 1.2l1.5 1.4 2.2 2.2c.3.4.5.8.5 1.3v.8c.2.4.3.4 0 .8s-.2.6 0 1c.2 0 .4.2.5.5.2.6-.2 1-.8 1 0-.2-.2-.3-.4-.3h-.4c-.4 0-.6 0-.8.2-.5 0-1 0-1.2.6v.6c.2 0 .4.3.5.5.2.2.3.4.2.8 0 .2-.3.4-.4.6v1.6c0 .4 0 1-.4 1a2.2 2.2 0 0 0-.5 0H284c-.5 0-1-.2-1.2-.6V206.6l-.5-.7-.3-.7c0-.3-.4-.5-.4-.8 0-.3 0-.5-.2-.8l-.2-.6c0-.5 0-1 .3-1.6.2-.2.2-.3.2-.6v-.7c-.4-.3-.8-.4-1.2-.5l-.7-.4-.5-.3-1.2-.6-1.4-.3-.8-.2h-1v-.2h-1c-.2-.2-.4 0-.5 0-.7 0-1 .6-1.4 1-.4 0-.5.2-.8 0-.3-.2-.6-.2-1-.2l-1 .2c-.5 0-.7.2-1 .4h-1l-.4.2-.5-.2H264.3l-.6.2c-.8.2-2 0-2.6.8l-.4 1h-.2l-.2.3v1.1c.2.3.2.4 0 .6-.3.2-.6.3-.6.7 0 .3 0 .4.2.7s.3.3 0 .5v1.5c0 .3 0 .5.2.8v.8l.5.7c0 .2.2.5 0 .7v.4l.2.2v.3c.2 0 .2.3.2.5v1.1l-.2.4.2.2v.4l.3.8v6c0 .2.5.4.7.6.3.3.4 1 .6 1.3 0 .2.2.3.3.5 0 .3 0 .4.3.6l.5.4v1.7c.3.3.3.3.7.3H265.8c.4 0 .7.4 1 .5.4 0 .5 0 .7.3l.2.2h.3c.2.2.2.2.4 0h.8l1.4-.4 1.2-.3c.5 0 1-.5 1.5-.7h.8c.5-.3.8-.4 1-.8l1-.5.8-.4 1.7-1.2.6-.2c.4 0 .6-.4.8-.6l.7-1c.3-.5 1-1 1.2-1.3l.8-1c.2-.5.5-.8.7-1l.7-.8c0 .4 0 1-.3 1.4 0 .4-.6.8-.6 1.3v.5c-.3.2-.4.3-.4.5v.3c.2 0 .2.3 0 .4v.7c0 .6.4.8 0 1.3 0 .3-.2.5-.3.8 0 .2 0 .3-.2.4v.5c.2.6 0 1-.3 1.6l-1 1.5-.8.8-.3.2v.3c-.3.5-.4.6-.2 1l.2.4c0 .2.2.2.3.4v.6c.3.5 1 1 .6 1.5 0 .2-.3.3-.3.6v1c0 .2 0 .5.2.7 0 .3.4.2.6.4.2.2 0 .6 0 .8v.8c0 .3.4.3.6.4.3.3.3.5.4.8l.2.3v.3c0 .4.2.6.4.8.4.6 1 1 1 1.7v1c0 .4.2.3.5.6.5.4.6 1 .5 1.6 0 .3-.2.5-.3.8v1c0 .4-.3 1 0 1.5.3.2.8.5 1 .8l.7.6.2.2h.3c1 .4 2.3 1 2.8 2l.6.8.3 1.2c0 .3.2.4.5.5.3.3.7.4 1 .5.4 0 .6 0 .8.2.3 0 .6 0 1 .2s.7.2 1 .2c.5 0 .5.3.8.4l.8.5.5.8c.5.6 1.4.6 1.6 1.3 0 .4 0 .6.3.7.2.2.4 0 .7.2l.6.2s.2 0 .3-.2h1.5l.6-.3 1-1c0-.5 0-1 .3-1.3v-1l-.5-1-.3-.7c-.2-.3-.2-.2-.2-.5l.2-.8c0-.3.2-.5.3-.8.2-.5.4-1 1-1.2h.5l.4-.2h.3c.3 0 .3 0 .5.3l.5.4.7.7v.7l.7 3.2.2 1.6c.2.5 0 1 0 1.7v.7c-.2.2 0 .5 0 .8.2.3.2.3 0 .6 0 .3 0 .6-.2.8-.5.8-1.2 1.4-2 2-.2.2-.6.6-.5 1 .2.6.3 1 .7 1.3l.5.6.5.6c-.2.4-.6.6-.5 1 0 .6.5 1 .7 1.3.3.3.5.6.6 1l.2.8v.7c0 .2 0 .3.2.5 0 .3.3.5.2.8v1.6l.5.7.2.3v.3l1 2h-.2l-.2.2c-.2 0-.4 0-.6.2l-.6.2h-.6c-.3.2-.4.6-.5 1l-.2.5v.7c0 .2 0 .4-.2.6 0 .2 0 0-.2.3v.6l-.3.6-.5 1.2-.6 1.2-.4.5-.2.3-.2.4-.5.7v.3h-3c-.4 0-.5 0-.8.2h-.7l-.8.3c-.3.4-.2 1-.2 1.6v.6l.2.3.6.7c0 .2.4.4.5.6v.8l.3.5v.6c0 .6 0 1-.3 1.3l-.6.3-.6.5c-.6.3-1 .6-1.3 1l-.8 1c-.3.5-.5 1-.3 1.4 0 0 0 .2.2.3l.2.7c0 .3.2.4.5.5l.6.3s.2.2.5.2h.4c.2.2.5 0 .8.2l.7.3.7.2.6.2h.2l.4.2c.4.2.6 0 1-.2 0-.2.2-.3.6-.4h1c.3 0 .6-.4 1-.5l.8-.3h.6l.3-.2h1c.5-.2 1 0 1.4 0l1.3-.2h2.7c.4 0 .7.3 1 .4h.6v.2c-.4.4-.6.6-.7 1 0 .5 0 .8-.2 1l-.4.5v1.6l-.3.6-.3.7v.6c0 .2.2.3.3.5V310l-.5 1c0 .3-.2.5-.4.6 0 .2-.3.2-.5.2-.4 0-.5.6-.8.7h-.4l-.3.2h-1.8l-.4.3c-.3 0-.7.4-.8.7l-.4 1c0 .2 0 .3-.2.4l-.2.5v.5l-.3.6-.4.3-.2.3s-.3.4-.2.5c0 .2.3.2.5.2h2.3l1-.3.7-.4.8-.5c.2 0 .3-.2.5-.3l.4-.2.6-.2c.3 0 .5 0 .8-.2.4 0 .8-.2 1.2 0h.5l.5-.4.3-.3.2-.4c.2-.4.5-.6.6-1v.8l-.2 1c-.2 0-.4.3-.4.6 0 .2 0 .4-.2.6v.6c0 .3-.3.6-.3 1l-.2.4v1l-.2.2v.5l-.2.3v.4l-.2.4v.3c-.2 0-.3.3 0 .4l.6.2h.8c.3 0 .5 0 .7.2.2 0 .4.2.6 0h.2l.3.2c.2 0 .4 0 .6.2h2.1c.2.2.3.2.5.2l.6.2c.3 0 .4 0 .6.2h.4v.4l.2.2.2.5c.2.2.5.4.6.7l.2.4c0 .2.2.4 0 .6 0 .2 0 .5-.2.7v.4l-.4.4v.5c0 .4-.3 1-.5 1.2 0 .3-.3.6-.4 1 0 0-.2.2 0 .4s.3 0 .5 0l.3.2h.3c.2 0 .4 0 .4.2v.7l.3.3v.8c0 .4-.4.6-.6 1-.2 0-.3.4-.3.7h-.2c-.3 0-.4.3-.5.5l-.2.4v.4c0 .3-.3.4-.2.7l.2.4v.9h-.2l-.4.6-.3.6v.4h.2c0 .2.4.3.7 0 .2 0 .4-.2.5-.4l.2-.3v-.5l.4-.6v-1c0-.3.3-.5.5-.7v.2h1l.3-.2c.6 0 1-1 1.3-1.5 0-.2 0-.3.3-.5v-.5c0-.2.2-.2.3-.4 0 0 .4-.6.3-.7v-.4l.4-.5.4-.2c.2-.2.3-.4.6-.5h.4v1c0 .2 0 0 .3 0l.3.2h1c0 .4 0 .4.3.3l.2-.4v-.4l.3-.7c0-.4 0-.3.4-.3l.5-.2c.4-.3.5-.8.8-1 0-.3.3-.5.5-.6l.4-.2s.2 0 .3-.2l.3-.3.6-.6.7-1 .3-.4v-.3l.2-.2v-.5c0-.3-.2-.3-.3-.5l-.4-1c-.2-.3 0-.6.4-.7.3 0 .7 0 1-.3 0-.2.2-.4.3-.5v-.6l.5-1s0-.2.3-.3c0 0 .3 0 .5-.2l.4-.2h.4c.3.2.7 0 1 0l.8-.6v-.7c.3-.3.4.2.4.4s0 .2.4.3h.5c.3-.2 1-.2 1.2 0h.3c.2-.2.4-.2.6 0h.4l.6.4h.5l.4.4c.2.2.3.2.3.6v.7l-.3.5-.3.4-.5 1-.7 1-.3.4-.2.2v.4s0 .4-.3.5l-.4.2c-.2 0-.2.2-.4.3l-.7.3c-.3.2-.4.5-.6.8l-.2.4-.3.2v.5s0 .2-.2.3c0 .2-.5.7 0 .7h.3l.4-.3.5-.3.2-.4.3-.2.8-.5.8-.5c.4 0 .7-.4 1-.6l1-.6.5-.4c.3 0 .5-.3.8-.5l.7-.6c.2-.2.4-.5.6-.5h.4c0-.2.3-.4.5-.4 0 .3-.2.5-.3.7 0 0-.3.3-.3.5l1-.6c.2-.4.5-.8 1-1 .2-.4.5-.6.6-1l.2-.5.4-.5c.2-.3.6-.6 1-.8.3-.2.6-.5.8-1l.7-.7c.5-.3.8-.7 1-1l.5-.7.2-.2h.2c0-.2.2-.4.4-.5l.8-.4c.3 0 .5-.2.7-.4l1-.5.3-.2.4-.2c.2 0 .5 0 .7-.2h.3l.7-.7h.5c.2-.2.3-.2.6-.2.2 0 .3 0 .4.2l.6.2.6.2c.2.2.3.4.7.2 0 0 0-.2.3-.3.2 0 .3-.2.4-.4l.3-.3.2-.4c0-.2.2-.3.3-.3.2 0 .3-.3.5-.5l.4-.4.3-.4.6-1c0-.2.3-.5.5-.8 0-.3.5-.5.7-1l.4-.8c0-.3.3-.6.5-1 .2-.2.2-.6.4-1l.5-1c.3-.4.5-1 .8-1.7l.6-.8c0-.3 0-.7.3-1l.6-1 .2-.6.5-.5s.5-.3.5-.6l.6-1.4c0-.2.2-.3.3-.4h.2l.2-.2c.4-.2.5-.6.8-1 .4-.3 1-.6 1.2-1 0-.4.3-.7.5-1 0-.3.5 0 1-.2h.4l.5-.2v-.4l.5-.5 1-.6.2-.3v-.3l.5-.8c.2-.4.4-.5.6-.7l.5-.6.3-.4c0-.2 0-.4.2-.6l.3-.5.4-.6.3-.5.3-.3v-.3l.3-.6v-.6l.2-.6v-.7l.2-1.3v-.6l.2-.6v-.5c.2-.3 0-.6 0-.8 0-.4-.2-.6-.3-1v-2-.5-.6c-.2-.4-.8-1-1.2-1.3l-.7-.6c-.2 0-.3-.3-.6-.3-.2 0-.3 0-.5.2l-.5.3h-.4l-.2-.3c-.4-.2-.6.3-.7.6-.3.2-.4.5-.3.8V275.6c0 .3-.3.4-.4.7 0 .2 0 .6-.3.7h-.3v.3h-.3l-.2.3c-.2 0-.3.3-.4.4-.2.3 0 .8 0 1.2l-.2.6V282.4c-.2.3-.6.2-.8.4-.2 0-.3.2-.5.4l-.5.6-.6 1.2-.2.7v.5l-.4 1v.5l-.3.4-.4.4-.4.4s-.2 0-.3.2c-.2 0-.3 0-.4.2l-.5.2h-.5c-.3.2-.7.6-1 .6 0-.2 0-.5.2-.7v-.7-.7h-.2c0-.2 0-.5-.2-.5s-.4.4-.5.5l-.3.6-.3.2c0 .3-.4.5-.6.7l-.4.5c0 .2 0 .4-.2.6 0 .4-.3.7-.4 1l-.6 1c-.2.3-.4.6-.4 1v.4c-.2 0-.3.3-.5.4l-.6.3c-.2.2-.5.3-.5.5 0 0 0 .3-.2.4l-.4.3-.4.3-.6.5-.6.7-.5.6-.8.6s-.2 0-.3.3l-.3.2-.3.3-.5.2-.7.4c-.4.3-1 .5-1.5.6l-.6.3-.5.2-.5.2-.5.2h-.5l-.5-.2c-.3-.2-.6-.4-.7-.7a4.8 4.8 0 0 1-.2-1.3v-1l-.2-.2v-.3l-.2-.5v-.2-.5l.4-.4.2-.3h.2v-.3l.6-1 .8-1.4.3-.6.3-.4.4-.4.4-.6v-.7l.2-.6v-.2h-.3c-.3 0-.6.3-.7.4l-.2.2h-.4l-.2.2h-.3l-.4-.2v-.6l-.2-.7v-.5c0-.3-.2-.5-.4-.7v-.2c-.4-.2-.7-.3-1-.2-.7 0-1.5 0-1.5-.8v-.8l.2-.2v-.5c0-.2.2-.3.3-.5.2 0 .3-.3.4-.5 0-.3.2-.5.4-.6.2-.4.5-.5.7-.8l.3-.7c0-.4.2-.7.4-1 .3-.6.6-1 .8-1.7 0-.2.2-.4.3-.5l.4-.4.8-1.2 1-1 .6-.7c.3-.2.6-.3.8-.6.3-.3.5-.7 1-1 0 0 .3 0 .5-.3.3 0 .5-.4.7-.6l.6-1c0-.2 0-.4.2-.7 0-.4.2-1 .5-1.2 0-.2.3-.2.4-.4l.5-.6.7-1.5c0-.4.4-.8.7-1l.6-.2h.7l.3-.2h.2l.5-.8c.2-.4.6-.8.7-1.3v-1l.3-.8v-.6s0-.3.2-.5l.3-.3c0-.2.2-.4.3-.5l.3-.3c.2 0 .2-.3.3-.5.3-.5.5-.4 1-.3l1 .3v1.6c0 .2 0 .5.2.7 0 .4 0 .7.2 1v.3h.2v.3c0 .2.3.6.5.8 0 0 .3.3.5.3v.2l.3.4h.5c.2 0 0-.2.2-.4v-.6c0-.2.2-.3.4-.4l.3-.6.3-.3v-.2h.4l.3-.6c0-.3.3-.5.6-.8 0-.2.2-.4.4-.6 0-.2.3-.3.5-.4.6-.4 1-1 1.2-1.6l.2-1v-.6c0-.2 0-.4-.2-.6l-.8-2.2-.4-1.2-.2-.4a2.5 2.5 0 0 1 0-.6l-.2-.6v-.7c.2-.2.6-.4 1-.2 0 0 0 .3.2.4l.2.3.8.8c.2.2.6.6.8.3v-.7l.2-.3v-1.8c.4-.4.5-.8.6-1.2 0-.4.3-1 .5-1.3l.3-.6c0-.2.2-.3.3-.5l.4-.4.4-.5.4-.4c0-.2 0-.4.2-.6l.3-.6v-.9l.2-.2v-.9c-.2 0-.3 0-.2-.2h.2l.3-.4v-.5-.6c0-.6.3-1 .4-1.6v-.7l.2-.6V236.5l.2-.4.3-.3c.2-.2.2-.2.4 0 0 .3.2.4.4.3.2 0 .3-.3.5-.4l.5-.4c.2 0 .4-.3.5-.5l.5-.7.3-.3c.3-.3.4-.7.5-1l.2-.5.2-.3v-.6c0-.4.2-.8.4-1l.2-.8v-.6c.2-.3.2-.4 0-.6v-.5c0-.2.2-.4.3-.5 0-.2.2-.3.3-.5l.3-.5v-.6l.2-.3v-.4c.2-.3.3-.8.2-1v.4c0 .2-.4.2-.5.2l-.3-.5c0-.2-.2-.2-.4-.2s-.3 0-.2-.3v-.5c0-.4-.2-.6-.5-1H394.5s-.4.3-.5 0l-.2-.2v-.4-.7-2.1l.2-.4.2-.7s0-.6 0-1V216l.2-.2v-.7-1.4c0-.3.2-.5.3-.7v-.6-.5l.5-1 .2-1v-.4l.2-.6c.2-.2.3-.6.4-1l.3-1 .4-1 .4-1.3.5-1v-1zM309.6 77h.2l.2.2s-.3 0-.3-.2zm7.6 2.2s.2 0 .3.2c.2 0 .3.3.4.3l.2.2h.3l.2.3c0 .2.2.2.2.3h-.4l-.2-.2-.5-.2h-.4l-.3-.2h-.2v-.2l-.2-.2-.3-.4.6.2zm15.2 9.8l-.3-.2h-.5l-.2-.3-.3-.2-.8-.4-.7-.5-.7-.5h-.2v-.2h-.4l-.3-.2-.3-.2h-.2l-.4-.3h-.3s.3.2.3.4h.4c0 .2.2.2.4.3h.3l.4.3.5.3h.2l.2.2.4.2s.2 0 .3.2l.2.2v.4h-.4c-.2.2 0 .4 0 .6v.7h-.2s-.2.3-.3.2h-.2V90h-.2v.3h-.7l-.2-.2v-.5s-.3 0-.4-.2l-.3-.2s-.4-.2-.3-.5V88l-.3-.2-.2-.3V87h-.4c0-.2-.2-.2-.2-.3l-.3-.4a.5.5 0 0 0-.2 0H324.5h-.2l-.2-.2v.2l.2.4s.3.5 0 .6l-.3-.2-.3-.2h-.2l-.4-.4v-.2l-.4-.2c-.2-.2-.3-.4-.6-.5-.2 0-.4 0-.6-.2l-.3-.3c0-.2-.2-.3-.2-.2v.2h.2v.2h.3l.2.3.3.2h.2l.2.3v.2c0 .3-.3 0-.4 0h-.5l.4.3h.6c0 .2.3.2.4.3l.3.3.3.3.3.4c0 .2 0 .3.2.5s0 .3 0 .5 0 .3-.2.2l-.3-.3h-.2v-.3l-.3-.2c-.2 0-.5 0-.7-.2l-.2-.2h-.3l-.6-.3c-.3 0-.6-.2-.8-.3-.2 0-.4-.3-.6-.5l-.6-.3-.3-.4s-.3-.2-.3-.4V85l-.3-.3c0-.2 0-.3-.3-.4l-1.6-.8c0-.2-.3-.3-.5-.4h-.4v-.3h-.4l-.3-.2c-.2 0-.3-.2-.5-.3-.2 0-.3-.3-.4-.5l-.2-.4c0-.2 0-.4.2-.5h.2v-.2l-.4-.3V80l-.4-.3-.8-.7-.3-.3-.7-.5-.3-.2-.2-.2-.2-.2-.4-.3-.4-.3h.2v.2h.3l.2.2h.3c.3 0 .5.3.8.4.2 0 .5 0 .7.3 0 .2.3.3.4.4l.3.2.6.4.3.2.2.2.2.2h.4s0-.2-.2-.3l-.4-.2s-.3 0-.4-.2l-.2-.3-.3-.2-.4-.3-.2-.2-.2-.2h.5s.3 0 .4.2l.6.2h.3l.2.2h.2l.2.2c.2 0 .4 0 .6.2l.3.2h.3l.5.3c.2 0 .3.2.5.3h.4l.3.3c.2 0 .4 0 .6.2.3 0 .4 0 .6.2.3 0 .6.3 1 .5 0 0 .3 0 .5.2l.5.3c.2 0 .4.2.5.4l.7.2c0-.2-.5-.4-.6-.4l-.4-.4-.4-.3-.2-.2-.2-.2h-.2.2l.2.2.6.5.3.2a1 1 0 0 0 .2 0l.3.2.3.2h.2v.2h.3l.3.3h.2l.5.3h.2l.2.2c.4.2.8.3 1 .6l.7.5h.3l.2.2.4.2h.3l.2.2c.2.3.6.5 1 .7l.6.2h.2l.2.3s.2 0 .3.2c0 0 .2 0 .3.2H330.2l.4.4h.2l.5.4.3.3v.5zm-5.8 248v.2h-.2c-.2 0-.4 0-.5-.2h.4-.5v-.4h.2c.3 0 .7 0 .6.5zm57.7-45.8s.4-.8.6-.5l-.3.7c0 .3-.3.5-.5.8l-1 1.5-.8 1.6c0 .2-.3.5-.5.7l-.4.5-.2.4v.2a.8.8 0 0 1-.5.2h-.3v-.6l.4-.5 1-1.2v-.5l.4-.5.2-.4.3-.5v-.3l.2-.2.2-.2.3-.4.7-1zm-10 8.8l.3-.3.3-.3s0-.3.3-.5l.6-.7h.2l.2-.3.2-.2.2-.2.2-.2v-.2h.2l.2-.4.4-.6.5-.5c0-.2.2-.3.3-.5 0-.2 0-.3.2-.4 0-.2.3-.2.4-.3l.3-.2.4-.3.2-.3.3-.3.3-.3.3-.3c.2 0 .3-.3.5-.4l.4-.4.3-.5c0-.2.3-.4.5-.6 0-.3.2-.5.3-.6l.3-.2.3-.4.3-.3v-.2l.5-.2v.5c-.2 0-.3.3-.5.4l-.3.3-.2.3v.2l-.3.2-.4.8s0 .3-.2.4c0 .2 0 .3-.2.5l-.4 1-.6.5-1 1-1 .8-1 1c-.4 0-.8.4-1 .7l-1 .6c-.2.3-.5.6-1 .8v.3h-.2l-.2.2h-.2zm-5.6 6.3l.8-.6c.2 0 .3-.2.5-.3h.3l.8-.7.5-.3.3-.2.4-.2c.2 0 .3 0 .5-.3 0 0 .2 0 .3-.2l.3-.3.7-.8s.2 0 .3-.2h.2v-.3c0-.2 0-.2.2-.2l.3-.2H375.6v-.2h-.2v-.3c.3 0 .6-.2.7-.5.2 0 .4-.3.5-.3h.3l.3-.2.8-.5.3-.3.6-.4.8-.7h.3v.4l-.2.2-.3.4-.3.4-.8.8-.3.3-.4.4-.3.3v.2h.3l.4-.4h.3l.2-.4.4-.5.3-.4c.2 0 .3-.2.4-.4v-.2h.3c0-.3.3-.5.6-.5l-.3.3c-.2 0-.3.3-.4.5l-.4.6h-.2l-.3.3-.8.7-.5.8v.4c0 .2-.3.3-.4.4l-1 .7-.2.4-.3.4c-.3.2-.6.3-.7.6 0 0 0 .2-.2.2h-.3c0 .2-.2.2-.3.3l-.2.3-.2.2c-.2.2-.5.3-.7.3h-.3c-.2 0-.3.3-.5.4l-.2.2-.2.3-.3.3-.3.3-.3.3-.5.3-.4.3s-.2.4-.2 0l.3-.7.2-.2v-.2h-.2l-.2.2h-.2s0-.3.2-.3zm6.4-75c0 .4 0 .7-.3 1l-.4.6-.2.7v.6s0 .5-.3.7l-.5.8c0 .3-.2.6-.5 1 0 0-.3 0-.5.3 0 .2 0 .5-.2.7V238.6l-.5 1c-.2.8-.6 1.4-.8 2 0 .3-.2.6-.4 1 0 .2-.3.4-.5.7v.2c0 .5-.3 1-.5 1.4 0 .3-.3.8-.5 1.2 0 .4-.3.7-.5 1l-.5 1.4-.5 1.2c0 .3-.3.6-.4.8l-.4.6-.7 1.4-.4.7-.5.7c0 .4-.4.7-.6 1-.2.4-.3.8-.6 1l-.6.8-1.2 1-.3.4-.4.2c-.2 0-.4.5-.5.8l-.6 1c-.2 0-.4.4-.6.7l-.4.7c0 .3-.3.5-.3 1v1l-.5 1-.2 1-.2.5v.3l.2.2c0 .4 0 .7-.2 1l-.2.5v.3l-.2.2v1c0 .4-.4.6-.6 1v.4l-.3.5v.5h-.2v1l-.2.2c0 .4 0 .7-.2 1 0 .4-.2.6-.3 1l-.4.8v-.3-.6l.2-.2.2-.5v-.5-1c.2-.4 0-.6.2-.8v-.8l.4-1c0-.4 0-.8.3-1.2l.5-1.5c0-.4.3-.8.4-1.2l.3-1 .2-1 .6-1.2.6-1 .5-1 .7-2 .6-1.2.2-.6v-.3l.2-.5v-1-1.2c-.2-.4 0-.7-.3-1a5 5 0 0 0-.5-1c-.3-.4-.5-.6-.5-1v-.4l.2-.7v-.4-.7l.5-1 .3-1v-.4h.2v-.4c.2-.8.4-1.5.8-2.2l.6-.7.8-.5v1.7c-.3.2-.4.5-.4 1 0 0 0 .4-.2.6 0 .3 0 .5.2.6.4 0 .5-.3.7-.6.3-.5.6-1.2.6-1.8 0-.7.2-1.5.6-2l.3-.4c0-.3.2-.5.3-.8v-.5c0-.3.2-.3.2-.5v-1c.2-.2.2-.3.2-.5v-1.2l.3-.6v-.5c0-.3 0-.5.2-.8 0-.3.2-.4.3-.6l.2-.5c0-.3.3-.4.4-.6l.3-.6c0-.2.2-.3.3-.5l.3-.6c.3-.5.7-1 1.2-1.4.2-.2.5-.5.8-.6l.2-.2s.2-.2.4 0c.2 0 .3.3.3.6v.8c0 .5.2 1 0 1.4 0 .2 0 .4-.2.6 0 .2-.2.3-.3.5l-.4.5-.6 1-.4.4c0 .2 0 .4-.2.6l-.8 1c0 1-.5 1.8-1 2.5l-.2.4v.2h-.3v.3l-.3.7c0 .2 0 .5-.2.8l-.2 1-.2.8s0 .5-.2.8v1.5s0 .2.2.2h.3l.6-.8.5-1 .3-.4.3-.6.6-1.2c0-.2 0-.4.2-.6l.3-.7.8-1.3.6-1.2.5-.6c0-.3.2-.6.4-1l.6-.5.5-.7c0-.2.3-.3.4-.5 0-.3.2-.5.3-.8v-.5l.2-.3V233c-.2 0-.3-.4-.3-.6 0-.4.6-.6.8-1l1-1 1-1c0-.3 0-.6.3-.8l.8-1c.2 0 .4-.4.5-.4.6 0-.4 2.4-.6 2.7zM326.7 87h.3l-.4-.3h-.2l.3.2zm40.8 152l.2-.3-.2.3zm8 75.4c0 .3-.3.6-.4.8l-.2.5c-.4.8-1 1.4-1.5 2-.3.4-.5.8-.8 1l-.5.7-1 1c-.2 0-.5.4-.7.6-.4.3-.6.7-.2 1h.2c.2 0 .5-.4.7-.5l.4-.7c.4-.8 1.2-1.4 1.7-2l1-1.3c0-.3.2-.5.4-.8 0-.2.2-.4.4-.6l.4-.4c0-.3.3-.5.5-.8 0 0 .6-1 .3-1-.2-.2-.8.6-.8.7zm1.8-5c0-.2 0-.3.2-.5l.6-1c0-.4.2-.7.4-1l.7-1.4.5-.8.5-1 .5-1 .3-1c0-.4.4-.8.5-1.3V300c0-.3-.2-.3-.3 0-.2 0-.2.3-.3.4l-.2.4c0 .4-.2.7-.5 1l-.4.8c0 .2-.3.4-.4.6l-.3.6c-.2 0-.2.2-.2.3l-.4.3-.3.6v.4c-.2 0-.3.2-.4.4l-.2.5c-.5.7-1 1.5-1 2.4v.3c0 .2 0 0 .2-.2zm4.8-6.5c-.2 0-.3.4-.4.6l-.4.5-.7 1.3-.8 1-.4.7-.2.3v.2l-.4.5-.6.6-.4.4-.3.5-.4 1-.7 1-.5 1-.3.2-.2.3-.5 1c0 .3-.4.5-.4.8v.4h-.2l.2.2.2-.4.2-.3.3-.6.4-.6.7-1 .6-.5.5-1 .6-.7.7-.8.7-1 .6-.7c0-.3.2-.5.5-.7.5-.3.7-.6 1-1l.2-.3.2-.4.3-.7.8-1.4c.2-.3.3-.5.3-.8 0-.2 0-.3-.2-.2zm12.3-39.4c0-.2-.2-.6-.5-.5l-.3.5c-.2.3-.2.7-.3 1v.8l-.2.3v1.5c0 .2 0 .3-.2.5.3 0 .6-.3.7-.5.3-.3.5-.5.7-1l.2-.6v-.3s.2-.2 0-.4v-1.4zm-10.5 34.6c.2-.4.5-.8.5-1.2 0-.5-.4 0-.6.2 0 .3-.3.5-.4.8 0 .3 0 .6-.3 1l-.2.4v.5l-.4.4-.2.5c0 .4-.5.7-.7 1.2l-.5 1-.3.7c0 .2-.5.6-.5 1l.2-.3c.2 0 .5-.6.6-.8l.5-1v-.6l.3-.5.5-1c.5-.5.6-1.3 1-2l.5-1.4zm.6.7l-.4.5c0 .3-.2.5-.4.7-.2 0-.2.3-.3.5v.2c-.2 0-.3.4-.5.5v.3c0-.2.3-.4.5-.6l.7-1h.2v-.3l.4-.7c.2-.3.2-.8 0-1v.2zm8.4-31.4zm-38.2 74.7zm-96.2-25.7h.8l.3.2v-.2s0-.2.2-.2c0 0 .2 0 .3-.2h.4l.7-.2h.8l.3-.2H265l.4.2h.5v-.2h1.5c.3 0 .5-.2.7-.3h1.4v-.2h.3v-.2h.3c0-.2.2-.3.3-.3l.4-.3.5-.3.3-.2.5-.3c.2 0 .3-.4.4-.5l.3-1c0-.3 0-.6.2-1v-.5l.3-.4c0-.2-.3-.2-.4-.4v-.9l.2-.7v-.4c0-.3 0-.5-.2-.7V306h.2l.3-.6.3-.6v-.5c0-.2 0-.4-.2-.6v-.2l-.2-.2v-.8l.2-.3v-.6-.8l-.4-.4v-.2-.5l-.3-.3-.3-.4v-1l-.2-.3v-.3h-.5a.6.6 0 0 0-.2 0l-.5-.2h-.3v.4c-.2 0-.3.3-.5.3h-1.3v.2h.3v.2c-.3 0-.4 0-.6.2h-.5l-.2.2h-.2v.2l-.3.2-.4.2c-.2.2-.2.5-.5.5h-.6c-.2 0-.4 0-.6-.2v-.2-1.2h-1.2-.5l-.3.2h-.7c-.3.3-.6.3-1 .3l-.2.2h-.7l-.3-.2-.2.2h-.5c-.2 0 0 .2-.2.3l-.2.5.2.4.3.4.2.3c0 .2 0 .4-.2.5h-.2l-.4-.5v-.7a.3.3 0 0 0-.3-.2v-.6h-.2v-.3c0-.2-.2-.2-.3-.2h-1l-.3.2h-.3l-.2.2-.4.2h-.3l-.2.2h-.3v.2h-.5l-.2.2h-.3l-.2.2-.3.3c-.2 0-.4.3-.6.4l-.4.3h-.2v.2l-.2.2-.2.3-.2.4v.3l-.2.3v2.4s.2 0 .2.2l.2.2.2.2h.2l.5.3.3.2.4.2.2.2h.3c0 .2.3.3.5.4.2 0 .3 0 .5.2l.6.2c.3 0 .4.3.6.4l.8.4h.5l.2.2v.3c0 .2 0 .4-.3.4s-.4.3-.5.4h-.5s-.2 0-.2.2v.2a.7.7 0 0 1-.5.4h-.2v.2h-.3v.3l-.2.4h-.3c-.4.2-.3.7-.2 1v.4a.3.3 0 0 1 0 .2l-.4.2-.2-.2v-.3a1 1 0 0 0-.4-.3s-.3-.3-.5-.3-.5 0-.6.3h-.2v.2h-1.1l-.3.2h-.2l-.2.3-.3.2a1 1 0 0 0-.3.5c0 .2 0 .3.2.4l.4.4v.6h.8c0 .2.2.2.2.3v.2h.4l.2.2h1.8c.4.2 1 0 1.4.2h.6l.4-.2s0 .2.2.3c.2.3.2 0 .4 0 0-.2 0 0 .2 0H259l.3.2zm41.2-209l.2.3h.6l.5.2.6.2h.7c.5 0 1 0 1.3.3.5 0 1 .3 1.5.6.3.2.6.4 1 .4.2 0 .2 0 .2-.4v-.4l-.7-1-.6-1v-1-1.2l-.7-.7h-2c-.4.2-.6.2-1 .2h-.5c-.3 0-.3.6-.2 1v1c0 .3-.4 1 0 1zM171.2 225c.4 0 .8 0 1-.4 0-.4-.2-.5-.3-.7-.2-.5-.3-1.8-.8-1.8-.2 0-.6.3-.7.5v1c0 .3 0 .5.2.8 0 .2.2.6 0 .7l.5-.2zm78.2 88l.2-.2v-.5l-.2-.2v-.3l-.2-.2-.4-.2h-.6l-.2.3-.2.2h-.4l-.3.2-.3.2-.3.7v.3s-.2.3 0 .4c0 .2 0 .4.2.5l.2.2h.7l.3.4h.5c0-.2 0-.3.2-.4h.2l.2-.3v.2l.3-.2zm46.2-206.7h.3c.3 0 .4-.2.5-.3h.4l.2-.2c.2 0 0-.3 0-.4-.2 0-.4 0-.5-.2l-.3-.2-.4-.2h-1l-.6-.4-.4.2c-.2.2-.4.3-.2.6l.3.4.5.6v.2l1.2.2zm-1 0l-.2-.2-.3.2h.5zM169.2 230.7v-1c.3-.5 1-1 1-1.4v-1.8l-.5-.5s0-.2-.2-.3l-.7 1c-.2.3-.6.5-1 .7l-1.2.4c-.3 0-.7 0-1 .4v1.1c0 .2-.2.2-.3.5v.7c.3 1 .8 1.7 1 2.7l-.2-.4c0 1.2 1.2 1.6 2 1 .4-.4 1-.7 1-1 .3-.5 0-1.2.2-1.6 0-.3.2-.5.3-.7zm62.2 97c-.4-.2-1-.7-1.4-.4-.5.3 0 1-.4 1.4l-.6.4v.8c0 .3.4 1.3.8 1l-.4.3c.3-.2 1 .2 1.3-.3v-.7c0-.2.2-.3.3-.4.4-.5 1.3-1 1.3-1.5 0-.7-.6-.7-1-1zm60.3 46.5zM227.2 63.8h-.2zm20 .7h4.6v.2l-.2-.2h.2l.4-.2h1.5s.3 0 .5.2h2l.5-.2h.5c.2 0 .4-.2.6 0l.5-.2h.6v-.2s-.2 0 0-.2h.3v-.2c-.2 0-.5-.3-.3-.4h-.4v-.2h.2l.2-.2H261.2l.5-.2h1.8l.5.2h.2l.2.2h.5s.3 0 .4.2v.2c-.3 0-.6 0-.8.2 0 0-.5 0-.4.2h.6c0 .2.3.2.3.4v.2h-.3l-.3.2h-1.8l-.4.2h-1l-.7.2h-.6l-.4.2v.2c-.3 0-.5 0-.5.3 0 0 0 .2.2.2v.2h.7l.5.3h.2c0 .2.2.2.3.2h.8l.3.3c.2 0 .3.2.4 0h.6l.7.4.2.3v.2c.2 0 .2.2.3.3v.4s.2 0 .3.2l.4.4s.2 0 .2.2 0 .3-.2.3c0 .2.2 0 .3 0h.2v.3c.2 0 .3 0 .4.2h1.2-.5l-.4-.2h-.2v.2h-.5c-.3-.4 0-.6.3-.6h.9V69h.2l-.2-.2v-1l-.2-.2v-.2h-.2V67l-.3-.3v-.2H267s0 .2.2 0h.5v.2h.5l.2.2h1.2v.3c-.3 0-.5 0-.7.2-.3 0-.2.2 0 .2h.2l.3.2s.2 0 .2-.2c.2 0 0 .2 0 .3-.2.2-.2.2 0 .3v.2h.6c0-.2.3-.3.4-.3l.5-.2h.6l.5-.3h.7c.2 0 .4 0 .6-.2l.2-.2h1.4l.3-.2h.8v.2h.3l.2.2h1.9l.4.2h.4c0 .2.2.3.4.3h.8s.2 0 .2-.2c.2 0 .2 0 .3-.3V67H282v.2H282.7c0 .2 0 .2.2.2h.5l.2.2h.4l-.2-.2h-.2l-.4-.3c-.3 0-.5 0-.8-.2 0 0-.3 0-.4-.2l-.4-.2h-.6c0-.2-.2-.3-.4-.3h-.9v-.3h.2l-.2-.2h-.2l-.2-.2h-.3l-1-.3h-.4v-.2h-.6l-.2-.2c-.2 0-.4 0-.6-.2-.2 0-.3-.2-.4-.3h.7l.7.2h1l.2.2h.2s.2 0 .3.2l.2.2h.2l.3.2h.2l.3.2h.7s0-.2-.2-.2l-.2-.2-.5-.3-.4-.3c-.2 0-.4-.3-.6-.4l-.5-.3-.7-.3-.6-.4-.7-.3-.7-.4a6 6 0 0 0-1-.2l-1-.2c-1 0-2-.2-2.8-.4-.5 0-1 0-1.6-.2l-2-.4-2.8-.6-1.7-.3c-.3 0-.7 0-1-.2h-1s-.4 0-.6-.2c-.3 0-1 0-1.3.2 0 0-.3 0-.4.2H256c-.3 0-.4-.2-.5-.2H254l-.8-.2h-1l-.4-.2h-3.3l-.5.2H247h-.3l-.3-.2H245l-.4-.3h-4.3c-.2 0-.5 0-.6.2h.2v.3h-.5l-.7.3h-.5l-.3.2h-.3l-.5.4c-.3 0-.6.3-.8.3h-.2l.2-.2s.4-.3.2-.5c0-.2-.2 0-.4 0h-.8v-.2H234.4h-.8-.4l-.2.2v.2h.4s.2 0 .2.2h-1.2l-.3.3h-.2s-.2 0 0 0V60s-.5 0-.5 0l.3-.3v-.2l-.2-.2h-.4a.7.7 0 0 1-.4.2h-.4-.4l-.4.2h-.4l-.4.2-.4.2h-.3l-.3.2c-.2 0-.3.3-.5.4l-.2.2h-.3l-.2.3-.2.2-.2.4v.3h.2-.2v.2l.2.2h.8c.2 0 .3-.2.5 0h.4l.4.2h.4l.7.2H233l.4-.2H235l.3.2h4c.3 0 0 0 0 .2h.5l.5-.2h.7l.6-.2h.4l.5-.2h2.9l.7-.2zm153.2 136.2l-.4-.6s0-.2-.3-.3c-.3 0-.5 0-.7.2-.3.2-.5 1 0 1.2l.2.2v.6c-.2.2 0 .5 0 .6l.4.7c0 .2.4.4.6.3l.5-.5v-.2-.4-.7c0-.3 0-.5-.3-.8zm1 .6l-.3-.4v-1c0-.4-.2-.7-.3-1v1l.3.6v1.6h.2V201zm-73.6 154.5l.4-.3.5-.5.2-.3.2-.2v-.5l.8-.6c.2 0 .3-.3.4-.5v-.7l-.3.3v.2h-.4l-.2.3-.3.2h-.5c-.4.2-.5.8-.8 1-.2.2-.5.4-.8.3-.2 0-.2-.4-.3-.6-.2-.5 0-.7.2-1v-.5s.3-.3.2-.6-.2-.3-.4-.2h-1.5s-.4.2-.4.5l.2.5v.5l-.3.2c-.5.3-.7.6-1.2.7l-1.2.3c-.4 0-1 0-1.3.3-.2 0-.4 0-.5.2l-.6.3h-.6v-.6c.2-.4 0-.6-.2-1l-.2-.5-.2-.5c0-.3 0-.3.2-.5v-.2h.4l.7-1 .2-.3s.2 0 .2-.2-.2-.4-.3-.5v-.3c0-.2.2-.2 0-.4l-.4-.6s0-.3-.2-.4l-.3-.3-.7-.6c-.3-.2-.5-.4-.5-.8v-.7l-.2-.6v-.5l.4-.8c.2-.3.2-.8.3-1v-.6-.5-.3c-.2-.2-.4-.2-.6-.2h-.3l-.3.3h-.3v.2l-.3.2c-.2.2-.3.4-.3.7 0 .2 0 .6-.2 1 0 0-.3.5-.5.4v-.5-.7-.5l.2-.5c-.3-.4 0-.7 0-1v-.5l-.4-.3c-.4 0-.6.3-1 .3s-.7-.2-1 0c-.3 0-.4.3-.6.5h-.5s-.8.3-.8 0h-.4v-.5h-.3v-.3l-.3-.3h-.4v-.3h-.2V338.7c-.3 0-.5 0-.7-.2h-.2v-.3c-.3 0-.4.3-.5.4l-.3.2h-1l-.3.2h-.4c-.5 0-1 .5-1.2 1-.3.2-.7.5-.8 1 0 0 0 .2-.2.3h-.7l-.3.2c-.2 0-.4 0-.7.3-.3 0-.4.2-.6.4 0 .3-.7.8-1 .5l.2.3h-.8c-.3.2-.5.2-.8.2h-.3-.5l-.4.3c0 .3 0 .2.3.3h.2c.2 0 .5 0 .5.2s-.3 0-.4 0h-.6c-.2.2-.4.2-.6.2H296l-.4.2-1 .3h-.5l.8-.3c.2 0 .4 0 .6-.2l.7-.3c.3 0 .5 0 .6-.2-.3-.2-.3-.3-.7-.2-.4 0-.7.3-1 .4l-1.2.3c-.5 0-1 .3-1.5.2h-.4c-.5 0-.6.3-1 .4h-1l-.3.4c-.2.2-.5.4-.8.2l-.4-.4s-.2-.2-.3 0h-.5c-.2-.2-.5 0-.7 0-.2 0-.5-.2-.7 0-.3 0-.6 0-1 .2 0 0-.2 0-.3.2h-.3c-.3.2-.5.4-1 .4 0 0-.3 0-.4-.2v-.3a1.5 1.5 0 0 1-.4 0l-.3-.6c0-.5.2-.5.5-.7l.4-.6c0-.2.2-.4.4-.5l.4-.3c-.2-.2-.2 0-.4 0H282c-.5-.2-.7-.5-1-.8 0-.3 0 0-.3 0h-.5c-.4 0-.7.3-1 .6l-1.2 1h-.4l-.2.3-.5.5-1.4 1-.5.5-.8.8-.3.3-.3.4v.7c0 .4-.3.8-.5 1l-.5.6-.3.4-1 1-.3.3h-.5c-.3.3-.4.8-.7 1l-.8.5-1.2 1c-.2.4-.6.6-.8.8-.2 0-.4.4-.6.5l-.5.4c-.3.2-.2.3 0 .4v.4c0 .2.2.4.4.6v.4c0 .3-.2.6 0 1l.2.6v1.6h.3v-.2H269.7c.3-.2.8 0 .8.3s-.7.4-1 .6c-.2 0-.4 0-.5.2l-.5.3-1 .5-1 .4c-.3 0-.5 0-.8.2l-.3.3-.5.3c-.4.2-.6.2-.8.5-.2.2 0 .3 0 .5l-.2.2v.3l-1 1c-.4 0-.8.3-1 .6-.2.2-.2.3-.2.5l-.2.4v.4l-.2.3c0 .2-.2.4-.4.5l-1 .7-.7.6c-.4.2-.8.3-1 .6l-1 1c-.2.2-.8.5 0 .8h.5c.2 0 .3.2.5.3 0 0 .3 0 .5.2h.7l.8.7c.4.3.5.7.7 1l.2 1V376.4l.2.3c0 .3 0 .8.2 1h1c.3 0 .5 0 .7-.2l.2-.2h.3l.4-.4.4-.2h.8v.3s0 .2.3.3h2.2l.7.2s.3 0 .5.2h1.5v-.6l.4-.2c.3 0 .6-.3 1-.5.5-.3.8-1 1-1.4.2-.4.4-1 .7-1v.6l-.3.5c0 .6.3.6.6.8.3.2.5.5.4.8l-.3.5c0 .3 0 .3-.3.4-.4.2-.6.7-1 1h-.4l-.4.4-1 .5-.2.3c0 .2.2.3.2 0l.2.2c.2.2.4 0 .6 0l.8-.4 1.4-1c.3 0 .7-.2 1-.4l.4-.3.8-.3c.3 0 .5-.3.8-.5l1-.6.7-.6.4-.4h.5c.2-.2.3-.4.6-.4h.6l1-.5.6-.5.7-.6.8-.7s.3 0 .3-.2c.2 0 .2-.2.3-.3l.8-.7.7-.6c0-.3.3-.4.4-.6.2 0 0-.3.2-.5 0-.4 0-.8.3-1l.2-.4.2-.2.3-.2c.2 0 .4-.4.7-.5l.3-.2h.2l.4-.3c0-.2.2-.4.4-.6l.3-.2h.3l.5-.5.4-.3.3-.3.4-.3 1-.5h.4a4 4 0 0 1 1-.5h.8l.4-.3 1.2-.5 1-.5c.3 0 1-.4 1-.2 0 .3-.2.4-.5.6l-.6.5-.4.2-.8.5-.3.3c-.3 0-.4 0-.4.3h1l.2-.2c.2 0 .5 0 .7-.3l.5-.3c.2 0 .5 0 .7-.2l.6-.3.6-.3.4-.3 1.2-.7c.2 0 .5 0 .7-.2l.6-.2h1.9c0 .2.2.2.4.3l-.4.8-.7.4c-.3 0-.5.4-.7.6l-1 .5-.4.6h-.8s-.2 0-.3.2h-.3l-.4.7-.6.7-.3.4c0 .2-.3.2-.3.4-.3.5.6.3.8.2l.6-.2h.5c.4 0 1-.2 1.2-.4l.8-.4c.4 0 .8-.4 1.2-.6l1-.5.4-.2c0-.2 0-.2.3-.3h.5v-.2h.4c.2 0 .4-.2.6-.4.4-.4 1-.5 1.6-.8l.6-.2.4-.2h.5l.5-.3.6-.3.6-.3.4-.2.4-.5c.3-.3.8-.4 1-.6l.6-.2h.6l.3-.2.6-.2h.5c.4 0 .4-.4.6-.7 0-.3.5-.6 1-.7l.2-.2h.3l.3-.3h.3l.3-.2.4-.2.5-.2.3-.2s.4 0 .4-.3c0-.2-.3 0-.4 0 0 0-1 .5-.7 0 0 0 .3 0 .4-.2h.3l.8-.6.7-.6c.3-.3.6-.5 1-.6.3 0 1-.3 1.2-.6 0-.2.4-.4.5-.6l.3-.3zm3-2.2h.2zm.4 0h-.2zm0 .7l-.6.2c-.3 0-.3 0-.5.2 0 .2 0 .2-.3.4l-.6.7c0 .2-.3.3-.5.5l-.6.6h-.2v.2h.2l.3-.4c.3-.3.6-.4 1-.5l.3-.3c.2 0 .3-.2.4-.4 0-.2.2-.4.4-.5l.4-.4c0-.3 0-.3-.3-.3zm4.4-4.8h-.4c-.3 0-.5.2-.7.3l-1 .7c0 .2-.4.4-.6.6l-.6.7-.6.7-.8.8-.2.4h.4c.2 0 .4-.4.7-.6 0 0 .3 0 .5-.4l.6-.7 1.8-1.3c.2 0 .3-.3.5-.5l.3-.6h-.4zm3.3-3c-.2 0-.4.2-.5.3l-.7.6c-.2 0-.3 0-.5.3l-.3.3-.6.5s-.2 0-.3.3h.6-.2l.3.2.4-.2c.3 0 .3 0 .5-.2l.3-.4c0-.2.3-.5.5-.7.2-.3.5-.5.4-1 0 0 0-.2-.3 0zm2.3-1.6c-.3 0-.5 0-.7.2-.5.3-.8.8-1 1.2.4 0 .8-.4 1.2-.7l1-1c-.4-.2-.5 0-.7.2zm-18.5-8.4l.6-.2c.2 0 .5 0 .7-.2.2 0 .4-.2.5-.3l1-1c0-.2 0-.5-.2-.7-.2-.2-.4-.2-.6 0h-.5l-.4.2a.5.5 0 0 1-.3 0c-.2 0-.4 0-.6.2-.6.2-1 .6-1.4.8l-.6.3s-.2.2 0 .3v.3c.2.2.6 1.2 1 .8v.4c0-.3 0-.4.3-.5zm5 20.6s0-.2.2-.3v-.2l-.3.4zm-9.5-18.2v.2h-.2c0 .3 1 1 1 1.2l.7.3h.2l.3.4c.2.3.4.5.7.5.4.2.8 0 1-.4.3 0 .2-.4.4-.6l.3-.4v-.4c.2-.3.3-.6 0-1 0-.2-.3-.2-.5-.4a4 4 0 0 1-.6-.3l-.4-.4c-.2 0-.3 0-.5-.2-.3-.2-.4-.4-.7-.4H319c-.5 0-.8 0-1 .5 0 .2 0 .3.2.5v.4a1.7 1.7 0 0 1-.3.4zm26.8 3.8v.3c-.3.3-.4.6-.7.7h.3c0 .3.3.2.4 0h.4c0-.2.4-.4.4-.6l-.2-.2-.4.2zm-45.5 28c.4-.2.8-.5 1-1v-.3l.4-.2c0-.2.4-.4.6-.7l.6-.5s.3 0 .2-.2h-.5l-1 .7c-.2.2-.7.3-1 .3-.4 0-.6.4-1 .5l-.5.3-.3.3c-.3 0-.7.3-1 .6 0 .2 0 .5-.4.7h-.3v.3l-.6.3h-.5c-.2.3-.4.3-.6.3h-.7l-.6.3h-.4c-.3 0-.3 0-.5.3 0 0-.2 0-.2.2v.2l-.4.5v.2l-.4.3-.5.5.4.2h.6l.5-.2h.5l1-.5.4-.3.3-.2.2-.3.7-.3.4-.2h.6c.4 0 1-.4 1.2-.7 0-.2.2-.4.4-.6l.3-.4zm18-30.7l-.4.2h-.7c-.3 0-1.3.2-1.3.5l.5.4c0 .2 0 .2.3.2h1.1l.4.4v-.2.2c.5 0 .8 0 1.2-.2v-.7s0-.3-.3-.4l-.4-.2c-.3 0-.5.2-.7.3zM259 183.6h.4c.4.3 1 .4 1.3.2l.2-.4v-.8l-.2-.8c0-.3 0-.6-.2-1 0-.3-.4-.5-.8-.5h-.3l-.2.4c0 .2-.3.4-.5.5l-.5.6V182.8l.2.4.3.2.3.4zm4.5-4.8h.2l.4-.2h.5v-.4h.2v-.4l.2-.2v-.6c-.4-.6-1-.8-1.5-1-.6 0-1 .2-1.4.4l-.3.3-.2.2-.2.3v1h.2v.3h.3l.6.4h.2v.2-.2zm3.7-5.8v-.2l.3-.2.2-.3v-.3c.2-.2.2-.5 0-.8 0-.2-.2-.3-.4-.5l-.4-.3c-.3 0-.6 0-.8.3 0 .2-.2.4-.4.5l-.4.3c-.2.3 0 .5 0 .8 0 .2.2.3.4.4l.2.2h.2l-.3.2h.4l.2.2h.6c.3 0 .3 0 .4-.2zm-5 11c0 .6.3 1 .7 1.4l1.4.8 1.2.4a.6.6 0 0 0 .2 0H266.4l.3-.5v-.2c.2 0 .2 0 .2-.2v-.7a1 1 0 0 0 0-.3c-.2 0-.3-.3-.4-.4-.2-.2-.4-.4-.4-.7v-.8s0-.2.2-.3v-.3-.6l-.2-.2v-.3l-.7-.3h-.2a.6.6 0 0 0-.2-.2h-.5c-.2 0-.3 0-.4.2 0 0 0 .2-.3.2h-.2-.2l-.4.4v.9c-.2.2-.4.6-.3 1l.3.5c.2.2 0 .5 0 1zm-1.2 19v-.3.2zm0 0v.2zm18 21.6zm-.7.5l-.2.6c0 .3-.2.5-.4.7-.3.4-.8.8-1.2 1-.3.2-.6 0-.8.2-.2 0-.4.4-.5.5-.4.5-1 0-1.5.2l-.2.2h-.5l-.7.4h-.8c-.4 0-.5.2-.8.3-.5.4-1 .4-1.6.4-.5 0-1 .2-1.3.4l-.7.4-.7.7c-.6.4 0 .7.3 1v.4l.2.3v.8l.2.3v.4c0 .4 0 .6.3.8 0 0 0 .2.3.2h.4c.2.2.5.2.8 0 .3 0 .5-.6.8-.7h1.5c.6-.2 1-.7 1-1.2l1-1 1-1.3c.3-.5 1-.7 1.3-1.2 0-.2.3-.4.4-.5v-.3l.6-.5.5-.3.7-.6c.4-.3 1-.3 1-1 0 0 .2-.5 0-.7 0-.3-.2-.4-.3-.5a.6.6 0 0 0-.2-.2h-.3c-.2 0-.3.3-.4.5z" opacity=".5"/><path fill="url(#m)" d="M165 120.8a38.8 38.8 0 0 1 4-4.6c.7-.5 1.3-.8 2-.7 3-3.4 7-6.3 9-7.3a2.6 2.6 0 0 1 2.3 0c4-2.7 9.7-6 15-7 .2-.2.5-.2.6-.2.4 0 1 0 1.3.4l2.8-.7a20 20 0 0 1 4-.4c3 0 8 .4 8.8 3.2.3 1.2-.3 2.5-1.4 3.2l-1.5.7-1.2.5c0 .6-.5 1.2-1 1.7-9.2 7.5-15.5 17-18.8 27.8l1 1.8 1.4 2.3c3.3 4.7 7.6 7 12.7 7h4c22.2 0 29.3 1.2 29.6 7.3.2 4.3-.7 8-2.3 11-1.8 3.5-6 7.4-9.2 9.7l-4.6 2.7c-12.7 7.2-20 12-22 14.2 0 .4.3 1 .4 1.3.2.2.3.6.3 1 0 .7-.2 1.3-.6 1.8l.3 2 .2 2c.6 4.5-.2 7.5-.8 10l-.3 1.4-.8 1.3c.7 2.3-.5 3.8-1.4 4.4-1.2.6-2.8.3-3.6-1 0 0-1-1-3-2-1-.6-2.5-1.2-4-1.8-.5.7-1.3 1.2-2.3 1.2-.5 0-1 0-1.3-.3l-2.4-1c-3 2.3-4.5 6-4.5 9 0 5.2 0 13.2 17.3 23.5 6 3.5 12 5.3 17.8 5.3 7.3 0 13.7-2.7 19.4-5.2 3-1.3 6-2.5 8.8-3.3 3.4-1 6.7-1.3 10-1.3 12 0 21.5 6 26.3 11.5 2.8 3.2 3.6 7.2 2 10.5-1.3 3-4.4 5-8 5l-2.4-.3c-4.5-1-10.3 3-18.7 9l-5 3.4c-9 6-22 9.6-35.7 9.6-3.4 0-6.8-.2-10-.7 3.8 3.6 8.4 7.5 12 8.6 2.4.8 5.4 1.2 8.3 1.5 5.3.8 11 1.6 14.3 5 .6.5 1 1.2 1 2 0 1-.6 2-1.4 2.5 7.6 2.4 15.4 3.7 23 3.7 5 0 8.5-.6 10.4-1h.4c10-1.5 14.6-4.7 16.5-6l.2-.3c1-1 2.4-.8 3.3 0 0 .2.3.3.4.5l.6-.7 2.6-2.8c5.5-5.7 11-8.4 11.2-8.5.7-.4 1.6-.4 2.3 0 .6.3 1.2 1 1.3 1.8.3 1.4 0 2.8 0 3.8v.5c40.4 18 120.6-206.4-63.4-219.8-46-1.6-83.3 17.6-97.5 37 8.8 0 12.8.4 18.3 1.6z" opacity=".4"/><path fill="url(#n)" d="M242.3 262.5c-1 1 0 4 1.4 3.8l3.2-.7s1 2 0 2.5c-1 .6-4 .4-.2 1.7 3.8 1.4 4.7 1 5 .3.3-.7 1.6-3 2.3-3 .6-1.2-2-2.3-.5-3 1.3-1 .2-4 .2-4s-2 0-2.8 1.4c-1 1.4-2-.2-3-.2 0 .8-.6 1.5-.6 1.5l-.6-1.3s-4-.2-4.7.8z"/><defs><radialGradient id="a" cx="241" cy="1246" r="144" gradientTransform="matrix(1 0 0 .4 0 -120.4)" gradientUnits="userSpaceOnUse"><stop offset=".5" stop-opacity=".6"/><stop offset="1" stop-opacity="0"/></radialGradient><linearGradient id="b" x1="133" x2="117.4" y1="255.1" y2="295" gradientUnits="userSpaceOnUse" gradientTransform="matrix(1 0 0 -1 -22.5 401.3)"><stop offset="0" stop-color="#941F21"/><stop offset=".5" stop-color="#E36126"/><stop offset="1" stop-color="#F0BB62"/></linearGradient><linearGradient id="c" x1="1008" x2="1008" y1="1353" y2="1190.5" gradientUnits="userSpaceOnUse" gradientTransform="rotate(14.7 -5356.2 -4120.8)"><stop offset=".1" stop-color="#DC7327"/><stop offset="1" stop-color="#EEBC89"/></linearGradient><linearGradient id="d" x1="107.3" x2="52.4" y1="269.1" y2="179.6" gradientUnits="userSpaceOnUse" gradientTransform="matrix(1 -.1 -.1 -1.2 21.1 486.3)"><stop offset=".1" stop-color="#DC7327"/><stop offset="1" stop-color="#EDBD6B"/></linearGradient><radialGradient id="e" cx="367.3" cy="317.8" r="63.9" gradientTransform="matrix(1 0 0 -1 -22.5 401.3)" gradientUnits="userSpaceOnUse"><stop offset=".3" stop-color="#FFE300"/><stop offset=".3" stop-color="#FCD800"/><stop offset=".5" stop-color="#F8C91E"/><stop offset=".6" stop-color="#EDA524"/><stop offset=".8" stop-color="#E37B28"/><stop offset="1" stop-color="#DD5A26"/></radialGradient><radialGradient id="f" cx="391.5" cy="268.5" r="33.4" gradientTransform="matrix(1 0 0 -1 -22.5 401.3)" gradientUnits="userSpaceOnUse"><stop offset=".1" stop-color="#941F21"/><stop offset=".3" stop-color="#9E2922"/><stop offset=".7" stop-color="#C24028"/><stop offset="1" stop-color="#DC5726"/></radialGradient><radialGradient id="g" cx="348.8" cy="25.4" r="29.7" gradientTransform="matrix(1 0 0 -1 -22.5 401.3)" gradientUnits="userSpaceOnUse"><stop offset="0" stop-color="#431413"/><stop offset=".2" stop-color="#631E1C"/><stop offset=".3" stop-color="#832320"/><stop offset=".5" stop-color="#9C2222"/><stop offset=".6" stop-color="#AC2023"/><stop offset=".7" stop-color="#B21F24"/><stop offset="1" stop-color="#AA1F24"/><stop offset="1" stop-color="#A91F24"/></radialGradient><radialGradient id="h" cx="406.3" cy="82.1" r="32.9" xlink:href="#f" gradientTransform="matrix(1 0 0 -1 -22.5 401.3)" gradientUnits="userSpaceOnUse"/><radialGradient id="i" cx="422.4" cy="178.7" r="29.7" xlink:href="#f" gradientTransform="matrix(1 0 0 -1 -22.5 401.3)" gradientUnits="userSpaceOnUse"/><radialGradient id="j" cx="413.5" cy="249.3" r="37.1" gradientTransform="matrix(1 0 0 -1 -22.5 401.3)" gradientUnits="userSpaceOnUse"><stop offset="0" stop-color="#941F21"/><stop offset=".6" stop-color="#C13F28"/><stop offset="1" stop-color="#DC5726"/></radialGradient><radialGradient id="k" cx="252.9" cy="324.5" r="328.8" gradientTransform="matrix(.9 0 0 -.9 2.4 367)" gradientUnits="userSpaceOnUse"><stop offset="0" stop-color="#52C4F1"/><stop offset=".1" stop-color="#45BBEC"/><stop offset=".2" stop-color="#00A9DC"/><stop offset=".4" stop-color="#2276B8"/><stop offset=".5" stop-color="#035495"/><stop offset=".8" stop-color="#1D204E"/></radialGradient><radialGradient id="l" cx="243.3" cy="89" r="216" gradientUnits="userSpaceOnUse"><stop offset=".1" stop-color="#00A2DC"/><stop offset=".2" stop-color="#0096D4"/><stop offset=".3" stop-color="#2578B8"/><stop offset=".3" stop-color="#2276B8"/><stop offset=".5" stop-color="#035495"/><stop offset=".8" stop-color="#14143E"/></radialGradient><radialGradient id="m" cx="232" cy="151.4" r="248.2" gradientTransform="matrix(1 0 0 -.9 -22.5 382.9)" gradientUnits="userSpaceOnUse"><stop offset=".6" stop-color="#8ED3F5" stop-opacity="0"/><stop offset=".7" stop-color="#7ACDF2"/></radialGradient><linearGradient id="n" x1="242.8" x2="322.2" y1="176.8" y2="68" gradientUnits="userSpaceOnUse" gradientTransform="matrix(1 0 0 -1 -22.5 401.3)"><stop offset="0" stop-color="#1D406F"/><stop offset="1" stop-color="#141728"/></linearGradient><radialGradient id="r" cx="252.1" cy="142.8" r="210.3" gradientTransform="matrix(.9 0 0 -1 2.4 396.5)" gradientUnits="userSpaceOnUse"><stop offset=".8" stop-color="#00A9D4" stop-opacity="0"/><stop offset=".9" stop-color="#50B6E7" stop-opacity=".5"/><stop offset="1" stop-color="#70CAF2"/></radialGradient><radialGradient id="t" cx="279.9" cy="283.5" r="191.4" gradientTransform="matrix(1 0 0 -1 -22.5 392.6)" gradientUnits="userSpaceOnUse"><stop offset=".1" stop-color="#00A3DE"/><stop offset=".2" stop-color="#009ED9"/><stop offset=".2" stop-color="#0292CE"/><stop offset=".3" stop-color="#1D7EBE"/><stop offset=".3" stop-color="#2276B8"/><stop offset=".4" stop-color="#2468A5"/><stop offset=".7" stop-color="#1F4276"/><stop offset=".9" stop-color="#1D204E"/></radialGradient><radialGradient id="u" cx="343.7" cy="274.4" r="322.2" gradientTransform="matrix(1 0 0 -1 -22.5 392.6)" gradientUnits="userSpaceOnUse"><stop offset=".1" stop-color="#fff"/><stop offset=".1" stop-color="#FFFFFA"/><stop offset=".3" stop-color="#FFE560"/><stop offset=".3" stop-color="#FFDF56"/><stop offset=".3" stop-color="#F8D03B"/><stop offset=".4" stop-color="#F0BE1B"/><stop offset=".5" stop-color="#EB9D23"/><stop offset=".6" stop-color="#E57C27"/><stop offset=".8" stop-color="#DD5626"/><stop offset=".9" stop-color="#C33A28"/><stop offset="1" stop-color="#B02228"/></radialGradient><radialGradient id="v" cx="289.2" cy="223.4" r="239.5" gradientTransform="matrix(1 0 0 -1 -22.5 391.4)" gradientUnits="userSpaceOnUse"><stop offset=".7" stop-color="#B02228" stop-opacity="0"/><stop offset=".9" stop-color="#B02127" stop-opacity=".7"/><stop offset="1" stop-color="#B21F24"/><stop offset="1" stop-color="#B21F24"/></radialGradient><radialGradient id="w" cx="311.4" cy="142.2" r="244.6" gradientTransform="matrix(.5 -.8 -.8 -.5 243.5 585.4)" gradientUnits="userSpaceOnUse"><stop offset=".7" stop-color="#ED6624" stop-opacity="0"/><stop offset=".8" stop-color="#ED6824" stop-opacity=".5"/><stop offset=".9" stop-color="#EE6D24" stop-opacity=".7"/><stop offset=".9" stop-color="#EF7624" stop-opacity=".8"/><stop offset=".9" stop-color="#F28223" stop-opacity=".9"/><stop offset="1" stop-color="#F59123"/><stop offset="1" stop-color="#F69622"/></radialGradient><radialGradient id="x" cx="244.2" cy="141.6" r="78.7" gradientTransform="matrix(1 0 0 -.6 -22.5 239.6)" gradientUnits="userSpaceOnUse"><stop offset="0" stop-color="#E05A27" stop-opacity=".1"/><stop offset=".3" stop-color="#DE5926" stop-opacity=".8"/><stop offset=".6" stop-color="#B02228"/></radialGradient><radialGradient id="y" cx="176.7" cy="-20.5" r="66.2" gradientTransform="matrix(1 -.3 -.1 -.4 44.2 194.9)" gradientUnits="userSpaceOnUse"><stop offset="0" stop-color="#E05A27" stop-opacity="0"/><stop offset=".5" stop-color="#DD5A26" stop-opacity=".8"/><stop offset=".7" stop-color="#B02228"/></radialGradient><radialGradient id="z" cx="308" cy="185.2" r="178.3" gradientTransform="matrix(1 0 0 -1 -22.5 401.3)" gradientUnits="userSpaceOnUse"><stop offset=".5" stop-color="#F0B91C"/><stop offset=".7" stop-color="#E36024"/><stop offset=".8" stop-color="#DB5825"/><stop offset=".9" stop-color="#C74127"/><stop offset="1" stop-color="#B02228"/></radialGradient><radialGradient id="A" cx="433" cy="286.1" r="215.6" gradientTransform="matrix(1 0 0 -1 -22.5 401.3)" gradientUnits="userSpaceOnUse"><stop offset=".3" stop-color="#FFE300"/><stop offset=".5" stop-color="#F8C91E"/><stop offset=".8" stop-color="#E36024"/><stop offset="1" stop-color="#E36024"/></radialGradient><radialGradient id="B" cx="369.2" cy="204.1" r="87.7" gradientTransform="matrix(1 0 0 -1 -22.5 401.3)" gradientUnits="userSpaceOnUse"><stop offset=".1" stop-color="#fff"/><stop offset=".1" stop-color="#FFFEF7"/><stop offset=".1" stop-color="#FFFBE8"/><stop offset=".2" stop-color="#FFF7D0"/><stop offset=".2" stop-color="#FFF2AF"/><stop offset=".3" stop-color="#FFEC85"/><stop offset=".3" stop-color="#FFE643"/><stop offset=".4" stop-color="#FFE300"/><stop offset=".4" stop-color="#FFDB00"/><stop offset=".5" stop-color="#F6C713"/><stop offset=".5" stop-color="#F0B91C"/><stop offset="1" stop-color="#E36024"/></radialGradient><radialGradient id="C" cx="386.2" cy="214.7" r="159.1" gradientTransform="matrix(1 0 0 -1 -22.5 401.3)" gradientUnits="userSpaceOnUse"><stop offset=".1" stop-color="#fff"/><stop offset=".1" stop-color="#FFFEF7"/><stop offset=".1" stop-color="#FFFBE8"/><stop offset=".2" stop-color="#FFF7D0"/><stop offset=".2" stop-color="#FFF2AF"/><stop offset=".3" stop-color="#FFEC85"/><stop offset=".3" stop-color="#FFE643"/><stop offset=".4" stop-color="#FFE300"/><stop offset=".4" stop-color="#FFDB00"/><stop offset=".5" stop-color="#F6C713"/><stop offset=".5" stop-color="#F0B91C"/><stop offset=".7" stop-color="#E27327"/><stop offset=".9" stop-color="#DD5A26"/></radialGradient><radialGradient id="D" cx="360.8" cy="173.3" r="134.7" gradientTransform="matrix(1 0 0 -1 -22.5 401.3)" gradientUnits="userSpaceOnUse"><stop offset=".1" stop-color="#fff"/><stop offset=".1" stop-color="#FFFEF7"/><stop offset=".1" stop-color="#FFFBE8"/><stop offset=".2" stop-color="#FFF7D0"/><stop offset=".2" stop-color="#FFF2AF"/><stop offset=".2" stop-color="#FFEC85"/><stop offset=".3" stop-color="#FFE643"/><stop offset=".3" stop-color="#FFE300"/><stop offset=".3" stop-color="#FFDB00"/><stop offset=".4" stop-color="#F6C713"/><stop offset=".4" stop-color="#F0B91C"/><stop offset=".5" stop-color="#EA9E23"/><stop offset=".6" stop-color="#E27327"/><stop offset=".8" stop-color="#DF6427"/><stop offset=".9" stop-color="#DD5A26"/></radialGradient><linearGradient id="E" x1="319.5" x2="296.9" y1="144.2" y2="45.7" gradientUnits="userSpaceOnUse" gradientTransform="matrix(1 0 0 -1 -18.9 429.9)"><stop offset="0" stop-color="#FFF038"/><stop offset="0" stop-color="#FFEC33"/><stop offset=".1" stop-color="#FFD92F"/><stop offset=".1" stop-color="#FCBC29"/><stop offset=".2" stop-color="#F9A725"/><stop offset=".3" stop-color="#F79B23"/><stop offset=".3" stop-color="#F69622"/><stop offset=".8" stop-color="#DE5B26" stop-opacity=".1"/></linearGradient><linearGradient id="F" x1="132.4" x2="112.3" y1="253.2" y2="304.8" gradientUnits="userSpaceOnUse" gradientTransform="matrix(1 0 0 -1 -22.5 401.3)"><stop offset=".2" stop-color="#B02228"/><stop offset=".4" stop-color="#BF3628" stop-opacity=".7"/><stop offset=".6" stop-color="#C84228" stop-opacity=".5"/><stop offset="1" stop-color="#E05A27" stop-opacity="0"/></linearGradient><linearGradient id="G" x1="213.9" x2="240.8" y1="214.4" y2="226.2" gradientUnits="userSpaceOnUse" gradientTransform="matrix(1 0 0 -1 -22.5 401.3)"><stop offset=".1" stop-color="#DD5A26"/><stop offset=".3" stop-color="#E9986D"/><stop offset=".7" stop-color="#F4D4AC"/><stop offset="1" stop-color="#F9F7C9"/></linearGradient><linearGradient id="H" x1="216.4" x2="285.6" y1="211.3" y2="246.1" gradientUnits="userSpaceOnUse" gradientTransform="matrix(1 0 0 -1 -22.5 401.3)"><stop offset="0" stop-color="#DD5A26"/><stop offset=".3" stop-color="#ECA77C"/><stop offset="1" stop-color="#F9F7C9"/></linearGradient><radialGradient id="I" cx="239.8" cy="87.7" r="95.2" gradientTransform="matrix(1 0 0 -.8 -22.5 351.9)" gradientUnits="userSpaceOnUse"><stop offset=".5" stop-color="#E05A27" stop-opacity="0"/><stop offset=".8" stop-color="#DE5926" stop-opacity=".8"/><stop offset=".9" stop-color="#B02228"/></radialGradient><linearGradient id="J" x1="242.4" x2="262.6" y1="226.8" y2="257.8" gradientUnits="userSpaceOnUse" gradientTransform="matrix(1 0 0 -1 -22.5 401.3)"><stop offset="0" stop-color="#37383A"/><stop offset=".7" stop-color="#7B3F3D"/><stop offset="1" stop-color="#DD5A26"/></linearGradient><radialGradient id="K" cx="192.6" cy="91.8" r="87.3" gradientTransform="matrix(1 -.2 -.1 -.7 23.7 335.4)" gradientUnits="userSpaceOnUse"><stop offset=".5" stop-color="#E05A27" stop-opacity="0"/><stop offset=".7" stop-color="#DD5A26"/><stop offset=".8" stop-color="#B02228"/></radialGradient><radialGradient id="L" cx="328.2" cy="321.7" r="164.5" gradientTransform="matrix(1 0 0 -1 -10.1 409.1)" gradientUnits="userSpaceOnUse"><stop offset="0" stop-color="#FFE000" stop-opacity="0"/><stop offset=".3" stop-color="#FED700" stop-opacity=".5"/><stop offset=".5" stop-color="#FED208" stop-opacity=".7"/><stop offset=".9" stop-color="#FED208" stop-opacity="0"/></radialGradient><radialGradient id="p" cx="191.1" cy="121.2" r="210.7" gradientUnits="userSpaceOnUse"><stop offset="0" stop-color="#ED6624"/><stop offset="1" stop-color="#F69622"/></radialGradient><radialGradient id="o" cx="-1336.8" cy="-1154.3" r="53.9" gradientTransform="matrix(-.3 .9 -.6 -.2 -843.3 1324.9)" gradientUnits="userSpaceOnUse"><stop offset="0" stop-color="#fff"/><stop offset="0" stop-color="#FFFBE8"/><stop offset=".1" stop-color="#FFF2B6" stop-opacity=".9"/><stop offset=".2" stop-color="#FFED8C" stop-opacity=".8"/><stop offset=".2" stop-color="#FFE967" stop-opacity=".7"/><stop offset=".3" stop-color="#FFE645" stop-opacity=".6"/><stop offset=".3" stop-color="#FFE42C" stop-opacity=".5"/><stop offset=".4" stop-color="#FFE421" stop-opacity=".5"/><stop offset=".8" stop-color="#FFE300" stop-opacity="0"/></radialGradient><radialGradient id="M" cx="-1407" cy="-1101.4" r="56.1" xlink:href="#o" gradientTransform="matrix(-.3 .8 -.7 -.2 -894.4 1167.5)" gradientUnits="userSpaceOnUse"/><radialGradient id="N" cx="-1564.7" cy="-1274.8" r="42.1" xlink:href="#o" gradientTransform="matrix(-.2 .5 -.5 -.2 -783.8 783.3)" gradientUnits="userSpaceOnUse"/><linearGradient id="O" x1="230" x2="230" y1="213.1" y2="404" gradientUnits="userSpaceOnUse"><stop offset="0" stop-color="#E57C27"/><stop offset=".5" stop-color="#DD5626"/><stop offset=".7" stop-color="#C33A28"/><stop offset=".8" stop-color="#B02228"/><stop offset=".8" stop-color="#AB2026"/><stop offset=".9" stop-color="#9C1C21"/><stop offset="1" stop-color="#8C161A"/></linearGradient><radialGradient id="P" cx="2977.6" cy="-4571.6" r="111.6" xlink:href="#p" gradientTransform="rotate(-88.4 4109.5 -664.9)" gradientUnits="userSpaceOnUse"/><radialGradient id="Q" cx="140.2" cy="141.5" r="43.9" gradientTransform="matrix(1 .3 -.2 .6 33.5 10.3)" gradientUnits="userSpaceOnUse"><stop offset=".5" stop-color="#E57C27" stop-opacity="0"/><stop offset=".8" stop-color="#F0BE1B"/></radialGradient></defs><defs><path id="q" d="M240.2 395.4c93 0 168.6-75.6 168.6-168.7 0-93.2-75.5-168.7-168.6-168.7-93 0-168.6 75.5-168.6 168.7 0 93 75.5 168.7 168.6 168.7z"/></defs><clipPath id="s"><use width="497.4" height="468" xlink:href="#q" overflow="visible"/></clipPath><path fill="url(#r)" d="M240.2 395.4c93 0 168.4-75.4 168.4-168.5 0-93-75.4-168.5-168.4-168.5S72 134 72 227 147.2 395.3 240 395.3z" clip-path="url(#s)"/><path fill="url(#t)" d="M367.5 334.7c9.6-18.2 22.8-28.8 30-41.4 9.3-16.8 27-63.8 13.7-101.8 6 23.8 4.2 48-15.4 60 6.3-16.7 10.3-53.4 3.8-86.5-4.3-21.5-17.8-40.8-26.5-46.8 8.2 6 14.6 27.8 14.5 37.7-17-28.5-44.5-55.8-86.2-67.3 32.4 21.4 44.5 39.5 52.2 55.7-8.6-9-23.5-18-33.5-19 15 11.3 40 44.4 37.5 94.6-3.8-8-11-20.7-16-25 5.5 49.2.8 59.8-2.5 73-.7-6-3-10.6-4-13.4 0 0-.7 15.4-10.7 37.4-7.5 16.6-15.4 21.8-18.8 21.2-3-.5-1-3.5-1.5-6.3 0 0-5.2 2.5-10.4 7.8-5 5-9.3 10.8-11.6 9.2 1.7-1.4 3-3.8 4.3-6-2 1.4-6.8 5-17.8 6.6-4.4.7-23.5 4.2-49-8.5 3.8-.3 9.4-1.6 13.6 1-4-4.7-14.3-3.7-21.6-6-6.3-2-14.7-11-19.4-15.5 19.6 4.8 40.3 1.4 52.3-7 12-8.2 19.3-14.2 25.8-12.8 6.6 1.5 10.8-5 5.8-10.7-5-5.7-17-13.4-33.6-9.3-14 3.6-26 16-48 3-18.6-11.2-18.5-20.2-18.5-26 0-3.8 2.4-9 7-11.6l3.8 1.7s-1-1.7-1.8-2.5l.5-.2c2 .7 6.5 2.4 8.7 3.5 3 1.6 4 3 4 3s.7-.3 0-2c-.3-.5-1.4-2.4-4.4-4.3h.2l5 2.5c.7-2.7 1.8-5.5 1-10.4-.4-3.4-.4-4.3-1.2-5.5-.7-1 .2-1.5 1.4-.6l-1-2.5c1-4.2 26.2-17.5 28-19 2.7-1.8 5.4-4.8 7-8.3 1.3-2.2 2.2-5.3 2-9.8-.2-3.3-2-5.3-29-5-7.4 0-12.2-4.3-15-8.4l-1.6-2.5c-.6-1-1-2-1.4-3 3.3-11.6 9.7-21.8 19.8-30 .6-.5-2.4.3-1.8-.2.7-.7 5-2.7 5.8-3.2 1-.6-4.6-2-9.5-1s-5.8 1.5-8.3 2.8c1-1 4.3-2.6 3.5-2.4-5.3 1.2-11.5 4.6-16.8 8.4v-1.6c-2.4 1.3-8.5 6-10 9.5v-2c-1.8 1.5-3.5 3.4-5 5.4-16-3.8-29.2-3-40.4.7-2.7-1.8-7-4.8-13.7-15.2-.4-.6-.4 1.4-.8.8-2.6-4.8-5-13-5-18.8 0 0-4.4 2.5-7.3 11.5a35.4 35.4 0 0 1-1.2 3.4c0 .2.2-3 0-2.7-.5 1-2 3-2.5 5-.4 1.4-1 2.3-1.2 4.2 0-.4 0-2-.2-1.7-1.2 3.3-2.4 7.2-3.3 11.4-1.3 6.7-2.7 16-1.8 27.8v2.8c-4.2 5.8-7 10.8-8 13.3-5.3 10-10.6 25.4-15 49.5 0 0 3-9 8.7-19.4-4.3 13-7.6 33.2-5.7 63.5 0-1 1-8.7 3.2-19 1 20 6 45 21.6 71.7 12 20.5 43.5 68 122.4 85.7-8.6-2.6-14-7.6-14-7.6s29.5 9.5 51 8.7c-6.7-1-8-4.3-8-4.3s76.5 4.3 103-31.8c-9.2 10.5-32 13.4-40.7 13.5 13.2-12.2 42.3-12 74-43 17.2-17 19-30 21-42-3 16-18 25.4-33.8 34z" clip-path="url(#s)" opacity=".6"/><path fill="#8ed8f8" d="M241 59.2c65.3 0 122 37.2 149.8 91.6-27.6-55.2-84.7-93-150.6-93C147.2 57.7 72 133 72 226c0 27.6 6.6 53.8 18.4 76.8-11.4-22.7-17.8-48.3-17.8-75.3 0-93 75.4-168.5 168.4-168.5z"/><path fill="url(#u)" d="M368.2 327c9.7-18.2 22.8-29 30-41.5 9.4-16.8 27.2-64 13.8-102 6 23.8 4.2 48-15.5 60.2C403 227 407 190 400.3 157c-4.3-21.6-17.7-41-26.5-47 8 6 14.6 27.8 14.4 37.8-17-28.5-44.6-55.8-86.4-67.3 32.4 21.4 44.5 39.6 52.2 55.8-8.7-9-23.6-18.2-33.6-19 15 11.2 40.2 44.4 37.5 94.7-4-8-11-20.7-16-25.2 5.3 49.4.6 60-2.7 73-.7-6-3-10.4-4.2-13.2 0 0-.5 15.5-10.5 37.5-7.6 16.8-15.5 22-19 21.3-1 0-1.5-.4-1.4-.5.3-2 .5-4.4 0-5.8 0 0-3.2 1-5.3 4-1 1.2-2 2.4-3.4 3.4-.3.2 2.2-3.2 2-3a44.4 44.4 0 0 0-4 3.5c-4.8 5-9.3 10.7-11.6 9 2-.5 3.8-3.3 4.3-6-2 1.5-7 5-18 6.8-4.4.7-23.6 4.2-49-8.6 3.7-.4 9.3-1.7 13.5.8-4.3-4.6-14.5-3.6-21.8-6-6.4-2-14.7-11-19.5-15.4 19.6 4.8 40.4 1.3 52.4-7 12-8.2 19.3-14.3 25.8-12.8 6.4 1.5 10.7-5 5.7-10.8-5-5.7-17-13.5-33.6-9.3-12.6 3.2-23.4 13.3-41.2 6.3l-3.3-1.4c-1.2-.6 3.6.7 2.4 0-3.5-1.3-9.7-4.2-11.2-5.2-.3-.2 2.6.5 2.3.4-17-10-15.8-18-15.8-23 0-4 2.4-9.2 7-11.7l3.8 1.7-1.8-2.6h.5c2 .7 6.4 2.3 8.7 3.5 3 1.6 4 3 4 3s.7-.3 0-2c-.4-.5-1.5-2.4-4.5-4.3 1.7.6 3.3 1.5 5.2 2.5.6-2.7 1.7-5.5 1-10.4-.7-3.5-.6-4.3-1.5-5.6-.8-1 .2-1.5 1.3-.6l-1-2.4c1-4.3 26.2-17.6 28-19 2.7-2 5.4-5 7-8.4 1.2-2.2 2-5.4 1.8-10-.2-3-2-5-29.2-5-7.3.2-12-4-15-8.2l-1.6-2.5-1.4-3c3.3-11.7 9.7-22 19.8-30.2.6-.5-2.4.3-1.8-.2.7-.6 5-2.6 5.8-3 1-.6-4.7-2.2-9.5-1.2-5 1-6 1.6-8.4 3 1-1 4.2-2.8 3.4-2.6-5.3 1.2-11.6 4.6-17 8.4 0-.5 0-1 .2-1.6-2.5 1.3-8.6 6-10.2 9.5v-2a36.6 36.6 0 0 0-5 5.5c-15.8-3.8-29.2-2.8-40.4.8-2.7-2-7-5-13.8-15.4-.4-.6-.5 1.4-1 .8-2.6-4.8-5-13-5-18.8 0 0-4.4 2.5-7.3 11.5l-1.3 3.3c0 .3.2-3 0-2.6-.5 1-2 3-2.5 5-.4 1.4-1 2.3-1.2 4.2-.2-.4-.2-2-.3-1.7-1.3 3.3-2.5 7-3.4 11.4-1.4 6.8-2.8 16-2 28 0 .8.2 1.8 0 2.6-4 6-7 11-8 13.4-5.2 10-10.5 25.7-14.8 50 0 0 3-9.2 8.7-19.5-4.2 13-7.6 33.2-5.6 63.6 0-1 1-8.6 3.2-19 1 20.2 6 45 21.6 72 12 20.4 43.5 68 122.6 86-8.7-2.6-14-7.6-14-7.6s29.4 9.5 51 8.7c-6.8-1.3-8-4.5-8-4.5s76.6 4.4 103-31.8c-9 10.6-32 13.6-40.6 13.7 13.2-12 42.4-11.8 74-43 17.4-17 19.3-30 21.2-42.2-3 16-18 25.5-33.8 34z"/><path fill="url(#v)" d="M368.2 327c9.7-18.2 22.8-29 30-41.5 9.4-16.8 27.2-64 13.8-102 6 23.8 4.2 48-15.5 60.2C403 227 407 190 400.3 157c-4.3-21.6-17.7-41-26.5-47 8 6 14.6 27.8 14.4 37.8-17-28.5-44.6-55.8-86.4-67.3 32.4 21.4 44.5 39.6 52.2 55.8-8.7-9-23.6-18.2-33.6-19 15 11.2 40.2 44.4 37.5 94.7-4-8-11-20.7-16-25.2 5.3 49.4.6 60-2.7 73-.7-6-3-10.4-4.2-13.2 0 0-.5 15.5-10.5 37.5-7.6 16.8-15.5 22-19 21.3-1 0-1.5-.4-1.4-.5.3-2 .5-4.4 0-5.8 0 0-3.2 1-5.3 4-1 1.2-2 2.4-3.4 3.4-.3.2 2.2-3.2 2-3a44.4 44.4 0 0 0-4 3.5c-4.8 5-9.3 10.7-11.6 9 2-.5 3.8-3.3 4.3-6-2 1.5-7 5-18 6.8-4.4.7-23.6 4.2-49-8.6 3.7-.4 9.3-1.7 13.5.8-4.3-4.6-14.5-3.6-21.8-6-6.4-2-14.7-11-19.5-15.4 19.6 4.8 40.4 1.3 52.4-7 12-8.2 19.3-14.3 25.8-12.8 6.4 1.5 10.7-5 5.7-10.8-5-5.7-17-13.5-33.6-9.3-12.6 3.2-23.4 13.3-41.2 6.3l-3.3-1.4c-1.2-.6 3.6.7 2.4 0-3.5-1.3-9.7-4.2-11.2-5.2-.3-.2 2.6.5 2.3.4-17-10-15.8-18-15.8-23 0-4 2.4-9.2 7-11.7l3.8 1.7-1.8-2.6h.5c2 .7 6.4 2.3 8.7 3.5 3 1.6 4 3 4 3s.7-.3 0-2c-.4-.5-1.5-2.4-4.5-4.3 1.7.6 3.3 1.5 5.2 2.5.6-2.7 1.7-5.5 1-10.4-.7-3.5-.6-4.3-1.5-5.6-.8-1 .2-1.5 1.3-.6l-1-2.4c1-4.3 26.2-17.6 28-19 2.7-2 5.4-5 7-8.4 1.2-2.2 2-5.4 1.8-10-.2-3-2-5-29.2-5-7.3.2-12-4-15-8.2l-1.6-2.5-1.4-3c3.3-11.7 9.7-22 19.8-30.2.6-.5-2.4.3-1.8-.2.7-.6 5-2.6 5.8-3 1-.6-4.7-2.2-9.5-1.2-5 1-6 1.6-8.4 3 1-1 4.2-2.8 3.4-2.6-5.3 1.2-11.6 4.6-17 8.4 0-.5 0-1 .2-1.6-2.5 1.3-8.6 6-10.2 9.5v-2a36.6 36.6 0 0 0-5 5.5c-15.8-3.8-29.2-2.8-40.4.8-2.7-2-7-5-13.8-15.4-.4-.6-.5 1.4-1 .8-2.6-4.8-5-13-5-18.8 0 0-4.4 2.5-7.3 11.5l-1.3 3.3c0 .3.2-3 0-2.6-.5 1-2 3-2.5 5-.4 1.4-1 2.3-1.2 4.2-.2-.4-.2-2-.3-1.7-1.3 3.3-2.5 7-3.4 11.4-1.4 6.8-2.8 16-2 28 0 .8.2 1.8 0 2.6-4 6-7 11-8 13.4-5.2 10-10.5 25.7-14.8 50 0 0 3-9.2 8.7-19.5-4.2 13-7.6 33.2-5.6 63.6 0-1 1-8.6 3.2-19 1 20.2 6 45 21.6 72 12 20.4 43.5 68 122.6 86-8.7-2.6-14-7.6-14-7.6s29.4 9.5 51 8.7c-6.8-1.3-8-4.5-8-4.5s76.6 4.4 103-31.8c-9 10.6-32 13.6-40.6 13.7 13.2-12 42.4-11.8 74-43 17.4-17 19.3-30 21.2-42.2-3 16-18 25.5-33.8 34z"/><path fill="url(#w)" d="M368.2 327c9.7-18.2 22.8-29 30-41.5 9.4-16.8 27.2-64 13.8-102 6 23.8 4.2 48-15.5 60.2C403 227 407 190 400.3 157c-4.3-21.6-17.7-41-26.5-47 8 6 14.6 27.8 14.4 37.8-17-28.5-44.6-55.8-86.4-67.3 32.4 21.4 44.5 39.6 52.2 55.8-8.7-9-23.6-18.2-33.6-19 15 11.2 40.2 44.4 37.5 94.7-4-8-11-20.7-16-25.2 5.3 49.4.6 60-2.7 73-.7-6-3-10.4-4.2-13.2 0 0-.5 15.5-10.5 37.5-7.6 16.8-15.5 22-19 21.3-1 0-1.5-.4-1.4-.5.3-2 .5-4.4 0-5.8 0 0-3.2 1-5.3 4-1 1.2-2 2.4-3.4 3.4-.3.2 2.2-3.2 2-3a44.4 44.4 0 0 0-4 3.5c-4.8 5-9.3 10.7-11.6 9 2-.5 3.8-3.3 4.3-6-2 1.5-7 5-18 6.8-4.4.7-23.6 4.2-49-8.6 3.7-.4 9.3-1.7 13.5.8-4.3-4.6-14.5-3.6-21.8-6-6.4-2-14.7-11-19.5-15.4 19.6 4.8 40.4 1.3 52.4-7 12-8.2 19.3-14.3 25.8-12.8 6.4 1.5 10.7-5 5.7-10.8-5-5.7-17-13.5-33.6-9.3-12.6 3.2-23.4 13.3-41.2 6.3l-3.3-1.4c-1.2-.6 3.6.7 2.4 0-3.5-1.3-9.7-4.2-11.2-5.2-.3-.2 2.6.5 2.3.4-17-10-15.8-18-15.8-23 0-4 2.4-9.2 7-11.7l3.8 1.7-1.8-2.6h.5c2 .7 6.4 2.3 8.7 3.5 3 1.6 4 3 4 3s.7-.3 0-2c-.4-.5-1.5-2.4-4.5-4.3 1.7.6 3.3 1.5 5.2 2.5.6-2.7 1.7-5.5 1-10.4-.7-3.5-.6-4.3-1.5-5.6-.8-1 .2-1.5 1.3-.6l-1-2.4c1-4.3 26.2-17.6 28-19 2.7-2 5.4-5 7-8.4 1.2-2.2 2-5.4 1.8-10-.2-3-2-5-29.2-5-7.3.2-12-4-15-8.2l-1.6-2.5-1.4-3c3.3-11.7 9.7-22 19.8-30.2.6-.5-2.4.3-1.8-.2.7-.6 5-2.6 5.8-3 1-.6-4.7-2.2-9.5-1.2-5 1-6 1.6-8.4 3 1-1 4.2-2.8 3.4-2.6-5.3 1.2-11.6 4.6-17 8.4 0-.5 0-1 .2-1.6-2.5 1.3-8.6 6-10.2 9.5v-2a36.6 36.6 0 0 0-5 5.5c-15.8-3.8-29.2-2.8-40.4.8-2.7-2-7-5-13.8-15.4-.4-.6-.5 1.4-1 .8-2.6-4.8-5-13-5-18.8 0 0-4.4 2.5-7.3 11.5l-1.3 3.3c0 .3.2-3 0-2.6-.5 1-2 3-2.5 5-.4 1.4-1 2.3-1.2 4.2-.2-.4-.2-2-.3-1.7-1.3 3.3-2.5 7-3.4 11.4-1.4 6.8-2.8 16-2 28 0 .8.2 1.8 0 2.6-4 6-7 11-8 13.4-5.2 10-10.5 25.7-14.8 50 0 0 3-9.2 8.7-19.5-4.2 13-7.6 33.2-5.6 63.6 0-1 1-8.6 3.2-19 1 20.2 6 45 21.6 72 12 20.4 43.5 68 122.6 86-8.7-2.6-14-7.6-14-7.6s29.4 9.5 51 8.7c-6.8-1.3-8-4.5-8-4.5s76.6 4.4 103-31.8c-9 10.6-32 13.6-40.6 13.7 13.2-12 42.4-11.8 74-43 17.4-17 19.3-30 21.2-42.2-3 16-18 25.5-33.8 34z"/><path fill="url(#x)" d="M235.8 158c-.2-3.4-2.4-5.7-29.4-5.5-11.2 0-16.4-9.6-18-13.7-3 10.5-3.5 21.3-1.3 34 1.5 8.3 7.5 15.5 10.8 20.5.8.8 1.2 1 1.4.5 1.3-2.6 25-16 27-17.6 2-1.3 10.2-8.3 9.7-18.3z"/><path fill="url(#y)" d="M198.6 154.7s9.4 4.6 10.8 7.6c.5.8-4.7-1.6-4.4-.7.3 1 6.7 4.4 7 6 0 1-3.6-1.4-5.7-1.7 1.3 1 2.8 2.5 2 3.5-1 1-4.3 1.4-4.8 1.7-8.6 5.6 12.2 6.8 19.8 2.7 7.6-4 12.2-10 12.5-11 .3-.7 2.8-8.7-13-6-10 2-16 1.7-24-2.2z"/><path fill="url(#z)" d="M326.8 360.6c-9 5-30.6 11.5-36.8 11.8 37.6-11.5 49.6-27.3 55.8-37.7 19.4-3.7 54.8-21.4 56.2-41.8-1.4 27.8-24.6 47.3-41.2 58.5-19.5 13.3-36.2 14.4-50.3 23.5 4.3-3 10-7 16.3-14.3z"/><path fill="url(#A)" d="M412 184c11.7 38-7.5 54.5-15.6 59.6 10.3-28.4 14-63.7 3-94.7-9.5-26-25.6-39-25.6-39 22.5 24.8 20 52 13.4 71.2 3 18-7.4 68.5 5.7 66-3.3 28.3-15.4 62.7-20.8 73.2 9-14.2 22-27.4 27.8-38.5 11.3-21 24.3-62.6 12-98z"/><path fill="url(#B)" d="M366 192.8s-5 9.7-4.6 28.6c-6.4-24.7-19.3-34.6-19.3-34.6 2 19.8 5.3 48.8-2.4 73.5 1 7.2 2.7 25-4.2 44 11.3-13 26.3-23.6 28.4-34v-1c4 .7 9.2-2.2 13.8-7 3.7-6.3 13.8-25.8 14.7-36.2C368.7 216.8 366 193 366 193z"/><path fill="url(#C)" d="M361.8 257.6c30.8-43 20-88 16.8-102 44.2 72.7-1 156.8-10.3 171-2.5 2-16.7 7.3-22.5 7.8 2-3 6.8-13 6.2-25-6.7 16.5-30.6 28.7-43.7 33.2 22.8-16.5 49-62.5 53.5-85z"/><path fill="url(#D)" d="M356.6 225.2s2.5 37.5-16.4 67.5c5.2-28.2-4.8-46-4.8-46s-1.4 15.3-7.4 30c-10.5 25.5-20 30.7-23.6 28-8 31.8-61 30.3-61 30.3 12 3 54.2 5.4 85-17.4-1.7 4-11 23-34 33 22.6-1.4 52.3-25.3 57.5-41 .3 12-3.5 20-6 24.8 37.6-42 10.5-109 10.5-109z"/><path fill="url(#E)" d="M237.3 355.6c19.7-1.8 35.6-6 46.5-20.4-17.7 3-31.8 1.7-40.5-.3 0 0 14 .4 31.5-4 20.4-5.2 45.8-17 60.2-44.3-.6 65-66.6 78-97.7 69z"/><path fill="url(#F)" d="M111.5 109.6c-.4-.6-.5 1.5-.8.8-2.7-4.8-5-13-5.2-18.8 0 0-4.3 2.5-7.2 11.5l-1.2 3.5.2-2.7c-.5 1-2 3-2.6 5-.4 1.5-1 2.4-1.2 4.5 0 .5 0-2.4-.2-2-7 17.7-6 43.3-5.3 42.2 16.5-21.6 37.4-28.5 37.4-28.5-2.5-1.6-8-6-13.8-15.4z"/><path fill="url(#G)" d="M227.8 174.8c1.4-1 6.3-5.6 7.5-11-1 .4-1-.6-2 0-1.8 1.7-6.3 6.4-11.4 9.6 1.4-1.3 3.8-3.2 4.5-4.2-5.6 3.8-12.5 6.6-18 6-.8 0 4 .5 8.2-3-4 2-11 2-11.8 1.6-.7-.2 6.8-1 6-1.2-3.3-1.2-8-.4-9 0-2 1-3.8 2.4-5.2 4 .8-1 1-2 2-3.5-2.6 2.6-6.2 5.2-6.7 5.4.5-.8 6.4-5.3 5.3-5-.6.7-3 2.2-5 3.4-.4.2 3.7-3.3 3.2-3-6.6 1.6-6 5.3-6 5.4l.2 1c1 2.3 3.7 6.4 6.5 10.3 2 2.4 2.6 5 2.8 4.2 1-4.3 27.2-19 29-20.3z"/><path fill="url(#H)" d="M234 165c-.3 0-.5-3.2-.2-2.4.2.7-.3 7.2-6.2 11-1.3.8 0-2.2-1.6-.7-2.4 2.4-8 10.7-22.3 10.7-.6 0 5.6-2.7 4.8-2.5l-8.8 2.7c-.5 0 4.7-3.3 4-3.2-.6.3-3.7 2.3-7.5 4 1.8-2 4-3.7 3.2-3.3-3 1.7-5.3 3.5-6.5 5.5.8 1.4 2 2.4 2.6 4 2 2.2 2.2 4.7 2.7 4 5.2-6.3 26.2-16 31-21 4.7-5 2.8-4.4 4.2-9z"/><path fill="url(#I)" d="M203 309.8c-27-8.4-57.7-20.8-60-56-3.3-46.3 39.4-41.4 39.4-41.4-1.6.6-5 4-6 8s-3.4 12.3 6.3 20.8c15 13.4-25 38.3 43.4 70 1.7 1-15.2 1-23-1.3z"/><path fill="url(#J)" d="M236 165.6c1.3-3 2.7-10-1.3-11.5-3.3-.7-6.2-1.3-11.6-1.2 1.8.5 7 1.5 8.3 4 2.5 4.5.5 13.5-.4 16 2.6-2 3.8-4.2 5-7z"/><path fill="url(#K)" d="M192.3 287.3c18.8 4.5 40 1.3 52-7 8-5.6 19.8-14 25.2-13-6-1.7-10.6-2.4-16-2.2l-2.8.4c-1.8.2-3.7.4-5.8.8-3.4.7-6.8 3-10.2 3l2.8-1.5c-1.7.5-3.6.8-5.6 1.3l-3.6.7c-37.7 7-72.2-13.4-72.2-13.4-2 9.4 14.8 26 36 31z"/><path fill="url(#L)" d="M354 136s14.4 15.4 21.2 30.2c6.8 15 9 31.6 9 31.6s1-14-7-37.8c-8.4-25.7-25-47.6-41.3-59.8C324.7 92 302.6 81 302.6 81s38 22.6 51.2 55z"/><path fill="url(#p)" d="M146 132.6s-7.2 1-20 12.2c-5.6 4.5-10 9-13.5 12.7-9.3 11.4-15 22.4-15 22.4s1-7 5.2-16.4c-13.6 21.7-18.8 53-18.8 53s-.8-14.2 3-31c-1.5 4-3.2 9.4-4 16.7-2.8 22 0 41.3 0 41.3s-1.3-4.2-2.6-10.2c.5 4.4 1.2 9.6 2.4 15.5 4.4 20.7 12.5 40.4 12.5 40.4s-10-13.6-16.6-34c1.3 6.2 3 14 5.8 23.3 8.2 28.5 19 43.4 19 43.4s-8.3-7.3-19.2-34.8c-4.8-12.2-7.3-23.8-9-32.4L73 234.3c-.4-3-.8-6.3-.8-9.2a463.5 463.5 0 0 0-3.8 21.2s.6-22.7 4.4-43.4c.6-3 1.4-6 2.2-8.8l-6.2 12.4s4.6-12.8 9-23.5c-4.3 8-7 14.4-7 14.4s7.8-26.4 17-39.7c5-7.2 10-12 13.7-15 1.2-1.2 2.4-2.3 3.7-3.3a96.6 96.6 0 0 1 4-2.8c.6-.5 1.2-1 2-1.4 12.4-9 25.6-11.3 30.2-10.8.2 0-4 .3-12.5 4.8 4-1.5 7.5-2 9.5-2 .2 0-3 .8-10 5.4 9.3-4.5 17.6-5.7 21-5.3.3 0-6.3.4-20.4 9.5l-1 .8c8.3-3.8 16-4.8 19-4.7zm-39.4 79c-2.5 1.2-5.5 11-3 32.6 1.8 17.6 9 27 9 27s-3.6-7-6-31.5c-2-21-.3-27.7 0-28zm6.8-16.7c-3.4 17.6 1.2 42.8 1.2 42.8s-.8-21 3.7-43c5-23.5 12-30.3 12.2-30.2-4 .4-13.7 12.4-17 30.2zm9.2-45c-2 2.3-3.8 4.7-5.4 7.2-5.6 5.5-12 16.4-15 31.5-6.2 29.3-1.8 47-1.8 47s0-27 6.2-50.4l3-9c-1.8 6.6-2 11.4-2 11.4s5.2-21.4 23.5-39.8c11.7-11.7 19.5-14 19.6-14-8.6 1-19.3 6.6-28 15.7zm-6.6 63c-1.2 13 1 26.3 1 26.3s-.2-13.5 1.6-28.8c1.7-15 4-21 4-21-2.8 1.7-5.8 13.8-6.6 23.2zm1.4-44.3c-6 10-8 20.2-8 20.2s7.4-17 12.5-24.2c5-7.4 10-12 10-12-3 1.3-9.6 6-14.6 15.8zm-26.4 38c-2.5 1-6 10.4-5 32.2.7 17.6 7.5 27.5 7.5 27.5s-3.3-7.3-4-32m105.4-127.8s-12.2 4.5-19 13c-6.8 8.8-8 17.8-8 17.8s7.5-20 27-30.8zm-8.6 11.2c-8.7 11.3-10.8 19.7-10.8 19.7s9.8-23 34.2-32.7c0 0-14.6 1.4-23.3 12.8zM99 116c1.4-13.5 5.2-21.3 5.2-21.3s-12.5 19-5 42c0 0-1.7-7.4-.2-20.8zm9.3 16s-2.8-6-4-17.6c-1-11.5 1-18.5 1-18.5s-7.5 17 3 36z" opacity=".1"/><path fill="url(#o)" d="M273 256c-1.7-2.4-9.4-8-18-8.6-11.7-.8-21 4.2-21 4.2s6.3-3.7 21-2.4c10.2 1 18 6.6 18 7z" opacity=".5"/><path fill="url(#M)" d="M277 260.7c-1.8-2.5-8.4-8.3-19-10.4-13.5-2.6-23.4 3-23.4 3s7.6-3 23.3-.6c10.6 1.8 19 7.7 19 8z" opacity=".5"/><path fill="url(#N)" d="M273.2 260.7c-1.4-1.4-5-3.8-10.8-5.4-9.5-2.7-16-.2-16-.2s4-.8 13.6 1c6 1.3 13.2 4.6 13.3 4.7z" opacity=".5"/><path fill="url(#O)" d="M395.3 316.4c-2 3.7-4.4 7.5-7.8 11.6-8 10-18.2 17.8-26.7 23.6a97.3 97.3 0 0 1-10 6v-1.3c9.6-5 20-12 31-22.5 6.2-6.2 10.5-12 13.5-17.2zM98 105l1-3.4a33.2 33.2 0 0 1 2-4.7c-1 1.5-2 3.5-2.7 6l-.4 1.4c-.2.4-.2.7 0 .6zm104 285.6s1.5 1.3 4 3c9 2.5 30 7.8 46.4 7.2-2-.4-3.5-1-4.7-1.5-20.8-.7-45.6-8.7-45.6-8.7zM74.5 195.8l-1.4 2.5.2-.3c-4 13-7.3 33-5.4 63l.2-1.2v1c.2-.4.3-2 .7-4.7-1.5-28.4 1.7-47.7 5.8-60.2zm19.2 116.4C78 285.2 73 260.5 72 240.4l-.7 3.2c1.3 20 6.3 44 21.5 70 12 20.6 43.5 68.2 122.6 86a39 39 0 0 1-9-4c-72-19.3-101.4-63.8-112.8-83.4zm254 51.8l.7-1C321.8 399.2 245 395 245 395s.4.6 1.4 1.5c11 .4 63 .7 91.3-21.8 7-5.3 11.8-11.4 13.2-17h-.5c-.6 2.5-1.8 4.7-3 6.4zm-266-200.7c-5.8 10-12 26.3-16.8 53.5l.3-1v1l1-3c4.3-23.4 9.5-38.5 14.5-48.4l1-2zM94 111.7c.4-2 1-2.8 1.4-4.4 0-.4.2-.8.4-1.2-.5 1-1 1.8-1.2 2.8 0 .7-.3 1.2-.5 1.8l.2 1.3v-.2zM88.8 152c0-1-.2-1.8 0-2.7-1-11.8.4-21 1.8-28a83 83 0 0 1 2.7-9.5v-.4l-.7 1.6v.4l-.4.8-.8 2.7a90.7 90.7 0 0 0-1.3 4.6l-.3.6-.2.6v.4c-.8 3.2-1.3 6.6-1.7 10.2-1.2 10.2-1 18.8-.5 20l1-1.3zm262 204.3c-.6.3-5.6 3-13.8 6.3-15.5 6.4-26 11.4-27 13 0 0 4-2.7 17.7-8 14.3-5.8 21-9 22.7-10h.4v-1.3h-.2z"/><path fill="url(#P)" d="M219 378.4c1 2.5 10.6 6 32.4 5 17.8-.8 27.6-7.6 27.6-7.6s-7.3 3.4-32 4.2c-21 .8-27.6-1.4-28-1.6zm-13.2-6.8c17.7 4 39.7.5 39.7.5s-21 .2-43-5c-23.2-5.4-29.8-12.8-29.7-13 .3 4 15.3 13.6 33 17.5zm14.8-1.6c13 1.5 26.5-.4 26.5-.4s-13.4-.2-28.6-2.4c-15-2.2-20.8-4.6-20.7-4.7 1.5 2.8 13.5 6.2 23 7.3zm-43.7-2.5c10.4 5.2 20.6 6.6 20.6 6.6s-17.3-6.2-25-11c-7.6-4.6-13.7-8.5-14-9 1.7 3 8 9 18.2 13.4zm36.6 27.2" opacity=".1"/><path fill="url(#Q)" d="M165.6 124.4s-2.7 3.3-4.7 6.4c-2.4 3.5-4.4 7.3-4.4 7.3s-11.3-8.3-21.5-10c-10-1.7-13-1.4-13-1.4s17-9 43.6-2.2z"/></g></svg>